<?xml version="1.0" encoding="UTF-8" standalone="no"?>
<!DOCTYPE svg PUBLIC "-//W3C//DTD SVG 1.1//EN" "http://www.w3.org/Graphics/SVG/1.1/DTD/svg11.dtd">
<svg width="100%" height="100%" viewBox="0 0 1000 1000" version="1.1" xmlns="http://www.w3.org/2000/svg" xmlns:xlink="http://www.w3.org/1999/xlink" xml:space="preserve" xmlns:serif="http://www.serif.com/" style="fill-rule:evenodd;clip-rule:evenodd;stroke-linejoin:round;stroke-miterlimit:1.41421;">
    <path d="M0,0L50,0L100,50L50,50L50,100L0,50L0,0Z" style="fill:rgb(230,26,26);"/>
    <g transform="matrix(1,0,0,1,100,0)">
        <path d="M0,0L50,0L100,50L50,50L50,100L0,50L0,0Z" style="fill:rgb(230,26,26);"/>
    </g>
    <g transform="matrix(1,0,0,1,200,0)">
        <path d="M0,0L50,0L100,50L50,50L50,100L0,50L0,0Z" style="fill:rgb(230,26,26);"/>
    </g>
    <g transform="matrix(1,0,0,1,300,0)">
        <path d="M0,0L50,0L100,50L50,50L50,100L0,50L0,0Z" style="fill:rgb(230,26,26);"/>
    </g>
    <g transform="matrix(1,0,0,1,400,0)">
        <path d="M0,0L50,0L100,50L50,50L50,100L0,50L0,0Z" style="fill:rgb(230,26,26);"/>
    </g>
    <g transform="matrix(1,0,0,1,500,-4.44089e-16)">
        <path d="M0,0L50,0L100,50L50,50L50,100L0,50L0,0Z" style="fill:rgb(230,26,26);"/>
    </g>
    <g transform="matrix(1,0,0,1,600,0)">
        <path d="M0,0L50,0L100,50L50,50L50,100L0,50L0,0Z" style="fill:rgb(230,26,26);"/>
    </g>
    <g transform="matrix(1,0,0,1,700,0)">
        <path d="M0,0L50,0L100,50L50,50L50,100L0,50L0,0Z" style="fill:rgb(230,26,26);"/>
    </g>
    <g transform="matrix(1,0,0,1,800,0)">
        <path d="M0,0L50,0L100,50L50,50L50,100L0,50L0,0Z" style="fill:rgb(230,26,26);"/>
    </g>
    <g transform="matrix(1,0,0,1,900,0)">
        <path d="M0,0L50,0L100,50L50,50L50,100L0,50L0,0Z" style="fill:rgb(230,26,26);"/>
    </g>
    <g transform="matrix(1,0,0,1,5.68434e-14,100)">
        <path d="M0,0L50,0L100,50L50,50L50,100L0,50L0,0Z" style="fill:rgb(230,26,26);"/>
    </g>
    <g transform="matrix(1,0,0,1,100,100)">
        <path d="M0,0L50,0L100,50L50,50L50,100L0,50L0,0Z" style="fill:rgb(230,26,26);"/>
    </g>
    <g transform="matrix(1,0,0,1,200,100)">
        <path d="M0,0L50,0L100,50L50,50L50,100L0,50L0,0Z" style="fill:rgb(230,26,26);"/>
    </g>
    <g transform="matrix(1,0,0,1,300,100)">
        <path d="M0,0L50,0L100,50L50,50L50,100L0,50L0,0Z" style="fill:rgb(230,26,26);"/>
    </g>
    <g transform="matrix(1,0,0,1,400,100)">
        <path d="M0,0L50,0L100,50L50,50L50,100L0,50L0,0Z" style="fill:rgb(230,26,26);"/>
    </g>
    <g transform="matrix(1,0,0,1,500,100)">
        <path d="M0,0L50,0L100,50L50,50L50,100L0,50L0,0Z" style="fill:rgb(230,26,26);"/>
    </g>
    <g transform="matrix(1,0,0,1,600,100)">
        <path d="M0,0L50,0L100,50L50,50L50,100L0,50L0,0Z" style="fill:rgb(230,26,26);"/>
    </g>
    <g transform="matrix(1,0,0,1,700,100)">
        <path d="M0,0L50,0L100,50L50,50L50,100L0,50L0,0Z" style="fill:rgb(230,26,26);"/>
    </g>
    <g transform="matrix(1,0,0,1,800,100)">
        <path d="M0,0L50,0L100,50L50,50L50,100L0,50L0,0Z" style="fill:rgb(230,26,26);"/>
    </g>
    <g transform="matrix(1,0,0,1,900,100)">
        <path d="M0,0L50,0L100,50L50,50L50,100L0,50L0,0Z" style="fill:rgb(230,26,26);"/>
    </g>
    <g transform="matrix(1,0,0,1,5.68434e-14,200)">
        <path d="M0,0L50,0L100,50L50,50L50,100L0,50L0,0Z" style="fill:rgb(230,26,26);"/>
    </g>
    <g transform="matrix(1,0,0,1,100,200)">
        <path d="M0,0L50,0L100,50L50,50L50,100L0,50L0,0Z" style="fill:rgb(230,26,26);"/>
    </g>
    <g transform="matrix(1,0,0,1,200,200)">
        <path d="M0,0L50,0L100,50L50,50L50,100L0,50L0,0Z" style="fill:rgb(230,26,26);"/>
    </g>
    <g transform="matrix(1,0,0,1,300,200)">
        <path d="M0,0L50,0L100,50L50,50L50,100L0,50L0,0Z" style="fill:rgb(230,26,26);"/>
    </g>
    <g transform="matrix(1,0,0,1,400,200)">
        <path d="M0,0L50,0L100,50L50,50L50,100L0,50L0,0Z" style="fill:rgb(230,26,26);"/>
    </g>
    <g transform="matrix(1,0,0,1,500,200)">
        <path d="M0,0L50,0L100,50L50,50L50,100L0,50L0,0Z" style="fill:rgb(230,26,26);"/>
    </g>
    <g transform="matrix(1,0,0,1,600,200)">
        <path d="M0,0L50,0L100,50L50,50L50,100L0,50L0,0Z" style="fill:rgb(230,26,26);"/>
    </g>
    <g transform="matrix(1,0,0,1,700,200)">
        <path d="M0,0L50,0L100,50L50,50L50,100L0,50L0,0Z" style="fill:rgb(230,26,26);"/>
    </g>
    <g transform="matrix(1,0,0,1,800,200)">
        <path d="M0,0L50,0L100,50L50,50L50,100L0,50L0,0Z" style="fill:rgb(230,26,26);"/>
    </g>
    <g transform="matrix(1,0,0,1,900,200)">
        <path d="M0,0L50,0L100,50L50,50L50,100L0,50L0,0Z" style="fill:rgb(230,26,26);"/>
    </g>
    <g transform="matrix(1,0,0,1,-1.86517e-14,300)">
        <path d="M0,0L50,0L100,50L50,50L50,100L0,50L0,0Z" style="fill:rgb(230,26,26);"/>
    </g>
    <g transform="matrix(1,0,0,1,100,300)">
        <path d="M0,0L50,0L100,50L50,50L50,100L0,50L0,0Z" style="fill:rgb(230,26,26);"/>
    </g>
    <g transform="matrix(1,0,0,1,200,300)">
        <path d="M0,0L50,0L100,50L50,50L50,100L0,50L0,0Z" style="fill:rgb(230,26,26);"/>
    </g>
    <g transform="matrix(1,0,0,1,300,300)">
        <path d="M0,0L50,0L100,50L50,50L50,100L0,50L0,0Z" style="fill:rgb(230,26,26);"/>
    </g>
    <g transform="matrix(1,0,0,1,400,300)">
        <path d="M0,0L50,0L100,50L50,50L50,100L0,50L0,0Z" style="fill:rgb(230,26,26);"/>
    </g>
    <g transform="matrix(1,0,0,1,500,300)">
        <path d="M0,0L50,0L100,50L50,50L50,100L0,50L0,0Z" style="fill:rgb(230,26,26);"/>
    </g>
    <g transform="matrix(1,0,0,1,600,300)">
        <path d="M0,0L50,0L100,50L50,50L50,100L0,50L0,0Z" style="fill:rgb(230,26,26);"/>
    </g>
    <g transform="matrix(1,0,0,1,700,300)">
        <path d="M0,0L50,0L100,50L50,50L50,100L0,50L0,0Z" style="fill:rgb(230,26,26);"/>
    </g>
    <g transform="matrix(1,0,0,1,800,300)">
        <path d="M0,0L50,0L100,50L50,50L50,100L0,50L0,0Z" style="fill:rgb(230,26,26);"/>
    </g>
    <g transform="matrix(1,0,0,1,900,300)">
        <path d="M0,0L50,0L100,50L50,50L50,100L0,50L0,0Z" style="fill:rgb(230,26,26);"/>
    </g>
    <g transform="matrix(1,0,0,1,5.68434e-14,400)">
        <path d="M0,0L50,0L100,50L50,50L50,100L0,50L0,0Z" style="fill:rgb(230,26,26);"/>
    </g>
    <g transform="matrix(1,0,0,1,100,400)">
        <path d="M0,0L50,0L100,50L50,50L50,100L0,50L0,0Z" style="fill:rgb(230,26,26);"/>
    </g>
    <g transform="matrix(1,0,0,1,200,400)">
        <path d="M0,0L50,0L100,50L50,50L50,100L0,50L0,0Z" style="fill:rgb(230,26,26);"/>
    </g>
    <g transform="matrix(1,0,0,1,300,400)">
        <path d="M0,0L50,0L100,50L50,50L50,100L0,50L0,0Z" style="fill:rgb(230,26,26);"/>
    </g>
    <g transform="matrix(1,0,0,1,400,400)">
        <path d="M0,0L50,0L100,50L50,50L50,100L0,50L0,0Z" style="fill:rgb(230,26,26);"/>
    </g>
    <g transform="matrix(1,0,0,1,500,400)">
        <path d="M0,0L50,0L100,50L50,50L50,100L0,50L0,0Z" style="fill:rgb(230,26,26);"/>
    </g>
    <g transform="matrix(1,0,0,1,600,400)">
        <path d="M0,0L50,0L100,50L50,50L50,100L0,50L0,0Z" style="fill:rgb(230,26,26);"/>
    </g>
    <g transform="matrix(1,0,0,1,700,400)">
        <path d="M0,0L50,0L100,50L50,50L50,100L0,50L0,0Z" style="fill:rgb(230,26,26);"/>
    </g>
    <g transform="matrix(1,0,0,1,800,400)">
        <path d="M0,0L50,0L100,50L50,50L50,100L0,50L0,0Z" style="fill:rgb(230,26,26);"/>
    </g>
    <g transform="matrix(1,0,0,1,900,400)">
        <path d="M0,0L50,0L100,50L50,50L50,100L0,50L0,0Z" style="fill:rgb(230,26,26);"/>
    </g>
    <g transform="matrix(1,0,0,1,5.68434e-14,500)">
        <path d="M0,0L50,0L100,50L50,50L50,100L0,50L0,0Z" style="fill:rgb(230,26,26);"/>
    </g>
    <g transform="matrix(1,0,0,1,100,500)">
        <path d="M0,0L50,0L100,50L50,50L50,100L0,50L0,0Z" style="fill:rgb(230,26,26);"/>
    </g>
    <g transform="matrix(1,0,0,1,200,500)">
        <path d="M0,0L50,0L100,50L50,50L50,100L0,50L0,0Z" style="fill:rgb(230,26,26);"/>
    </g>
    <g transform="matrix(1,0,0,1,300,500)">
        <path d="M0,0L50,0L100,50L50,50L50,100L0,50L0,0Z" style="fill:rgb(230,26,26);"/>
    </g>
    <g transform="matrix(1,0,0,1,400,500)">
        <path d="M0,0L50,0L100,50L50,50L50,100L0,50L0,0Z" style="fill:rgb(230,26,26);"/>
    </g>
    <g transform="matrix(1,0,0,1,500,500)">
        <path d="M0,0L50,0L100,50L50,50L50,100L0,50L0,0Z" style="fill:rgb(230,26,26);"/>
    </g>
    <g transform="matrix(1,0,0,1,600,500)">
        <path d="M0,0L50,0L100,50L50,50L50,100L0,50L0,0Z" style="fill:rgb(230,26,26);"/>
    </g>
    <g transform="matrix(1,0,0,1,700,500)">
        <path d="M0,0L50,0L100,50L50,50L50,100L0,50L0,0Z" style="fill:rgb(230,26,26);"/>
    </g>
    <g transform="matrix(1,0,0,1,800,500)">
        <path d="M0,0L50,0L100,50L50,50L50,100L0,50L0,0Z" style="fill:rgb(230,26,26);"/>
    </g>
    <g transform="matrix(1,0,0,1,900,500)">
        <path d="M0,0L50,0L100,50L50,50L50,100L0,50L0,0Z" style="fill:rgb(230,26,26);"/>
    </g>
    <g transform="matrix(1,0,0,1,0,600)">
        <path d="M0,0L50,0L100,50L50,50L50,100L0,50L0,0Z" style="fill:rgb(230,26,26);"/>
    </g>
    <g transform="matrix(1,0,0,1,100,600)">
        <path d="M0,0L50,0L100,50L50,50L50,100L0,50L0,0Z" style="fill:rgb(230,26,26);"/>
    </g>
    <g transform="matrix(1,0,0,1,200,600)">
        <path d="M0,0L50,0L100,50L50,50L50,100L0,50L0,0Z" style="fill:rgb(230,26,26);"/>
    </g>
    <g transform="matrix(1,0,0,1,300,600)">
        <path d="M0,0L50,0L100,50L50,50L50,100L0,50L0,0Z" style="fill:rgb(230,26,26);"/>
    </g>
    <g transform="matrix(1,0,0,1,400,600)">
        <path d="M0,0L50,0L100,50L50,50L50,100L0,50L0,0Z" style="fill:rgb(230,26,26);"/>
    </g>
    <g transform="matrix(1,0,0,1,500,600)">
        <path d="M0,0L50,0L100,50L50,50L50,100L0,50L0,0Z" style="fill:rgb(230,26,26);"/>
    </g>
    <g transform="matrix(1,0,0,1,600,600)">
        <path d="M0,0L50,0L100,50L50,50L50,100L0,50L0,0Z" style="fill:rgb(230,26,26);"/>
    </g>
    <g transform="matrix(1,0,0,1,700,600)">
        <path d="M0,0L50,0L100,50L50,50L50,100L0,50L0,0Z" style="fill:rgb(230,26,26);"/>
    </g>
    <g transform="matrix(1,0,0,1,800,600)">
        <path d="M0,0L50,0L100,50L50,50L50,100L0,50L0,0Z" style="fill:rgb(230,26,26);"/>
    </g>
    <g transform="matrix(1,0,0,1,900,600)">
        <path d="M0,0L50,0L100,50L50,50L50,100L0,50L0,0Z" style="fill:rgb(230,26,26);"/>
    </g>
    <g transform="matrix(1,0,0,1,5.68434e-14,700)">
        <path d="M0,0L50,0L100,50L50,50L50,100L0,50L0,0Z" style="fill:rgb(230,26,26);"/>
    </g>
    <g transform="matrix(1,0,0,1,100,700)">
        <path d="M0,0L50,0L100,50L50,50L50,100L0,50L0,0Z" style="fill:rgb(230,26,26);"/>
    </g>
    <g transform="matrix(1,0,0,1,200,700)">
        <path d="M0,0L50,0L100,50L50,50L50,100L0,50L0,0Z" style="fill:rgb(230,26,26);"/>
    </g>
    <g transform="matrix(1,0,0,1,300,700)">
        <path d="M0,0L50,0L100,50L50,50L50,100L0,50L0,0Z" style="fill:rgb(230,26,26);"/>
    </g>
    <g transform="matrix(1,0,0,1,400,700)">
        <path d="M0,0L50,0L100,50L50,50L50,100L0,50L0,0Z" style="fill:rgb(230,26,26);"/>
    </g>
    <g transform="matrix(1,0,0,1,500,700)">
        <path d="M0,0L50,0L100,50L50,50L50,100L0,50L0,0Z" style="fill:rgb(230,26,26);"/>
    </g>
    <g transform="matrix(1,0,0,1,600,700)">
        <path d="M0,0L50,0L100,50L50,50L50,100L0,50L0,0Z" style="fill:rgb(230,26,26);"/>
    </g>
    <g transform="matrix(1,0,0,1,700,700)">
        <path d="M0,0L50,0L100,50L50,50L50,100L0,50L0,0Z" style="fill:rgb(230,26,26);"/>
    </g>
    <g transform="matrix(1,0,0,1,800,700)">
        <path d="M0,0L50,0L100,50L50,50L50,100L0,50L0,0Z" style="fill:rgb(230,26,26);"/>
    </g>
    <g transform="matrix(1,0,0,1,900,700)">
        <path d="M0,0L50,0L100,50L50,50L50,100L0,50L0,0Z" style="fill:rgb(230,26,26);"/>
    </g>
    <g transform="matrix(1,0,0,1,1.13687e-13,800)">
        <path d="M0,0L50,0L100,50L50,50L50,100L0,50L0,0Z" style="fill:rgb(230,26,26);"/>
    </g>
    <g transform="matrix(1,0,0,1,100,800)">
        <path d="M0,0L50,0L100,50L50,50L50,100L0,50L0,0Z" style="fill:rgb(230,26,26);"/>
    </g>
    <g transform="matrix(1,0,0,1,200,800)">
        <path d="M0,0L50,0L100,50L50,50L50,100L0,50L0,0Z" style="fill:rgb(230,26,26);"/>
    </g>
    <g transform="matrix(1,0,0,1,300,800)">
        <path d="M0,0L50,0L100,50L50,50L50,100L0,50L0,0Z" style="fill:rgb(230,26,26);"/>
    </g>
    <g transform="matrix(1,0,0,1,400,800)">
        <path d="M0,0L50,0L100,50L50,50L50,100L0,50L0,0Z" style="fill:rgb(230,26,26);"/>
    </g>
    <g transform="matrix(1,0,0,1,500,800)">
        <path d="M0,0L50,0L100,50L50,50L50,100L0,50L0,0Z" style="fill:rgb(230,26,26);"/>
    </g>
    <g transform="matrix(1,0,0,1,600,800)">
        <path d="M0,0L50,0L100,50L50,50L50,100L0,50L0,0Z" style="fill:rgb(230,26,26);"/>
    </g>
    <g transform="matrix(1,0,0,1,700,800)">
        <path d="M0,0L50,0L100,50L50,50L50,100L0,50L0,0Z" style="fill:rgb(230,26,26);"/>
    </g>
    <g transform="matrix(1,0,0,1,800,800)">
        <path d="M0,0L50,0L100,50L50,50L50,100L0,50L0,0Z" style="fill:rgb(230,26,26);"/>
    </g>
    <g transform="matrix(1,0,0,1,900,800)">
        <path d="M0,0L50,0L100,50L50,50L50,100L0,50L0,0Z" style="fill:rgb(230,26,26);"/>
    </g>
    <g transform="matrix(1,0,0,1,1.13687e-13,900)">
        <path d="M0,0L50,0L100,50L50,50L50,100L0,50L0,0Z" style="fill:rgb(230,26,26);"/>
    </g>
    <g transform="matrix(1,0,0,1,100,900)">
        <path d="M0,0L50,0L100,50L50,50L50,100L0,50L0,0Z" style="fill:rgb(230,26,26);"/>
    </g>
    <g transform="matrix(1,0,0,1,200,900)">
        <path d="M0,0L50,0L100,50L50,50L50,100L0,50L0,0Z" style="fill:rgb(230,26,26);"/>
    </g>
    <g transform="matrix(1,0,0,1,300,900)">
        <path d="M0,0L50,0L100,50L50,50L50,100L0,50L0,0Z" style="fill:rgb(230,26,26);"/>
    </g>
    <g transform="matrix(1,0,0,1,400,900)">
        <path d="M0,0L50,0L100,50L50,50L50,100L0,50L0,0Z" style="fill:rgb(230,26,26);"/>
    </g>
    <g transform="matrix(1,0,0,1,500,900)">
        <path d="M0,0L50,0L100,50L50,50L50,100L0,50L0,0Z" style="fill:rgb(230,26,26);"/>
    </g>
    <g transform="matrix(1,0,0,1,600,900)">
        <path d="M0,0L50,0L100,50L50,50L50,100L0,50L0,0Z" style="fill:rgb(230,26,26);"/>
    </g>
    <g transform="matrix(1,0,0,1,700,900)">
        <path d="M0,0L50,0L100,50L50,50L50,100L0,50L0,0Z" style="fill:rgb(230,26,26);"/>
    </g>
    <g transform="matrix(1,0,0,1,800,900)">
        <path d="M0,0L50,0L100,50L50,50L50,100L0,50L0,0Z" style="fill:rgb(230,26,26);"/>
    </g>
    <g transform="matrix(1,0,0,1,900,900)">
        <path d="M0,0L50,0L100,50L50,50L50,100L0,50L0,0Z" style="fill:rgb(230,26,26);"/>
    </g>
</svg>
