<?xml version="1.0" encoding="UTF-8" standalone="no"?>
<svg
   xmlns:dc="http://purl.org/dc/elements/1.1/"
   xmlns:cc="http://creativecommons.org/ns#"
   xmlns:rdf="http://www.w3.org/1999/02/22-rdf-syntax-ns#"
   xmlns:svg="http://www.w3.org/2000/svg"
   xmlns="http://www.w3.org/2000/svg"
   width="600"
   height="600"
   viewBox="0 0 600.00001 600.00001"
   id="svg5922"
   version="1.1">
  <defs
     id="defs5924" />
  <metadata
     id="metadata5927">
    <rdf:RDF>
      <cc:Work
         rdf:about="">
        <dc:format>image/svg+xml</dc:format>
        <dc:type
           rdf:resource="http://purl.org/dc/dcmitype/StillImage" />
        <dc:title></dc:title>
      </cc:Work>
    </rdf:RDF>
  </metadata>
  <path
     id="path12727"
     d="M 300.55592,1.90747 C 477.86958,2.89421 600.56526,141.71539 599.20586,308.38719 597.89216,469.45429 462.74287,596.80284 298.31884,598.08884 133.89466,599.37474 -0.10739905,452.68028 0.78743445,309.50572 1.9059802,130.53947 138.36977,1.00492 300.55592,1.90747 Z"
     style="fill:none;fill-rule:evenodd;stroke:#ee1ac0;stroke-width:1.56595469px;stroke-linecap:butt;stroke-linejoin:miter;stroke-opacity:1" />
  <path
     id="path12727-6"
     d="M 301.03355,30.91326 C 460.58238,31.8047 570.98533,157.2178 569.76214,307.79156 568.58006,453.30197 446.9712,568.35054 299.02061,569.51224 151.06985,570.67404 30.493282,438.14808 31.29848,308.80205 32.304951,147.1213 155.09661,30.09787 301.03355,30.91326 Z"
     style="fill:none;fill-rule:evenodd;stroke:#ee1ac0;stroke-width:1.41188228px;stroke-linecap:butt;stroke-linejoin:miter;stroke-opacity:1" />
  <path
     id="path12731"
     d="M 260.28852,76.84959 C -94.288378,164.09566 107.04864,656.25284 412.40982,495.1832 224.23118,524.94478 23.158209,263.64562 260.28852,76.84959 Z"
     style="fill:none;fill-rule:evenodd;stroke:#ef08d5;stroke-width:1.56595469px;stroke-linecap:butt;stroke-linejoin:miter;stroke-opacity:1" />
  <path
     id="path12752"
     d="m 349.77164,76.84959 c -38.46027,26.49678 -58.16,30.38584 -93.95729,71.5865 -29.64128,34.11544 -45.86009,65.43453 -44.74155,74.94212 1.41365,12.01598 38.19896,-10.79192 53.68987,48.56049 -32.7556,13.47869 -79.03245,67.14527 -36.91179,91.2569 -10.08049,-24.1349 37.1037,-20.43804 61.51966,-26.84494 21.25223,66.35833 -14.2134,54.61651 -14.2134,73.63167 0,19.01517 120.81461,50.73064 198.77234,30.39246 -2.20251,-9.09496 -70.25277,-10.80156 -95.07583,-14.541 10.76865,-5.32129 64.00893,1.76599 63.75674,-7.82977 -0.16086,-6.12063 -66.56954,-8.59743 -76.06066,-13.42248 24.51872,-2.45227 59.83685,1.14749 59.28257,-4.47415 -0.79094,-8.02168 -43.28858,-7.50217 -65.43453,-12.30394 12.65482,-0.84713 28.27588,1.03115 30.75982,-5.5927 1.67782,-4.47415 -14.54101,-10.06683 -20.13371,-11.18538 3.91489,-8.38903 -10.62611,-10.62613 -13.42247,-11.18539 6.71124,-4.47415 5.03343,-9.50759 -2.23708,-10.06685 8.38906,-8.38904 2.79636,-13.98174 0,-19.01517 8.38906,-3.91489 6.71125,-8.38904 0,-13.42247 55.3677,-18.45589 68.23089,-46.41938 157.71402,-70.46796 7.56146,-2.03214 3.35562,-12.30393 0,-14.541 13.42247,-7.27051 1.11853,-16.7781 -5.5927,-16.7781 -4.47415,-20.13369 -22.37079,-8.9483 -23.48932,-6.71122 -4.61183,9.22372 -153.23985,39.70813 -153.23985,39.70813 0,0 4.41078,-11.01601 -6.71124,-10.06685 0.0478,-10.90763 -3.91489,-13.98174 -13.42247,-10.62611 3.91489,-7.82978 2.23709,-14.54102 -7.82978,-14.54102 6.15197,-6.71123 3.35563,-17.89662 3.35563,-17.89662 0,0 10.87359,-13.35317 13.42247,-19.01517 -9.86989,1.73974 -13.98174,6.15197 -23.48932,5.59269 14.541,-8.9483 31.87836,-24.60786 36.91179,-39.14886 -7.82977,-1.11855 -30.20057,16.21881 -46.97864,22.37079 26.28566,-16.7781 49.77498,-47.53792 52.57134,-52.57134 -14.54102,4.47415 -37.47108,26.84493 -54.80842,32.43762 25.16712,-18.45589 45.62758,-38.42828 65.9938,-68.23088 z"
     style="fill:none;fill-rule:evenodd;stroke:#ea0ab8;stroke-width:1.56595469px;stroke-linecap:butt;stroke-linejoin:miter;stroke-opacity:1" />
</svg>
