<?xml version="1.0" encoding="UTF-8" standalone="no"?>
<svg
   xmlns:dc="http://purl.org/dc/elements/1.1/"
   xmlns:cc="http://creativecommons.org/ns#"
   xmlns:rdf="http://www.w3.org/1999/02/22-rdf-syntax-ns#"
   xmlns:svg="http://www.w3.org/2000/svg"
   xmlns="http://www.w3.org/2000/svg"
   version="1.1"
   id="svg15460"
   viewBox="0 0 744.09448819 1052.3622047"
   height="297mm"
   width="210mm">
  <defs
     id="defs15462" />
  <metadata
     id="metadata15465">
    <rdf:RDF>
      <cc:Work
         rdf:about="">
        <dc:format>image/svg+xml</dc:format>
        <dc:type
           rdf:resource="http://purl.org/dc/dcmitype/StillImage" />
        <dc:title></dc:title>
      </cc:Work>
    </rdf:RDF>
  </metadata>
  <g
     id="layer1">
    <path
       id="path16019"
       d="M 63.214286,102.3622 38.571429,150.21935 92.5,256.29077 l 7.5,47.85715 -5,6.78571 14.64286,-1.07143 -5,-81.78571 -2.5,0 -11.071431,-18.21429 5,-68.57143 L 102.5,99.50506 Z"
       style="fill:none;fill-rule:evenodd;stroke:#000000;stroke-width:1px;stroke-linecap:butt;stroke-linejoin:miter;stroke-opacity:1" />
    <path
       id="path16021"
       d="m 62.142857,102.00506 c -20,1.78571 -20.357143,1.78571 -20.357143,1.78571 L 37.5,95.219346 76.428572,78.790775 102.14286,99.147918 105,87.362203 90.357143,89.147917"
       style="fill:none;fill-rule:evenodd;stroke:#000000;stroke-width:1px;stroke-linecap:butt;stroke-linejoin:miter;stroke-opacity:1" />
    <path
       id="path16023"
       d="m 84.285714,83.790775 28.571426,-14.642858 14.28572,15 -22.5,2.857143"
       style="fill:none;fill-rule:evenodd;stroke:#000000;stroke-width:1px;stroke-linecap:butt;stroke-linejoin:miter;stroke-opacity:1" />
    <path
       id="path16025"
       d="M 81.785714,82.719346 111.07143,58.790775 109.28571,70.933632"
       style="fill:none;fill-rule:evenodd;stroke:#000000;stroke-width:1px;stroke-linecap:butt;stroke-linejoin:miter;stroke-opacity:1" />
    <path
       id="path16027"
       d="M 80.357143,81.647917 98.214286,55.219346 121.07143,49.147917 115.35714,6.2907745 142.14286,50.933632 131.07143,64.862203 110.35714,65.576489"
       style="fill:none;fill-rule:evenodd;stroke:#000000;stroke-width:1px;stroke-linecap:butt;stroke-linejoin:miter;stroke-opacity:1" />
    <path
       id="path16029"
       d="m 111.42857,58.433632 30.35714,-7.5"
       style="fill:none;fill-rule:evenodd;stroke:#000000;stroke-width:1px;stroke-linecap:butt;stroke-linejoin:miter;stroke-opacity:1" />
    <path
       id="path16031"
       d="M 127.5,53.790775 115.35714,5.9336316"
       style="fill:none;fill-rule:evenodd;stroke:#000000;stroke-width:1px;stroke-linecap:butt;stroke-linejoin:miter;stroke-opacity:1" />
    <path
       id="path16033"
       d="m 38.214286,149.8622 29.642857,104.28572 0,38.92857 -5.714286,6.78571 10,-2.85714 7.142857,-67.85714"
       style="fill:none;fill-rule:evenodd;stroke:#000000;stroke-width:1px;stroke-linecap:butt;stroke-linejoin:miter;stroke-opacity:1" />
    <path
       id="path16035"
       d="m 95.357143,157.3622 62.499997,-8.57143 32.85715,23.57143 -11.78572,39.28572 -34.64286,19.64285 -39.64285,-2.85714"
       style="fill:none;fill-rule:evenodd;stroke:#000000;stroke-width:1px;stroke-linecap:butt;stroke-linejoin:miter;stroke-opacity:1" />
    <path
       id="path16037"
       d="m 95.714286,152.3622 55.357144,-6.78571 3.21428,3.57143"
       style="fill:none;fill-rule:evenodd;stroke:#000000;stroke-width:1px;stroke-linecap:butt;stroke-linejoin:miter;stroke-opacity:1" />
    <path
       id="path16039"
       d="m 185.35714,190.57649 18.21429,21.07143 -25.35714,0.35714"
       style="fill:none;fill-rule:evenodd;stroke:#000000;stroke-width:1px;stroke-linecap:butt;stroke-linejoin:miter;stroke-opacity:1" />
    <path
       id="path16041"
       d="m 190,172.00506 1.78571,25.71429"
       style="fill:none;fill-rule:evenodd;stroke:#000000;stroke-width:1px;stroke-linecap:butt;stroke-linejoin:miter;stroke-opacity:1" />
    <path
       id="path16043"
       d="m 203.57143,211.64792 -16.42857,77.14285 -5.35715,0 L 185,212.00506"
       style="fill:none;fill-rule:evenodd;stroke:#000000;stroke-width:1px;stroke-linecap:butt;stroke-linejoin:miter;stroke-opacity:1" />
    <path
       id="path16045"
       d="m 171.78571,215.21935 -6.07142,45.35714 -6.07143,0.35714 -0.71429,-37.85714"
       style="fill:none;fill-rule:evenodd;stroke:#000000;stroke-width:1px;stroke-linecap:butt;stroke-linejoin:miter;stroke-opacity:1" />
  </g>
</svg>
