<?xml version="1.0" encoding="UTF-8" standalone="no"?>
<svg
   xmlns:dc="http://purl.org/dc/elements/1.1/"
   xmlns:cc="http://creativecommons.org/ns#"
   xmlns:rdf="http://www.w3.org/1999/02/22-rdf-syntax-ns#"
   xmlns:svg="http://www.w3.org/2000/svg"
   xmlns="http://www.w3.org/2000/svg"
   xmlns:sodipodi="http://sodipodi.sourceforge.net/DTD/sodipodi-0.dtd"
   xmlns:inkscape="http://www.inkscape.org/namespaces/inkscape"
   width="498"
   height="754"
   id="svg2"
   version="1.1"
   inkscape:version="0.91 r13725"
   sodipodi:docname="face1.svg">
  <metadata
     id="metadata10">
    <rdf:RDF>
      <cc:Work
         rdf:about="">
        <dc:format>image/svg+xml</dc:format>
        <dc:type
           rdf:resource="http://purl.org/dc/dcmitype/StillImage" />
        <dc:title></dc:title>
      </cc:Work>
    </rdf:RDF>
  </metadata>
  <defs
     id="defs8" />
  <sodipodi:namedview
     pagecolor="#ffffff"
     bordercolor="#666666"
     borderopacity="1"
     objecttolerance="10"
     gridtolerance="10"
     guidetolerance="10"
     inkscape:pageopacity="0"
     inkscape:pageshadow="2"
     inkscape:window-width="1627"
     inkscape:window-height="910"
     id="namedview6"
     showgrid="false"
     inkscape:zoom="1.7705804"
     inkscape:cx="253.26271"
     inkscape:cy="384.9125"
     inkscape:window-x="20"
     inkscape:window-y="21"
     inkscape:window-maximized="0"
     inkscape:current-layer="svg2" />
  <path
     style="stroke:#000000; fill:none;"
     d="m 186,138 0,1"
     id="path4610" />
  <path
     style="stroke:#000000; fill:none;"
     d="m 192,138 4,0"
     id="path4608" />
  <path
     style="stroke:#000000; fill:none;"
     d="m 198,138 1,0"
     id="path4606" />
  <path
     style="stroke:#000000; fill:none;"
     d="m 175,139 4,0"
     id="path4604" />
  <path
     style="stroke:#000000; fill:none;"
     d="m 182,139 1,0"
     id="path4602" />
  <path
     style="stroke:#000000; fill:none;"
     d="m 201,139 c 42.374,5.818 70.8,29.703 98,61"
     id="path4600" />
  <path
     style="stroke:#000000; fill:none;"
     d="m 152,145 21,-5"
     id="path4598" />
  <path
     style="stroke:#000000; fill:none;"
     d="m 200,148 c -0.458,-4.336 5.686,-4.867 9,-6"
     id="path4596" />
  <path
     style="stroke:#000000; fill:none;"
     d="m 197,146 3,-1"
     id="path4594" />
  <path
     style="stroke:#000000; fill:none;"
     d="m 198,145 0,2"
     id="path4592" />
  <path
     style="stroke:#000000; fill:none;"
     d="m 134,154 16,-8"
     id="path4590" />
  <path
     style="stroke:#000000; fill:none;"
     d="m 212,242 c 3.152,-11.258 18.985,-25.243 30,-28.56 7.053,-2.124 18.643,-0.686 23.066,-7.545 11.59,-17.977 -11.289,-13.196 -20.066,-8.175 -17.613,10.076 -27.014,26.404 -40,41.28 -1.896,-3.611 -2.66,-8.533 -6.144,-10.995 C 191.332,222.688 166.588,224.83 158,227 l -2,-9 -10,9 c -1.036,-7.003 3.677,-14.684 6.424,-21 8.435,-19.387 18.988,-37.641 34.576,-52 l -5,0 c 2.868,-5.483 9.285,-6.805 15,-8"
     id="path4588" />
  <path
     style="stroke:#000000; fill:none;"
     d="m 197,149 -5,3"
     id="path4586" />
  <path
     style="stroke:#000000; fill:none;"
     d="m 177,156 -5,-1 10,-3"
     id="path4584" />
  <path
     style="stroke:#000000; fill:none;"
     d="m 190,153 -3,1"
     id="path4582" />
  <path
     style="stroke:#000000; fill:none;"
     d="m 178,154 4,0"
     id="path4580" />
  <path
     style="stroke:#000000; fill:none;"
     d="m 183,154 2,2"
     id="path4578" />
  <path
     style="stroke:#000000; fill:none;"
     d="m 132,155 c -6.176,7.764 -15.022,13.599 -21.715,21.015 C 92.493,195.731 77.7286,217.255 67.8002,242 64.1332,251.139 56.2806,265.085 59,275 L 72.8002,248 92,220"
     id="path4576" />
  <path
     style="stroke:#000000; fill:none;"
     d="m 134,211 -11,17 c -3.043,-10.296 0.023,-23.126 -1.285,-34 -0.461,-3.822 -2.691,-9.256 -0.693,-12.83 C 129.348,166.279 156.169,157.044 172,155"
     id="path4574" />
  <path
     style="stroke:#000000; fill:none;"
     d="M 175,158 157.694,181 153,188"
     id="path4572" />
  <path
     style="stroke:#000000; fill:none;"
     d="m 118,183 -12,18"
     id="path4570" />
  <path
     style="stroke:#000000; fill:none;"
     d="m 153,185 1,1"
     id="path4568" />
  <path
     style="stroke:#000000; fill:none;"
     d="m 288,186 c -5.273,5.799 -9.386,16.816 1.015,20.833 4.742,1.831 11.058,-2.099 10.985,-6.833"
     id="path4566" />
  <path
     style="stroke:#000000; fill:none;"
     d="m 151,188 -1,4 1,-2"
     id="path4564" />
  <path
     style="stroke:#000000; fill:none;"
     d="m 149,191 c -1.851,4.124 -1.35,8.608 -2.509,13 -2.443,9.255 -9.256,20.377 -6.491,30 l 7,-7"
     id="path4562" />
  <path
     style="stroke:#000000; fill:none;"
     d="m 148,192 1,3"
     id="path4560" />
  <path
     style="stroke:#000000; fill:none;"
     d="m 147,194 -1,5"
     id="path4558" />
  <path
     style="stroke:#000000; fill:none;"
     d="m 294,194 1,1"
     id="path4556" />
  <path
     style="stroke:#000000; fill:none;"
     d="m 295,196 1,1"
     id="path4554" />
  <path
     style="stroke:#000000; fill:none;"
     d="m 296,197 -10,8"
     id="path4552" />
  <path
     style="stroke:#000000; fill:none;"
     d="m 295,198 2,2"
     id="path4550" />
  <path
     style="stroke:#000000; fill:none;"
     d="m 144,199 -8,12"
     id="path4548" />
  <path
     style="stroke:#000000; fill:none;"
     d="m 104,201 -3,9 4,-8"
     id="path4546" />
  <path
     style="stroke:#000000; fill:none;"
     d="m 144,201 2,2"
     id="path4544" />
  <path
     style="stroke:#000000; fill:none;"
     d="m 289,202 2,4"
     id="path4542" />
  <path
     style="stroke:#000000; fill:none;"
     d="m 298,202 2,2"
     id="path4540" />
  <path
     style="stroke:#000000; fill:none;"
     d="m 270,207 13,11"
     id="path4538" />
  <path
     style="stroke:#000000; fill:none;"
     d="m 135,209 2,-1"
     id="path4536" />
  <path
     style="stroke:#000000; fill:none;"
     d="m 292,208 c 13.381,7.141 38.214,-4.895 43,15 l -18,5 -2,-4"
     id="path4534" />
  <path
     style="stroke:#000000; fill:none;"
     d="m 101,210 c -4.5639,15.965 -12.8328,30.786 -17.1157,47 -10.9674,41.52 -14.1408,89.481 -7.4453,132 1.9364,12.296 4.1754,25.475 9.0255,37 2.7605,6.559 7.6942,12.178 9.5355,19"
     id="path4532" />
  <path
     style="stroke:#000000; fill:none;"
     d="m 135,213 -13.589,33 -3.58,39 -1.831,24 c 14.221,-11.159 21.028,-36.88 31,-52 l -1.87,16 -8.13,37 1,-4"
     id="path4530" />
  <path
     style="stroke:#000000; fill:none;"
     d="m 276,213 0,8"
     id="path4528" />
  <path
     style="stroke:#000000; fill:none;"
     d="m 225,227 c 7.665,-0.874 4.476,5.695 6,11 10.143,-4.827 14.988,-16.887 26,-20.22 9.406,-2.847 12.83,9.753 9,16.22 l 7,0 -4,-3"
     id="path4526" />
  <path
     style="stroke:#000000; fill:none;"
     d="m 275,223 -3,8"
     id="path4524" />
  <path
     style="stroke:#000000; fill:none;"
     d="m 336,224 -3,9"
     id="path4522" />
  <path
     style="stroke:#000000; fill:none;"
     d="m 157,226 c -1.527,4.389 -4.439,26.325 1.317,28.288 6.911,2.356 15.307,-13.512 17.683,-18.288"
     id="path4520" />
  <path
     style="stroke:#000000; fill:none;"
     d="m 144,227 0,1"
     id="path4518" />
  <path
     style="stroke:#000000; fill:none;"
     d="m 88,228 -1,1"
     id="path4516" />
  <path
     style="stroke:#000000; fill:none;"
     d="m 144,230 c 4.367,1.881 6.974,0.104 11,-2"
     id="path4514" />
  <path
     style="stroke:#000000; fill:none;"
     d="m 325,228 c -1.112,6.774 -5.181,24.922 -16.035,23.673 -8.964,-1.032 -8.148,-16.315 -3.122,-21.029 2.492,-2.338 7.853,-0.169 11.157,-1.644"
     id="path4512" />
  <path
     style="stroke:#000000; fill:none;"
     d="M 87,229 74.4275,257 56,306"
     id="path4510" />
  <path
     style="stroke:#000000; fill:none;"
     d="M 122,229 110.333,255 96.4599,301 91.1698,351 91,367 90,362"
     id="path4508" />
  <path
     style="stroke:#000000; fill:none;"
     d="m 344,247 c -6.448,-1.456 -24.334,-7.842 -11,-16"
     id="path4506" />
  <path
     style="stroke:#000000; fill:none;"
     d="m 322,232 c -2.493,4.184 -4.844,7.186 -3,12"
     id="path4504" />
  <path
     style="stroke:#000000; fill:none;"
     d="m 212,233 0,4"
     id="path4502" />
  <path
     style="stroke:#000000; fill:none;"
     d="m 138,234 3,0"
     id="path4500" />
  <path
     style="stroke:#000000; fill:none;"
     d="m 268,237 c -3.819,1.552 -4.987,-0.112 -2,-3 l 0,0"
     id="path4498" />
  <path
     style="stroke:#000000; fill:none;"
     d="m 122,236 1,6"
     id="path4496" />
  <path
     style="stroke:#000000; fill:none;"
     d="m 257,237 5,1"
     id="path4494" />
  <path
     style="stroke:#000000; fill:none;"
     d="m 260,238 1,1"
     id="path4492" />
  <path
     style="stroke:#000000; fill:none;"
     d="m 244,246 -5,-1 c 3.959,3.621 15.384,-2.879 21,-4 l 1,1 1,1 1,1"
     id="path4490" />
  <path
     style="stroke:#000000; fill:none;"
     d="m 175,242 c -3.887,15.023 0.528,21.174 4.336,35 1.099,3.989 -0.449,7.952 0.664,12 4.371,-4.005 6.664,-9.697 11.093,-13.671 9.321,-8.362 22.476,-10.475 33.907,-14.333 5.95,-2.008 11.551,-4.945 18,-3.467 12.622,2.893 22.016,16.014 31,24.381 18.36,17.102 39.782,35.163 66,37 10.317,0.724 34.579,0.75 38.582,-12.08 2.41,-7.725 -12.991,-19.271 -19.582,-19.639 -4.765,-0.267 -10.752,3.841 -15,5.809"
     id="path4488" />
  <path
     style="stroke:#000000; fill:none;"
     d="m 316,243 0,2"
     id="path4486" />
  <path
     style="stroke:#000000; fill:none;"
     d="m 249,244 -4,2 0,0"
     id="path4484" />
  <path
     style="stroke:#000000; fill:none;"
     d="m 337,247 15,12 -9,3 c 5.62,6.648 23.569,15.564 17,24"
     id="path4482" />
  <path
     style="stroke:#000000; fill:none;"
     d="m 335,254 1,-4"
     id="path4480" />
  <path
     style="stroke:#000000; fill:none;"
     d="m 334,253 c -3.851,4.774 -14.496,28.07 -8,32 l 1,-1 -1,-1 -2,2 0,2"
     id="path4478" />
  <path
     style="stroke:#000000; fill:none;"
     d="m 147,256 c 2.443,-0.407 2.117,-0.304 1,2"
     id="path4476" />
  <path
     style="stroke:#000000; fill:none;"
     d="m 118,259 0,2"
     id="path4474" />
  <path
     style="stroke:#000000; fill:none;"
     d="m 351,260 1,11"
     id="path4472" />
  <path
     style="stroke:#000000; fill:none;"
     d="m 117,262 c -10.522,32.347 -17.7112,65.622 -24,99"
     id="path4470" />
  <path
     style="stroke:#000000; fill:none;"
     d="m 326,282 c 6.38,-6.745 7.447,-16.752 17,-20"
     id="path4468" />
  <path
     style="stroke:#000000; fill:none;"
     d="m 347,262 2,-1"
     id="path4466" />
  <path
     style="stroke:#000000; fill:none;"
     d="m 141,301 c 8.289,-11.88 15.627,-23.816 28,-32 l -8,33 -22,6"
     id="path4464" />
  <path
     style="stroke:#000000; fill:none;"
     d="m 351,272 -23,13"
     id="path4462" />
  <path
     style="stroke:#000000; fill:none;"
     d="m 57,275 1,4 1,-4"
     id="path4460" />
  <path
     style="stroke:#000000; fill:none;"
     d="m 56,279 2,1"
     id="path4458" />
  <path
     style="stroke:#000000; fill:none;"
     d="m 57,282 c -9.1522,26.817 -5.8706,52.45 -2.2816,80 2.2952,17.619 3.8723,35.643 7.706,53 7.148,32.363 16.7423,64.586 17.5609,98 0.6826,27.861 -3.2168,54.575 -7.2569,82 -1.709,11.601 -8.0152,27.56 -4.7284,39 l 28,-36 -9,2 -2,-4 -2,9"
     id="path4456" />
  <path
     style="stroke:#000000; fill:none;"
     d="m 347,290 c 2.334,-5.278 7.708,-5.582 13,-6"
     id="path4454" />
  <path
     style="stroke:#000000; fill:none;"
     d="m 324,288 -3,1 2,-3"
     id="path4452" />
  <path
     style="stroke:#000000; fill:none;"
     d="m 345,288 2,0"
     id="path4450" />
  <path
     style="stroke:#000000; fill:none;"
     d="m 323,294 22,-6"
     id="path4448" />
  <path
     style="stroke:#000000; fill:none;"
     d="m 178,289 3,0"
     id="path4446" />
  <path
     style="stroke:#000000; fill:none;"
     d="m 325,294 13,-5"
     id="path4444" />
  <path
     style="stroke:#000000; fill:none;"
     d="m 179,291 c -6.781,9.222 -19.621,34.581 -8,43 l 3,-13 c 3.606,1.209 20.071,6.393 16.824,12.397 -1.01,1.868 -5.968,2.605 -7.824,3.603 2.933,9.913 -10.014,11.961 -17,13"
     id="path4442" />
  <path
     style="stroke:#000000; fill:none;"
     d="m 54,299 0,4"
     id="path4440" />
  <path
     style="stroke:#000000; fill:none;"
     d="m 138,301 0,2"
     id="path4438" />
  <path
     style="stroke:#000000; fill:none;"
     d="m 162,304 7,0"
     id="path4436" />
  <path
     style="stroke:#000000; fill:none;"
     d="m 53,306 1,6"
     id="path4434" />
  <path
     style="stroke:#000000; fill:none;"
     d="m 380,306 c 12.669,20.007 -14.681,27.453 -26.871,37.899 -7.735,6.629 -13.898,15.795 -17.845,25.101 -9.951,23.463 -7.197,50.107 -14.955,74 -3.769,11.607 -8.236,23.41 -14.344,34 -4.933,8.554 -12.899,17.335 -15.473,27 -1.881,7.065 5.729,10.548 3.114,18 -2.573,7.331 -8.725,12.841 -11.118,20 -1.549,4.633 0.165,12.799 -3.25,16.408 -7.093,7.494 -22.075,16.194 -25.258,26.592 -18.555,-9.894 -34.849,-24.978 -37.711,-47 -1.133,-8.721 4.15,-31.875 16.711,-29.537 8.779,1.634 15.093,11.672 22,16.537 -0.19,-6.366 -3.533,-12.028 -5.48,-18 -3.697,-11.342 -3.649,-22.606 -16.52,-27"
     id="path4432" />
  <path
     style="stroke:#000000; fill:none;"
     d="m 135,310 2,1"
     id="path4430" />
  <path
     style="stroke:#000000; fill:none;"
     d="m 135,312 c -13.989,15.987 -6.583,34.781 12,44.33 13.839,7.112 31.757,6.9 46,1.67"
     id="path4428" />
  <path
     style="stroke:#000000; fill:none;"
     d="m 164,330 c -2.607,5.423 -6.277,6.457 -12,6 l 5,-12 -17,11 c -1.615,-2.869 -2.951,-5.721 -3.529,-9 -3.412,-19.363 22.209,-12.672 26.529,0"
     id="path4426" />
  <path
     style="stroke:#000000; fill:none;"
     d="m 111,323 c -4.774,10.229 -5.642,21.939 -7.272,33 -3.7832,25.684 -4.3757,50.162 -3.7427,76 0.3757,15.35 -1.7435,33.09 1.0147,48"
     id="path4424" />
  <path
     style="stroke:#000000; fill:none;"
     d="m 158,323 -1,1"
     id="path4422" />
  <path
     style="stroke:#000000; fill:none;"
     d="m 112,326 3.86,27 3.14,18 -8,-10"
     id="path4420" />
  <path
     style="stroke:#000000; fill:none;"
     d="m 369,331 1,1"
     id="path4418" />
  <path
     style="stroke:#000000; fill:none;"
     d="m 172,333 9,4 -9,10"
     id="path4416" />
  <path
     style="stroke:#000000; fill:none;"
     d="m 151,337 c 0.313,10.581 7.796,16.533 18,17"
     id="path4414" />
  <path
     style="stroke:#000000; fill:none;"
     d="m 181,337 2,0"
     id="path4412" />
  <path
     style="stroke:#000000; fill:none;"
     d="m 185,341 17.995,0.808 7.338,12.103 L 233,363"
     id="path4410" />
  <path
     style="stroke:#000000; fill:none;"
     d="m 249,376 c 5.04,4.821 23.762,4.434 30,1.926 23.819,-9.579 44.13,-29.565 71,-31.926"
     id="path4408" />
  <path
     style="stroke:#000000; fill:none;"
     d="m 202,352 c 6.469,3.851 13.991,13.337 22,12 l -4,-4"
     id="path4406" />
  <path
     style="stroke:#000000; fill:none;"
     d="m 205,354 c -4.438,9.288 -15.059,9 -24,9"
     id="path4404" />
  <path
     style="stroke:#000000; fill:none;"
     d="m 153,359 2,4 0,-2"
     id="path4402" />
  <path
     style="stroke:#000000; fill:none;"
     d="m 156,362 c 6.785,7.681 14.748,10.879 24,14.85 26.84,11.519 76.852,41.709 55.069,78.15 -3.756,6.284 -9.424,9.661 -15.069,14 l 12,13"
     id="path4400" />
  <path
     style="stroke:#000000; fill:none;"
     d="m 155,364 2,0"
     id="path4398" />
  <path
     style="stroke:#000000; fill:none;"
     d="m 224,364 23,13"
     id="path4396" />
  <path
     style="stroke:#000000; fill:none;"
     d="m 223,365 2,2"
     id="path4394" />
  <path
     style="stroke:#000000; fill:none;"
     d="m 113,366 2,1"
     id="path4392" />
  <path
     style="stroke:#000000; fill:none;"
     d="m 91,367 -2,63"
     id="path4390" />
  <path
     style="stroke:#000000; fill:none;"
     d="m 114,368 4,9 1,-5"
     id="path4388" />
  <path
     style="stroke:#000000; fill:none;"
     d="m 162,369 c 13.557,32.229 70.124,26.53 62.066,69 -1.104,5.816 -3.336,11.62 -5.762,17 -3.136,6.956 -6.959,12.538 -12.304,18 -1.547,-6.121 0.688,-12.718 0.545,-19 -0.333,-14.579 -2.284,-29.103 -6.545,-43"
     id="path4386" />
  <path
     style="stroke:#000000; fill:none;"
     d="m 121,371 0,7 -2,-2"
     id="path4384" />
  <path
     style="stroke:#000000; fill:none;"
     d="m 118,377 c 2.674,10.655 7.749,20.829 8.83,32 2.957,30.555 -5.7,71.649 -20.83,98 l 2,-2"
     id="path4382" />
  <path
     style="stroke:#000000; fill:none;"
     d="m 161,442 c 2.018,12.676 -1.346,38.657 -12,46 -2.702,-9.121 -2.674,-19.56 -4.247,-29 -4.341,-26.055 -8.501,-55.788 -0.753,-82 16.108,18.615 18.181,39.171 18,63"
     id="path4380" />
  <path
     style="stroke:#000000; fill:none;"
     d="m 121,378 16,48"
     id="path4378" />
  <path
     style="stroke:#000000; fill:none;"
     d="m 123,378 0,2"
     id="path4376" />
  <path
     style="stroke:#000000; fill:none;"
     d="m 249,379 c 10.957,10.927 31.248,24.842 34.301,41 1.661,8.791 -1.553,22.069 -2.725,31 -0.325,2.473 -1.945,9.246 1.027,10.744 4.344,2.189 14.401,-9.883 18.397,-11.744 -1.875,13.916 -10.486,33.201 -7,47"
     id="path4374" />
  <path
     style="stroke:#000000; fill:none;"
     d="M 122,395 108,500"
     id="path4372" />
  <path
     style="stroke:#000000; fill:none;"
     d="m 89,419 0,2"
     id="path4370" />
  <path
     style="stroke:#000000; fill:none;"
     d="m 201,420 c -1.046,24.356 -15.098,47.641 -32,64.421 -5.124,5.086 -9.985,12.378 -17,14.579 l 3,-13"
     id="path4368" />
  <path
     style="stroke:#000000; fill:none;"
     d="m 91,423 2,15"
     id="path4366" />
  <path
     style="stroke:#000000; fill:none;"
     d="m 137,433 c -0.215,10.117 -4.471,20.478 -7.645,30 -5.906,17.719 -11.455,36.604 -22.355,52 l -1,-6"
     id="path4364" />
  <path
     style="stroke:#000000; fill:none;"
     d="m 296,438 c 4.383,1.303 8.294,3.005 7,8 l -2,-6"
     id="path4362" />
  <path
     style="stroke:#000000; fill:none;"
     d="m 91,441 c 0.8035,9.837 3.7816,22.595 9,31"
     id="path4360" />
  <path
     style="stroke:#000000; fill:none;"
     d="m 301,447 0,2"
     id="path4358" />
  <path
     style="stroke:#000000; fill:none;"
     d="m 168,475 -10,6"
     id="path4356" />
  <path
     style="stroke:#000000; fill:none;"
     d="m 166,477 -1,3"
     id="path4354" />
  <path
     style="stroke:#000000; fill:none;"
     d="m 160,496 c 3.924,1.822 15.79,-8.079 20,-10.058 13.531,-6.36 31.203,-9.689 46,-6.942"
     id="path4352" />
  <path
     style="stroke:#000000; fill:none;"
     d="m 163,482 -7,8"
     id="path4350" />
  <path
     style="stroke:#000000; fill:none;"
     d="m 234,483 7,5"
     id="path4348" />
  <path
     style="stroke:#000000; fill:none;"
     d="m 149,488 c -18.783,17.3 -33.716,36.836 -46.421,59 -5.4502,9.507 -12.0952,18.981 -13.579,30"
     id="path4346" />
  <path
     style="stroke:#000000; fill:none;"
     d="m 154,490 0,1"
     id="path4344" />
  <path
     style="stroke:#000000; fill:none;"
     d="m 148,491 c -0.185,3.786 -0.352,6.833 3,9"
     id="path4342" />
  <path
     style="stroke:#000000; fill:none;"
     d="m 248,494 1,1"
     id="path4340" />
  <path
     style="stroke:#000000; fill:none;"
     d="m 156,496 2,-1"
     id="path4338" />
  <path
     style="stroke:#000000; fill:none;"
     d="m 291,497 0,2"
     id="path4336" />
  <path
     style="stroke:#000000; fill:none;"
     d="m 160,499 c -29.602,29.357 -51.847,62.131 -73,98"
     id="path4334" />
  <path
     style="stroke:#000000; fill:none;"
     d="m 149,500 c -3.451,10.086 -15.761,17.915 -22.561,26 C 109.986,545.564 91.0166,570.67 85,596"
     id="path4332" />
  <path
     style="stroke:#000000; fill:none;"
     d="m 107,501 0,3"
     id="path4330" />
  <path
     style="stroke:#000000; fill:none;"
     d="m 148,505 2,2"
     id="path4328" />
  <path
     style="stroke:#000000; fill:none;"
     d="m 147,507 0,1"
     id="path4326" />
  <path
     style="stroke:#000000; fill:none;"
     d="m 289,511 c -3.075,0.906 -1.939,-1.885 0,-3"
     id="path4324" />
  <path
     style="stroke:#000000; fill:none;"
     d="m 285,512 2,4 1,-3"
     id="path4322" />
  <path
     style="stroke:#000000; fill:none;"
     d="m 270,514 1,1"
     id="path4320" />
  <path
     style="stroke:#000000; fill:none;"
     d="m 284,515 0,21"
     id="path4318" />
  <path
     style="stroke:#000000; fill:none;"
     d="m 105,516 c -5.3508,14.351 -11.6672,31.715 -13,47"
     id="path4316" />
  <path
     style="stroke:#000000; fill:none;"
     d="m 287,516 -1,3"
     id="path4314" />
  <path
     style="stroke:#000000; fill:none;"
     d="m 296,516 c 6.068,2.569 11.266,7.513 16,12.039 7.651,7.316 16.584,15.632 19.906,25.961 2.241,6.969 0.182,13.926 0.098,21 -0.216,18.183 -1.675,35.898 -2.914,54 -1.038,15.153 1.926,33.836 -4.09,48 l -11,-10 c -5.587,0.385 -7.599,-5.326 -9.305,-10 -4.85,-13.289 -7.635,-25.052 -15.695,-37 l -1,1 0,1 0,1 2,0"
     id="path4312" />
  <path
     style="stroke:#000000; fill:none;"
     d="m 273,517 12,9"
     id="path4310" />
  <path
     style="stroke:#000000; fill:none;"
     d="m 255,525 2,3"
     id="path4308" />
  <path
     style="stroke:#000000; fill:none;"
     d="m 279,547 2,-1"
     id="path4306" />
  <path
     style="stroke:#000000; fill:none;"
     d="m 107,596 -8,-1 c 5.757,-9.33 12.709,-17.903 18.834,-27 1.778,-2.64 4.388,-7.793 8.131,-7.793 5.401,0 13.369,12.957 16.611,16.793 13.982,16.549 28.965,48.716 21.424,71 l -4,-8"
     id="path4304" />
  <path
     style="stroke:#000000; fill:none;"
     d="m 269,559 3,3"
     id="path4302" />
  <path
     style="stroke:#000000; fill:none;"
     d="m 274,562 c 18.458,15.361 0.799,39.46 14,58"
     id="path4300" />
  <path
     style="stroke:#000000; fill:none;"
     d="m 278,567 2,3"
     id="path4298" />
  <path
     style="stroke:#000000; fill:none;"
     d="m 79,569 0,20"
     id="path4296" />
  <path
     style="stroke:#000000; fill:none;"
     d="m 280,570 1,3"
     id="path4294" />
  <path
     style="stroke:#000000; fill:none;"
     d="m 281,573 2,6"
     id="path4292" />
  <path
     style="stroke:#000000; fill:none;"
     d="m 256,583 3,1 -2,2 -2,-2"
     id="path4290" />
  <path
     style="stroke:#000000; fill:none;"
     d="m 259,584 23,2"
     id="path4288" />
  <path
     style="stroke:#000000; fill:none;"
     d="m 259,586 4,0"
     id="path4286" />
  <path
     style="stroke:#000000; fill:none;"
     d="m 309,594 5,73"
     id="path4284" />
  <path
     style="stroke:#000000; fill:none;"
     d="m 99,595 -3,3"
     id="path4282" />
  <path
     style="stroke:#000000; fill:none;"
     d="m 268,597 11,10"
     id="path4280" />
  <path
     style="stroke:#000000; fill:none;"
     d="m 83,599 2,3"
     id="path4278" />
  <path
     style="stroke:#000000; fill:none;"
     d="m 120,600 1,0"
     id="path4276" />
  <path
     style="stroke:#000000; fill:none;"
     d="m 82,601 0,2"
     id="path4274" />
  <path
     style="stroke:#000000; fill:none;"
     d="m 82,606 -8,18"
     id="path4272" />
  <path
     style="stroke:#000000; fill:none;"
     d="m 142,612 1,1"
     id="path4270" />
  <path
     style="stroke:#000000; fill:none;"
     d="m 217,615 c -11.648,8.203 -20.654,16.889 -24.961,31 -2.602,8.527 -2.079,17.91 -6.039,26 -5.27,-5.555 -9.109,-18.012 -17,-20.073 -7.443,-1.944 -19.161,6.601 -26,9.158 -10.417,3.895 -23.262,3.14 -34,0.959 -5.663,-1.15 -11.7543,-3.306 -14.1211,-9.048 C 92.7244,647.77 93.9686,640.408 88.7863,636.757 82.8984,632.609 75.603,638.745 69,634 l -8,23"
     id="path4268" />
  <path
     style="stroke:#000000; fill:none;"
     d="m 214,616 1,1"
     id="path4266" />
  <path
     style="stroke:#000000; fill:none;"
     d="m 146,617 2,4"
     id="path4264" />
  <path
     style="stroke:#000000; fill:none;"
     d="m 214,618 c -6.323,14.957 -16.993,24.592 -17,42 -0.002,4.474 -1.206,12.145 3.279,14.972 5.332,3.362 15.856,0.542 21.721,0.028 4.93,-0.432 10.274,-0.603 15,-2"
     id="path4262" />
  <path
     style="stroke:#000000; fill:none;"
     d="m 289,624 13,45 -42,3"
     id="path4260" />
  <path
     style="stroke:#000000; fill:none;"
     d="m 76,625 -2,2"
     id="path4258" />
  <path
     style="stroke:#000000; fill:none;"
     d="m 151,625 3,3"
     id="path4256" />
  <path
     style="stroke:#000000; fill:none;"
     d="m 156,632 1,3"
     id="path4254" />
  <path
     style="stroke:#000000; fill:none;"
     d="m 239,673 19,-1"
     id="path4252" />
  <path
     style="stroke:#000000; fill:none;"
     d="m 370,701 c -3.456,4.854 -9.231,28.218 -16,22"
     id="path4250" />
  <path
     style="stroke:#000000; fill:none;"
     d="m 309,705 17,-2 c -2.439,1.978 -5.947,4.017 -7.25,7 -1.465,3.352 1.747,13.589 5.25,14 l 2,-3"
     id="path4248" />
  <path
     style="stroke:#000000; fill:none;"
     d="m 383,702 -7,17 1,1 5,-1 -1,1 0,1 0,1"
     id="path4246" />
  <path
     style="stroke:#000000; fill:none;"
     d="m 415,704 c -1.112,2.672 -3.937,9.612 1,8"
     id="path4244" />
  <path
     style="stroke:#000000; fill:none;"
     d="m 437,706 -2,8"
     id="path4242" />
  <path
     style="stroke:#000000; fill:none;"
     d="m 345,707 1,0"
     id="path4240" />
  <path
     style="stroke:#000000; fill:none;"
     d="m 316,708 -3,7"
     id="path4238" />
  <path
     style="stroke:#000000; fill:none;"
     d="m 454,711 c -2.625,5.685 -2.275,10.81 5,7"
     id="path4236" />
  <path
     style="stroke:#000000; fill:none;"
     d="m 413,713 c -1.386,2.89 -1.587,4.649 2,4"
     id="path4234" />
  <path
     style="stroke:#000000; fill:none;"
     d="m 448,713 -4,12"
     id="path4232" />
  <path
     style="stroke:#000000; fill:none;"
     d="m 341,723 6,-9"
     id="path4230" />
  <path
     style="stroke:#000000; fill:none;"
     d="m 388,714 1,4 4,-3 0,7 c 2.113,-1.835 4,-3.826 4,0 l 0,1 0,1"
     id="path4228" />
  <path
     style="stroke:#000000; fill:none;"
     d="m 439,720 8,-6"
     id="path4226" />
  <path
     style="stroke:#000000; fill:none;"
     d="m 323,716 c 5.149,1.548 9.516,2.246 14,-1 l 0,9"
     id="path4224" />
  <path
     style="stroke:#000000; fill:none;"
     d="m 368,716 -2,8 7,-8"
     id="path4222" />
  <path
     style="stroke:#000000; fill:none;"
     d="m 404,717 -3,8"
     id="path4220" />
  <path
     style="stroke:#000000; fill:none;"
     d="m 411,717 -2,2"
     id="path4218" />
  <path
     style="stroke:#000000; fill:none;"
     d="m 320,719 -13,4"
     id="path4216" />
  <path
     style="stroke:#000000; fill:none;"
     d="m 333,719 -1,3"
     id="path4214" />
  <path
     style="stroke:#000000; fill:none;"
     d="m 413,720 -3,5 8,-3"
     id="path4212" />
  <path
     style="stroke:#000000; fill:none;"
     d="m 458,721 -3,6"
     id="path4210" />
  <path
     style="stroke:#000000; fill:none;"
     d="m 4,749 49,0"
     id="path4" />
</svg>
