<?xml version="1.0" encoding="UTF-8" standalone="no"?>
<svg
   xmlns:dc="http://purl.org/dc/elements/1.1/"
   xmlns:cc="http://creativecommons.org/ns#"
   xmlns:rdf="http://www.w3.org/1999/02/22-rdf-syntax-ns#"
   xmlns:svg="http://www.w3.org/2000/svg"
   xmlns="http://www.w3.org/2000/svg"
   version="1.1"
   id="svg2"
   height="768"
   width="544">
  <metadata
     id="metadata10">
    <rdf:RDF>
      <cc:Work
         rdf:about="">
        <dc:format>image/svg+xml</dc:format>
        <dc:type
           rdf:resource="http://purl.org/dc/dcmitype/StillImage" />
        <dc:title></dc:title>
      </cc:Work>
    </rdf:RDF>
  </metadata>
  <defs
     id="defs8" />
  <path
     id="path4446"
     d="m 185,132 c -15.946,-3.291 -39.673,-15.736 -44.157,-33 -1.709,-6.5823 7.922,-15.1082 3.538,-20.5811 -1.487,-1.8566 -4.123,-2.7078 -6.381,-3.0856 -16.043,-2.6846 -12.086,14.3138 -15.317,23.3704 -0.682,1.9113 -2.217,1.1402 -3.323,0 -6.544,-6.7415 -9.569,-25.3261 -1.966,-32.1898 3.744,-3.3807 9.679,-1.3067 12.748,-5.662 1.717,-2.4367 0.82,-14.4743 2.385,-14.7748 8.775,-1.6843 20.068,14.5246 29.468,15.524 11.822,1.2567 2.595,-18.2945 12.063,-19.5795 5.26,-0.7138 12.626,6.6393 15.902,9.993 C 202.357,64.7047 206.484,83.0152 215,98"
     style="stroke:#000000; fill:none;" />
  <path
     id="path4444"
     d="m 214,50 c 4.579,1.1282 11.195,1.0762 14.254,5.2276 3.405,4.6212 -0.907,10.6053 0.974,15.7724 4.767,13.098 12.577,23.9672 15.561,38 0.673,3.161 3.109,10.449 1.518,13.454 -2.559,4.834 -11.871,-11.91 -15.283,-9.417 -1.595,1.165 -1.167,5.223 -1.542,6.963 -0.774,3.592 -8.567,17.226 -4.838,19.823 3.573,2.488 9.464,-3.487 12.356,-4.998 4.649,-2.429 10.424,-2.377 14.83,-4.848 6.126,-3.436 14.608,-10.146 19.922,-14.881 1.029,-0.916 6.08,-5.816 6.476,-6.734 1.381,-3.201 -0.301,-9.7858 -0.213,-13.362 0.27,-11.018 4.548,-27.1494 -6.109,-34.8951 C 260.517,51.8276 242.432,53 229,53"
     style="stroke:#000000; fill:none;" />
  <path
     id="path4442"
     d="m 179,85 c 12.186,-1.8251 18.728,-5.3684 29,4"
     style="stroke:#000000; fill:none;" />
  <path
     id="path4440"
     d="m 223,140 c -2.298,2.351 -11.076,11.027 -14.351,9.793 -2.715,-1.023 -3.322,-6.414 -3.856,-8.793 -1.577,-7.025 -1.729,-18.026 -6.357,-23.786 -7.607,-9.469 -18.448,0.591 -27.392,-2.126 C 157.151,110.868 168.077,90.7806 176,87"
     style="stroke:#000000; fill:none;" />
  <path
     id="path4438"
     d="m 319,97 c 8.936,3.047 22.693,5.8 28.297,14.015 5.741,8.416 4.321,22.318 4.588,31.985 0.246,8.909 2.819,16.149 6.88,24 0.855,1.653 3.69,13.852 4.527,13.964 2.219,0.295 -0.043,-2.725 -0.292,-2.964"
     style="stroke:#000000; fill:none;" />
  <path
     id="path4436"
     d="m 329,102 4.889,30 1.044,10.093 -11.933,-6.938 -30,-16.551 -9.23,-6.325 16.23,0.971 12,2.543 19,5.207"
     style="stroke:#000000; fill:none;" />
  <path
     id="path4434"
     d="m 260,108 13,2"
     style="stroke:#000000; fill:none;" />
  <path
     id="path4432"
     d="m 279,110 2,2"
     style="stroke:#000000; fill:none;" />
  <path
     id="path4430"
     d="m 280,111 -5,2"
     style="stroke:#000000; fill:none;" />
  <path
     id="path4428"
     d="m 335,124 16,17"
     style="stroke:#000000; fill:none;" />
  <path
     id="path4426"
     d="m 165,125 c -7.397,5.401 -9.759,14.151 -8.715,23 0.611,5.176 2.686,15.262 -1.849,19.289 -7.397,6.567 -17.076,-18.122 -25.211,-17.693 -5.004,0.264 -5.701,11.854 -6.719,15.404 -3.873,13.505 -17.94,26.999 -13.506,42"
     style="stroke:#000000; fill:none;" />
  <path
     id="path4424"
     d="m 171,127 -11,6"
     style="stroke:#000000; fill:none;" />
  <path
     id="path4422"
     d="m 379,135 c 12.667,-18.481 18.27,10.213 26.184,18.985 2.311,2.562 13.635,8.539 10.35,12.417 -5.819,6.869 -17.22,1.809 -21.971,-3.781 -6.449,-7.588 -4.633,-30.391 -20.562,-22.856 -2.087,0.988 -3.52,2.381 -4.816,4.279 -1.669,2.446 -3.077,5.257 -4.288,7.956 -2.021,4.507 -2.726,9.25 -3.897,14"
     style="stroke:#000000; fill:none;" />
  <path
     id="path4420"
     d="m 158,131 1,-2"
     style="stroke:#000000; fill:none;" />
  <path
     id="path4418"
     d="m 174,129 -6,1"
     style="stroke:#000000; fill:none;" />
  <path
     id="path4416"
     d="m 156,136 c -2.665,-1.721 -2.779,-3.34 0,-5"
     style="stroke:#000000; fill:none;" />
  <path
     id="path4414"
     d="m 162,131 1,1"
     style="stroke:#000000; fill:none;" />
  <path
     id="path4412"
     d="m 255,131 c 31.326,5.816 53.697,13.019 77.961,35.286 6.117,5.614 19.332,24.019 14.432,33.306 -1.552,2.94 -7.098,0.767 -9.393,-0.046 -8.018,-2.843 -18.78,-3.897 -27,-0.46 -5.672,2.371 -10.334,6.449 -13.115,11.914 -1.922,3.778 -1.164,8.01 4.116,7.131 5.391,-0.897 9.818,-7.716 14,-10.892 5.885,-4.47 12.775,-5.633 18.999,-9.239"
     style="stroke:#000000; fill:none;" />
  <path
     id="path4410"
     d="m 376,140 -10,37"
     style="stroke:#000000; fill:none;" />
  <path
     id="path4408"
     d="m 229,142 c -16.916,24.867 -40.403,41.281 -44.568,73 -1.209,9.205 2.083,18.807 2.529,28 0.484,9.947 1.999,19.767 5.911,29 0.712,1.68 2.366,7.699 4.688,7.654 2.99,-0.058 6.186,-4.433 7.6,-6.655 4.734,-7.436 7.367,-15.515 13.93,-21.825 5.994,-5.763 14.519,-9.538 22.91,-7.645 3.191,0.719 8.159,4.323 11.411,3.489 7.292,-1.872 4.067,-21.841 0.887,-25.87 -3.439,-4.356 -8.575,-2.775 -13.298,-2.318 -10.825,1.048 -21.682,3.482 -29.671,11.61 -2.066,2.101 -9.062,11.399 -6.632,14.639 1.091,1.454 8.918,-5.393 10.303,-6.202 6.899,-4.031 12.932,-6.902 21,-6.876 5.357,0.017 12.526,3.257 17,-0.001"
     style="stroke:#000000; fill:none;" />
  <path
     id="path4406"
     d="m 336,144 3,3"
     style="stroke:#000000; fill:none;" />
  <path
     id="path4404"
     d="m 216,146 c 1.199,4.623 -1.708,6.431 -6,5"
     style="stroke:#000000; fill:none;" />
  <path
     id="path4402"
     d="m 219,146 -1,1"
     style="stroke:#000000; fill:none;" />
  <path
     id="path4400"
     d="m 119,172 c -4.077,-7.64 -2.355,-21.311 7,-24"
     style="stroke:#000000; fill:none;" />
  <path
     id="path4398"
     d="m 208,153 c -5.176,7.377 -11.697,14.016 -17.424,21 -1.954,2.382 -4.521,6.771 -7.666,7.658 -3.885,1.097 -7.881,-4.046 -11.91,-4.351 -9.013,-0.682 -18.089,8.506 -25,13.121 -2.584,1.726 -6.629,4.11 -6.963,7.576 -0.35,3.631 6.485,11.361 10.225,8.284 4.05,-3.332 5.07,-15.326 5.738,-20.288"
     style="stroke:#000000; fill:none;" />
  <path
     id="path4396"
     d="m 352,157 0.09,29 2.084,13.685 L 349,203"
     style="stroke:#000000; fill:none;" />
  <path
     id="path4394"
     d="m 86,161 c 9.4728,10.843 17.334,11.526 29,18"
     style="stroke:#000000; fill:none;" />
  <path
     id="path4392"
     d="m 151,170 c -3.833,6.95 -24.857,4.416 -31,1"
     style="stroke:#000000; fill:none;" />
  <path
     id="path4390"
     d="m 376,243 c 3.294,4.294 7.162,7.779 12,10.345 1.569,0.832 6.945,0.893 7.654,2.427 2.489,5.389 -9.607,9.273 -13.226,6.624 -2.81,-2.057 -12.376,-12.982 -12.248,-16.466 0.138,-3.77 5.663,-2.354 4.622,-6.082 -1.656,-5.925 -9.28,-6.499 -9.743,-11.882 -0.979,-11.389 5.859,-3.345 9.913,-7.674 2.419,-2.583 1.544,-11.756 2.028,-15.292 0.982,-7.169 -4.252,-31.118 6.044,-32.497 3.059,-0.41 6.398,1.51 8.956,2.937 3.49,1.947 8.981,4.587 10.353,8.65 2.819,8.343 -6.412,15.428 -1.55,24.777 4.467,8.59 17.11,8.133 25.197,8.133"
     style="stroke:#000000; fill:none;" />
  <path
     id="path4388"
     d="m 126,175 29,9"
     style="stroke:#000000; fill:none;" />
  <path
     id="path4386"
     d="m 113,181 0,6"
     style="stroke:#000000; fill:none;" />
  <path
     id="path4384"
     d="m 366,183 c 2.278,5.158 4.996,8.627 9,3"
     style="stroke:#000000; fill:none;" />
  <path
     id="path4382"
     d="m 362,184 -5,16"
     style="stroke:#000000; fill:none;" />
  <path
     id="path4380"
     d="m 111,185 -2,6"
     style="stroke:#000000; fill:none;" />
  <path
     id="path4378"
     d="m 379,189 c 7.794,1.385 13.482,5.532 19,11"
     style="stroke:#000000; fill:none;" />
  <path
     id="path4376"
     d="m 349,203 c 3.593,8.997 7.487,17.944 11.1,26.961 1.194,2.98 4.118,5.613 3.277,9.054 -3.702,15.157 -26.905,25.389 -27.099,41.985 -0.227,19.362 0.736,40.75 3.007,60 0.922,7.808 4.656,24.691 2.161,31.896 -1.332,3.846 -7.055,6.176 -10.446,7.784 -8.882,4.211 -35.158,15.07 -43.365,4.593 -1.859,-2.373 1.545,-6.466 1.409,-9.273 -0.344,-7.095 -4.478,-17.494 -7.356,-24 -0.752,-1.7 -3.849,-6.153 -1.872,-7.879 3.85,-3.361 17.111,6.038 23.184,3.909 8.549,-2.997 19.465,-9.799 24.845,-17.031 1.709,-2.297 5.669,-6.502 3.958,-9.63 -2.165,-3.959 -8.512,-0.524 -11.803,-0.773 -5.949,-0.451 -29.732,-1.284 -31.369,7.183 -1.303,6.742 18.87,2.444 21.369,1.525 4.096,-1.507 7.547,-3.671 11,-6.304"
     style="stroke:#000000; fill:none;" />
  <path
     id="path4374"
     d="m 348,206 c -5.448,20.957 -23.493,2.858 -35.815,15.133 -3.93,3.916 -8.859,12.327 -5.852,17.862 0.601,1.107 6.867,8.367 7.821,4.384 1.025,-4.284 -3.835,-4.451 -6.154,-3.379"
     style="stroke:#000000; fill:none;" />
  <path
     id="path4372"
     d="m 149,208 c 2.105,1.322 5.11,2.495 5.782,5.143 0.749,2.957 -1.695,6.742 0.835,9.234 5.629,5.544 4.036,-5.303 1.383,-8.377"
     style="stroke:#000000; fill:none;" />
  <path
     id="path4370"
     d="m 149,210 c -1.698,4.555 -5.152,15.578 4,13"
     style="stroke:#000000; fill:none;" />
  <path
     id="path4368"
     d="m 348,212 c -0.801,7.377 -6.127,9.157 -9.367,15 -1.591,2.871 1.3,5.091 0.493,8.039 C 336.08,246.162 325.812,245.024 317,245"
     style="stroke:#000000; fill:none;" />
  <path
     id="path4366"
     d="m 402,213 4,0"
     style="stroke:#000000; fill:none;" />
  <path
     id="path4364"
     d="m 407,215 -3,1"
     style="stroke:#000000; fill:none;" />
  <path
     id="path4362"
     d="m 411,216 -5,1"
     style="stroke:#000000; fill:none;" />
  <path
     id="path4360"
     d="m 75,234 c 0.2626,3.323 0.621,6.803 1.6235,10 5.667,18.072 24.2805,12.79 37.2285,19.514 1.808,0.939 9.75,19.54 13.911,13.749 1.458,-2.029 -1.171,-7.015 -1.447,-9.263 -0.627,-5.101 0.404,-12.287 2.483,-16.985 1,-2.259 4.257,-5.25 3.45,-7.914 -1.583,-5.225 -13.294,1.666 -11.876,-6.135 C 122.062,227.672 136.517,220.568 145,223"
     style="stroke:#000000; fill:none;" />
  <path
     id="path4358"
     d="m 145,223 c -0.46,3.635 -4.166,15.358 -1.015,18.079 3.62,3.126 7.821,-13.873 8.015,-16.079"
     style="stroke:#000000; fill:none;" />
  <path
     id="path4356"
     d="m 162,224 c 3.089,9.723 5.355,19.885 6.718,30 0.621,4.616 -0.042,11.506 1.885,15.701 2.186,4.762 8.063,8.216 10.538,13.469 1.484,3.15 0.513,8.593 2.462,11.194 2.886,3.854 11.5,-9.106 11.397,-12.364"
     style="stroke:#000000; fill:none;" />
  <path
     id="path4354"
     d="m 325,245 c 3.663,-9.386 -1.444,-15.99 11,-16"
     style="stroke:#000000; fill:none;" />
  <path
     id="path4352"
     d="m 312,237 12,-7"
     style="stroke:#000000; fill:none;" />
  <path
     id="path4350"
     d="m 404,238 -7,16"
     style="stroke:#000000; fill:none;" />
  <path
     id="path4348"
     d="m 304,239 3,4"
     style="stroke:#000000; fill:none;" />
  <path
     id="path4346"
     d="m 119,241 c -0.54,1.55 -2.603,13.23 1.043,12.369 2.744,-0.648 5.356,-8.118 6.957,-10.369"
     style="stroke:#000000; fill:none;" />
  <path
     id="path4344"
     d="m 363,241 c 6.344,10.152 1.896,25.265 7.603,35.592 4.974,9.002 12.536,-8.399 12.397,-12.592"
     style="stroke:#000000; fill:none;" />
  <path
     id="path4342"
     d="m 89,257 28,-14"
     style="stroke:#000000; fill:none;" />
  <path
     id="path4340"
     d="m 134,247 c 2.676,9.29 9.149,23.79 18.015,28.558 7.354,3.955 18.855,7.39 18.985,-3.558"
     style="stroke:#000000; fill:none;" />
  <path
     id="path4338"
     d="m 367,248 2,0"
     style="stroke:#000000; fill:none;" />
  <path
     id="path4336"
     d="m 256,249 c 0.771,2.198 3.784,5.536 3.424,7.826 -0.806,5.12 -18.638,14.395 -23.439,14.645 -4.062,0.212 -6.937,-2.864 -10.985,-2.471"
     style="stroke:#000000; fill:none;" />
  <path
     id="path4334"
     d="m 380,249 2,11"
     style="stroke:#000000; fill:none;" />
  <path
     id="path4332"
     d="m 119,255 -1,9"
     style="stroke:#000000; fill:none;" />
  <path
     id="path4330"
     d="m 240,268 c -14.32,-11.129 8.442,-11.758 16,-10"
     style="stroke:#000000; fill:none;" />
  <path
     id="path4328"
     d="m 248,258 -1,7"
     style="stroke:#000000; fill:none;" />
  <path
     id="path4326"
     d="m 232,262 -4,5"
     style="stroke:#000000; fill:none;" />
  <path
     id="path4324"
     d="m 384,269 c 1.397,2.617 5.324,14.583 3.596,17.172 -1.366,2.047 -6.393,-2.087 -8.318,-1.92 -1.743,0.152 -7.836,8.309 -8.678,10.127 -3.183,6.869 -1.326,18.023 -3.025,25.621 -3.871,17.305 -12.725,37.931 -23.575,52"
     style="stroke:#000000; fill:none;" />
  <path
     id="path4322"
     d="m 298,275.757 c 3.879,-1.379 22.565,0.6 18.248,7.914 -2.968,5.029 -8.185,1.38 -12.247,3.365 -4.02,1.965 -5.944,6.901 -10.091,8.511 -4.288,1.666 -7.78,-1.851 -11.91,-1.695 -3.608,0.136 -8.88,4.846 -12.357,3.487 -4.155,-1.626 3.789,-13.175 5.686,-14.597 4.327,-3.242 9.08,-0.08 13.671,-1.434 3.453,-1.019 5.614,-4.348 9,-5.551"
     style="stroke:#000000; fill:none;" />
  <path
     id="path4320"
     d="m 371,279 0,13"
     style="stroke:#000000; fill:none;" />
  <path
     id="path4318"
     d="m 171,281 c 0.733,6.553 5.817,8.555 7,1"
     style="stroke:#000000; fill:none;" />
  <path
     id="path4316"
     d="m 198,282 14,8.259 27.606,17.259 9.642,19.482 22.071,40 12.681,17"
     style="stroke:#000000; fill:none;" />
  <path
     id="path4314"
     d="m 196,285 c 1.451,2.704 5.889,13.484 3.058,16.079 -1.715,1.572 -4.558,-2.848 -6.678,-2.449 -5.821,1.096 -2.528,13.103 -1.402,16.37 2.517,7.306 7.068,9.311 13.021,13.18 2.195,1.426 7.041,4.045 6.396,-1.114 -0.685,-5.483 -8.25,-9.067 -9.395,-2.066"
     style="stroke:#000000; fill:none;" />
  <path
     id="path4312"
     d="m 174,289 c -0.036,4.361 -2.224,10.782 -0.396,14.833 2.995,6.636 8.593,-2.782 9.396,-5.833"
     style="stroke:#000000; fill:none;" />
  <path
     id="path4310"
     d="m 278,295 c 2.09,3.285 5.351,15.931 8.589,17.107 11.362,4.127 21.024,-7.43 32.411,-1.737 3.951,1.976 8.337,3.888 8,8.63"
     style="stroke:#000000; fill:none;" />
  <path
     id="path4308"
     d="m 201,304 c 1.953,5.361 7.26,10.375 5,16"
     style="stroke:#000000; fill:none;" />
  <path
     id="path4306"
     d="m 173,305 -2,7"
     style="stroke:#000000; fill:none;" />
  <path
     id="path4304"
     d="m 182,305 c -0.218,10.566 -7.224,23.898 -4.546,34 1.212,4.573 5.85,11.05 11.441,9.302 7.556,-2.361 4.171,-15.197 10.029,-18.111 1.716,-0.853 5.989,1.731 8.076,1.809"
     style="stroke:#000000; fill:none;" />
  <path
     id="path4302"
     d="m 203,313 c -0.356,3.304 0.623,2.687 3,1"
     style="stroke:#000000; fill:none;" />
  <path
     id="path4300"
     d="m 284,314 -8.306,15 -0.333,7.167 L 274,334"
     style="stroke:#000000; fill:none;" />
  <path
     id="path4298"
     d="m 203,317 0,2"
     style="stroke:#000000; fill:none;" />
  <path
     id="path4296"
     d="m 330,317 1,1"
     style="stroke:#000000; fill:none;" />
  <path
     id="path4294"
     d="m 208,319 2,5"
     style="stroke:#000000; fill:none;" />
  <path
     id="path4292"
     d="m 212,325 c 8.579,7.52 4.779,12.197 5.357,21.039 0.253,3.861 4.049,7.898 -0.47,10.658 -3.276,2 -21.269,4.407 -20.257,9.953 0.376,2.058 3.429,3.598 4.473,5.404 3.28,5.675 1.678,11.852 8.068,16.088 3.885,2.576 14.193,0.915 14.193,7.783 0,5.106 -12.629,11.342 -16.721,8.033 C 203.732,401.604 206.407,392.196 207,389"
     style="stroke:#000000; fill:none;" />
  <path
     id="path4290"
     d="m 279,326 -1,10"
     style="stroke:#000000; fill:none;" />
  <path
     id="path4288"
     d="m 287,329 -5,4"
     style="stroke:#000000; fill:none;" />
  <path
     id="path4286"
     d="m 211,332 5,11"
     style="stroke:#000000; fill:none;" />
  <path
     id="path4284"
     d="m 217,341 1,1"
     style="stroke:#000000; fill:none;" />
  <path
     id="path4282"
     d="m 220,342 10,15"
     style="stroke:#000000; fill:none;" />
  <path
     id="path4280"
     d="m 277,342 1,1"
     style="stroke:#000000; fill:none;" />
  <path
     id="path4278"
     d="m 222,354 c 0.26,2.867 -0.133,3.26 -3,3"
     style="stroke:#000000; fill:none;" />
  <path
     id="path4276"
     d="m 355,358 c 0.056,20.492 4.943,40.715 5.961,61 0.357,7.105 -0.975,24.754 3.067,30.451 3.328,4.692 13.034,6.677 17.972,9.41 14.539,8.046 28.293,17.326 44,23.086 8.92,3.271 24.141,5.226 30.775,12.186 7.134,7.485 6.225,21.329 6.225,30.867 0,25.429 -3.08,50.655 -1.961,76 0.367,8.3 5.507,27.227 -2.342,33.382 -3.649,2.861 -12.206,0.461 -16.697,0.657 -15.734,0.689 -31.183,1.961 -47,1.961"
     style="stroke:#000000; fill:none;" />
  <path
     id="path4274"
     d="m 202,371 18,-12"
     style="stroke:#000000; fill:none;" />
  <path
     id="path4272"
     d="m 232,361 -3,0"
     style="stroke:#000000; fill:none;" />
  <path
     id="path4270"
     d="m 232,361 c 8.954,10.34 17.597,14.899 31,18"
     style="stroke:#000000; fill:none;" />
  <path
     id="path4268"
     d="m 230,362 c 0,8.431 3.889,30.1 4,10"
     style="stroke:#000000; fill:none;" />
  <path
     id="path4266"
     d="m 192,367 2,-1"
     style="stroke:#000000; fill:none;" />
  <path
     id="path4264"
     d="m 346,372 c -0.857,2.73 -1.167,3.261 -4,3"
     style="stroke:#000000; fill:none;" />
  <path
     id="path4262"
     d="m 204,374 3,10"
     style="stroke:#000000; fill:none;" />
  <path
     id="path4260"
     d="m 266,380 7,2"
     style="stroke:#000000; fill:none;" />
  <path
     id="path4258"
     d="m 280,382 -5,1"
     style="stroke:#000000; fill:none;" />
  <path
     id="path4256"
     d="m 233,384 c 0,6.246 2.101,26.048 -4.585,29.606 -7.021,3.738 -24.93,-1.017 -30.208,7.036 -1.167,1.78 7.024,0.504 7.793,0.457 7.713,-0.474 14.425,-1.701 21,-6.099"
     style="stroke:#000000; fill:none;" />
  <path
     id="path4254"
     d="m 229,410 -3,3"
     style="stroke:#000000; fill:none;" />
  <path
     id="path4252"
     d="m 231,416 c -1.809,9.743 -2.54,22.132 -1.834,32 0.144,2.017 0.604,9.474 -3.675,7.793 -3.752,-1.474 -5.861,-12.311 -7.237,-15.793 -3.43,-8.674 -8.022,-13.098 -16.254,-17"
     style="stroke:#000000; fill:none;" />
  <path
     id="path4250"
     d="m 186,424 10,-3"
     style="stroke:#000000; fill:none;" />
  <path
     id="path4248"
     d="m 189,423 1,0"
     style="stroke:#000000; fill:none;" />
  <path
     id="path4246"
     d="m 194,423 2,0"
     style="stroke:#000000; fill:none;" />
  <path
     id="path4244"
     d="m 201,423 1,0"
     style="stroke:#000000; fill:none;" />
  <path
     id="path4242"
     d="m 78,455 c 3.3373,1.916 14.9278,-4.125 19,-5.297 12.944,-3.725 25.016,-10.155 38,-13.777 6.764,-1.887 14.104,-1.334 21,-3.22 6.066,-1.659 12.154,-2.939 18,-5.277 1.257,-0.503 4.581,-2.192 5.793,-0.749 1.322,1.572 -5.051,3.401 -5.793,3.663 -7.376,2.61 -14.574,5.666 -22,8.151 -18.598,6.222 -37.105,11.985 -56,17.213 -11.2263,3.106 -22.6652,6.943 -34,3.293"
     style="stroke:#000000; fill:none;" />
  <path
     id="path4240"
     d="m 182,425 3,1"
     style="stroke:#000000; fill:none;" />
  <path
     id="path4238"
     d="m 138,435 c 9.548,-5.875 23.973,-7.576 35,-9"
     style="stroke:#000000; fill:none;" />
  <path
     id="path4236"
     d="m 182,427 2,0"
     style="stroke:#000000; fill:none;" />
  <path
     id="path4234"
     d="m 364,451 -1.171,33 -2.15,12.08 L 363,493"
     style="stroke:#000000; fill:none;" />
  <path
     id="path4232"
     d="m 86,452 1,1"
     style="stroke:#000000; fill:none;" />
  <path
     id="path4230"
     d="m 81,454 1,1"
     style="stroke:#000000; fill:none;" />
  <path
     id="path4228"
     d="m 76,458 c -1.456,-1.547 -0.9071,-1.381 1,-1"
     style="stroke:#000000; fill:none;" />
  <path
     id="path4226"
     d="m 230,456 c 0.403,3.696 2.697,6.701 3.093,10.09 0.316,2.701 -3.232,9.906 1.907,3.91"
     style="stroke:#000000; fill:none;" />
  <path
     id="path4224"
     d="m 72,459 2,-1"
     style="stroke:#000000; fill:none;" />
  <path
     id="path4222"
     d="m 67,459 4,-1"
     style="stroke:#000000; fill:none;" />
  <path
     id="path4220"
     d="m 226,459 2,2"
     style="stroke:#000000; fill:none;" />
  <path
     id="path4218"
     d="m 66,462 c -4.1889,12.037 -0.7068,29.233 -1.0147,42 -0.7801,32.352 -1.5315,64.656 0.0533,97 0.4118,8.406 0.1614,31.027 5.8997,37.397 2.0672,2.294 6.2958,1.601 9.0617,1.603"
     style="stroke:#000000; fill:none;" />
  <path
     id="path4216"
     d="m 229,463 2,8"
     style="stroke:#000000; fill:none;" />
  <path
     id="path4214"
     d="m 56,466 8,-2"
     style="stroke:#000000; fill:none;" />
  <path
     id="path4212"
     d="m 236,473 c -4.128,40.826 -0.355,79.216 9.13,119 2.783,11.672 5.6,23.359 8.497,35 0.705,2.835 3.884,9.699 2.161,12.377 -4.165,6.474 -10.266,-10.084 -10.774,-12.377 -4.033,-18.197 -6.963,-38.361 -7.014,-57"
     style="stroke:#000000; fill:none;" />
  <path
     id="path4210"
     d="m 231,474 2,5"
     style="stroke:#000000; fill:none;" />
  <path
     id="path4208"
     d="m 238,486 c 2.722,2.667 6.409,7.502 10.285,8.403 5.814,1.35 15.179,-2.652 21.715,-2.364 8.775,0.388 17.887,3.182 26,6.411 9.95,3.959 23.498,15.664 33.87,16.533 4.614,0.387 18.361,-24.36 26.063,-11.665 2.157,3.555 -1.006,10.268 -2.386,13.682 -5.703,14.107 -16.762,21.742 -31.547,23.869 -14.12,2.031 -33.558,3.868 -47,-2.083 C 259.925,532.112 246.364,507.264 242,492"
     style="stroke:#000000; fill:none;" />
  <path
     id="path4206"
     d="m 359,498 4,1"
     style="stroke:#000000; fill:none;" />
  <path
     id="path4204"
     d="m 359,500 -2,2"
     style="stroke:#000000; fill:none;" />
  <path
     id="path4202"
     d="m 380,638 10,0"
     style="stroke:#000000; fill:none;" />
  <path
     id="path4200"
     d="m 82,639 43,0"
     style="stroke:#000000; fill:none;" />
  <path
     id="path4198"
     d="m 360,639 16,0"
     style="stroke:#000000; fill:none;" />
  <path
     id="path4196"
     d="m 128,640 17,0"
     style="stroke:#000000; fill:none;" />
  <path
     id="path4194"
     d="m 341,640 14,0"
     style="stroke:#000000; fill:none;" />
  <path
     id="path4192"
     d="m 148,641 10,0"
     style="stroke:#000000; fill:none;" />
  <path
     id="path4190"
     d="m 327,641 7,0"
     style="stroke:#000000; fill:none;" />
  <path
     id="path4188"
     d="m 162,642 7,0"
     style="stroke:#000000; fill:none;" />
  <path
     id="path4186"
     d="m 258,642 26,1"
     style="stroke:#000000; fill:none;" />
  <path
     id="path4184"
     d="m 286,642 32,0"
     style="stroke:#000000; fill:none;" />
  <path
     id="path4182"
     d="m 173,643 9,0"
     style="stroke:#000000; fill:none;" />
  <path
     id="path4180"
     d="m 203,644 25,0"
     style="stroke:#000000; fill:none;" />
  <path
     id="path4178"
     d="m 258,644 -8,2"
     style="stroke:#000000; fill:none;" />
  <path
     id="path4176"
     d="m 237,645 10,0"
     style="stroke:#000000; fill:none;" />
  <path
     id="path4174"
     d="m 443,727 c -1.452,4.958 -1.252,12.517 1.904,16.843 0.963,1.322 2.789,4.514 4.795,3.236 4.604,-2.934 1.338,-13.648 1.301,-18.079"
     style="stroke:#000000; fill:none;" />
  <path
     id="path4172"
     d="m 389,729 c 2.378,-0.566 16.239,-2.991 15.37,2.059 -0.771,4.477 -5.194,6.514 -5.37,11.941"
     style="stroke:#000000; fill:none;" />
  <path
     id="path4170"
     d="m 479,732 -1,8"
     style="stroke:#000000; fill:none;" />
  <path
     id="path4168"
     d="m 401,737 c 2.614,11.066 2.69,13 -10,13"
     style="stroke:#000000; fill:none;" />
  <path
     id="path4166"
     d="m 490,753 c -4.503,1.848 -9.279,-8.866 -7,-12"
     style="stroke:#000000; fill:none;" />
  <path
     id="path4164"
     d="m 494,741 c 11.022,1.721 0.182,11.955 13,12"
     style="stroke:#000000; fill:none;" />
  <path
     id="path4162"
     d="m 525,746 c 0.093,0.296 1.069,4.452 2.282,3.634 1.118,-0.753 -1.579,-5.175 -1.407,-6.416 0.536,-3.857 7.913,-1.938 10.125,-1.218"
     style="stroke:#000000; fill:none;" />
  <path
     id="path4160"
     d="m 508.647,744.217 c 3.617,-2.301 10.827,5.39 6.097,7.862 -3.466,1.811 -9.539,-5.672 -6.097,-7.862"
     style="stroke:#000000; fill:none;" />
  <path
     id="path4158"
     d="m 406,745 16,2"
     style="stroke:#000000; fill:none;" />
  <path
     id="path4156"
     d="m 444,744 c -0.698,4.364 -3.405,6.56 -6,2"
     style="stroke:#000000; fill:none;" />
  <path
     id="path4154"
     d="m 457,744 3,10"
     style="stroke:#000000; fill:none;" />
  <path
     id="path4152"
     d="m 461,744 c 1.107,2.053 2.146,4.228 4,2"
     style="stroke:#000000; fill:none;" />
  <path
     id="path4150"
     d="m 409,746 c -0.199,2.713 -1.264,5.79 -3,2"
     style="stroke:#000000; fill:none;" />
  <path
     id="path4148"
     d="m 427,746 0,2"
     style="stroke:#000000; fill:none;" />
  <path
     id="path4146"
     d="m 451,746 4,9"
     style="stroke:#000000; fill:none;" />
  <path
     id="path4144"
     d="m 522,746 -1,7"
     style="stroke:#000000; fill:none;" />
  <path
     id="path4142"
     d="m 456,748 -1,5"
     style="stroke:#000000; fill:none;" />
  <path
     id="path4140"
     d="m 463,748 0,2"
     style="stroke:#000000; fill:none;" />
  <path
     id="path4"
     d="m 466,749 11,3"
     style="stroke:#000000; fill:none;" />
</svg>
