<?xml version="1.0" encoding="UTF-8" standalone="no"?>
<svg
   xmlns:dc="http://purl.org/dc/elements/1.1/"
   xmlns:cc="http://creativecommons.org/ns#"
   xmlns:rdf="http://www.w3.org/1999/02/22-rdf-syntax-ns#"
   xmlns:svg="http://www.w3.org/2000/svg"
   xmlns="http://www.w3.org/2000/svg"
   xmlns:sodipodi="http://sodipodi.sourceforge.net/DTD/sodipodi-0.dtd"
   xmlns:inkscape="http://www.inkscape.org/namespaces/inkscape"
   width="544"
   height="768"
   id="svg2"
   version="1.1"
   inkscape:version="0.91 r13725"
   sodipodi:docname="face2.svg">
  <metadata
     id="metadata10">
    <rdf:RDF>
      <cc:Work
         rdf:about="">
        <dc:format>image/svg+xml</dc:format>
        <dc:type
           rdf:resource="http://purl.org/dc/dcmitype/StillImage" />
        <dc:title></dc:title>
      </cc:Work>
    </rdf:RDF>
  </metadata>
  <defs
     id="defs8" />
  <sodipodi:namedview
     pagecolor="#ffffff"
     bordercolor="#666666"
     borderopacity="1"
     objecttolerance="10"
     gridtolerance="10"
     guidetolerance="10"
     inkscape:pageopacity="0"
     inkscape:pageshadow="2"
     inkscape:window-width="722"
     inkscape:window-height="480"
     id="namedview6"
     showgrid="false"
     inkscape:zoom="0.30729167"
     inkscape:cx="272"
     inkscape:cy="384"
     inkscape:window-x="40"
     inkscape:window-y="63"
     inkscape:window-maximized="0"
     inkscape:current-layer="svg2" />
  <path
     style="stroke:#000000; fill:none;"
     d="m 323,42 1,0"
     id="path4886" />
  <path
     style="stroke:#000000; fill:none;"
     d="m 311,66 c -3.176,0.6664 -7.756,3.4408 -10.872,3.054 -6.905,-0.857 2.204,-6.5309 4.872,-6.8688 9.801,-1.2414 20.681,0.8606 30,3.8148"
     id="path4884" />
  <path
     style="stroke:#000000; fill:none;"
     d="m 296,69 0,-3"
     id="path4882" />
  <path
     style="stroke:#000000; fill:none;"
     d="m 294,68 c -2.758,1.4046 -4.046,0.3784 -1,-1"
     id="path4880" />
  <path
     style="stroke:#000000; fill:none;"
     d="m 337,67 13,7"
     id="path4878" />
  <path
     style="stroke:#000000; fill:none;"
     d="m 289,71 1,-2"
     id="path4876" />
  <path
     style="stroke:#000000; fill:none;"
     d="m 299,71 3,-2"
     id="path4874" />
  <path
     style="stroke:#000000; fill:none;"
     d="m 329,68 3,5"
     id="path4872" />
  <path
     style="stroke:#000000; fill:none;"
     d="m 351,68 c 1.388,3.5216 5.5,14.7819 10,14"
     id="path4870" />
  <path
     style="stroke:#000000; fill:none;"
     d="m 275,73 12,-2"
     id="path4868" />
  <path
     style="stroke:#000000; fill:none;"
     d="m 286,72 c 4.439,2.3899 7.488,2.1255 12,0"
     id="path4866" />
  <path
     style="stroke:#000000; fill:none;"
     d="m 327,110 c 0.783,0.286 2.613,2.522 1.028,1.944 C 322.767,110.029 319.137,101.6 313,99 297.638,92.4928 279.885,92.334 267.167,81.3055 264.455,78.9544 254.836,83.1564 254.056,80.75 252.69,76.5385 268.6,74.353 271,74"
     id="path4864" />
  <path
     style="stroke:#000000; fill:none;"
     d="m 287,74 c -6.114,4.5245 -13.424,4.0889 -6,12"
     id="path4862" />
  <path
     style="stroke:#000000; fill:none;"
     d="m 270,75 3,0"
     id="path4860" />
  <path
     style="stroke:#000000; fill:none;"
     d="m 296,75 c 15.151,4.3929 27.257,12.0389 35,26"
     id="path4858" />
  <path
     style="stroke:#000000; fill:none;"
     d="m 270,77 -3,3"
     id="path4856" />
  <path
     style="stroke:#000000; fill:none;"
     d="m 269,78 6,2"
     id="path4854" />
  <path
     style="stroke:#000000; fill:none;"
     d="m 338,80 c 9.324,9.3235 20.55,19.7696 26,32"
     id="path4852" />
  <path
     style="stroke:#000000; fill:none;"
     d="M 255,82 208,105.333 186,119"
     id="path4850" />
  <path
     style="stroke:#000000; fill:none;"
     d="m 357,83 c 1.345,5.0728 2.284,13.1788 7,16"
     id="path4848" />
  <path
     style="stroke:#000000; fill:none;"
     d="m 362,83 c 1.117,2.3041 1.443,2.4071 -1,2"
     id="path4846" />
  <path
     style="stroke:#000000; fill:none;"
     d="m 364,86 4,5"
     id="path4844" />
  <path
     style="stroke:#000000; fill:none;"
     d="m 320,87 4,4"
     id="path4842" />
  <path
     style="stroke:#000000; fill:none;"
     d="m 323,92 6,16"
     id="path4840" />
  <path
     style="stroke:#000000; fill:none;"
     d="m 285,93 c 2.572,5.704 3.251,12.636 6.056,18 7.626,14.587 14.186,23.364 11.673,41 -0.902,6.331 -2.103,12.641 -2.778,18.999 -0.122,1.147 -1.143,4.879 0.162,5.655 2.61,1.552 6.808,-6.073 7.716,-7.654 4.331,-7.531 7.162,-15.327 8.001,-24 0.208,-2.147 -0.967,-9.534 1.155,-10.793 5.446,-3.234 5.57,19.575 7.486,20.023 2.671,0.624 4.793,-6.537 5.514,-8.23 4.659,-10.928 1.501,-21.017 0.015,-32"
     id="path4838" />
  <path
     style="stroke:#000000; fill:none;"
     d="m 371,93 0,1"
     id="path4836" />
  <path
     style="stroke:#000000; fill:none;"
     d="m 365,95 0,2"
     id="path4834" />
  <path
     style="stroke:#000000; fill:none;"
     d="m 373,95 c 1.614,2.0876 4.718,4.3128 5.872,6.586 1.2,2.364 -1.278,2.954 -1.872,-0.586"
     id="path4832" />
  <path
     style="stroke:#000000; fill:none;"
     d="M 266,117 248,107.439 237.207,103.6 247,100.796 279,104"
     id="path4830" />
  <path
     style="stroke:#000000; fill:none;"
     d="m 363,100 c -0.233,7.213 -8.245,22.605 -8,7"
     id="path4828" />
  <path
     style="stroke:#000000; fill:none;"
     d="m 385,137 c -1.015,0.198 -5.823,1.941 -6.234,0.268 -0.616,-2.512 3.858,-6.517 5.22,-8.268 4.445,-5.714 10.234,-22.037 16.401,-25.079 4.684,-2.311 14.378,12.853 11.901,16.865 -4.405,7.134 -34.083,10.285 -28.871,23.896 4.105,10.717 27.016,-9.005 27.583,8.318"
     id="path4826" />
  <path
     style="stroke:#000000; fill:none;"
     d="m 216,103 19,0"
     id="path4824" />
  <path
     style="stroke:#000000; fill:none;"
     d="m 275,105 -1,6"
     id="path4822" />
  <path
     style="stroke:#000000; fill:none;"
     d="m 281,105 8,4"
     id="path4820" />
  <path
     style="stroke:#000000; fill:none;"
     d="m 333,105 c 2.01,6.34 3.247,12.915 0,19"
     id="path4818" />
  <path
     style="stroke:#000000; fill:none;"
     d="M 378,106 372.25,122.944 374,122"
     id="path4816" />
  <path
     style="stroke:#000000; fill:none;"
     d="m 356,112 2,0"
     id="path4814" />
  <path
     style="stroke:#000000; fill:none;"
     d="m 377,114 -1,3"
     id="path4812" />
  <path
     style="stroke:#000000; fill:none;"
     d="m 188,117 2,-2"
     id="path4810" />
  <path
     style="stroke:#000000; fill:none;"
     d="m 292,115 c 10e-4,8.877 0.827,17.117 -0.167,26 -0.504,4.508 -2.81,9.479 -2.382,14 0.435,4.592 6.568,9.116 4.416,13.871 -2.962,6.546 -13.158,5.914 -18.867,6.007 -3.534,0.058 -6.498,2.457 -10,2.933 -7.636,1.037 -17.364,-0.668 -25,-1.811"
     id="path4808" />
  <path
     style="stroke:#000000; fill:none;"
     d="m 186,116 1,0"
     id="path4806" />
  <path
     style="stroke:#000000; fill:none;"
     d="m 276,116 c 0.86,1.491 5.794,13.944 1.282,13.944 -2.622,0 -2.277,-11.145 -2.282,-12.944"
     id="path4804" />
  <path
     style="stroke:#000000; fill:none;"
     d="m 373,117 2,3"
     id="path4802" />
  <path
     style="stroke:#000000; fill:none;"
     d="m 185,125 c -6.023,0.022 -6.513,-3.619 -1,-6"
     id="path4800" />
  <path
     style="stroke:#000000; fill:none;"
     d="m 268,118 3,6"
     id="path4798" />
  <path
     style="stroke:#000000; fill:none;"
     d="m 356,118 c 4.271,6.268 3.957,19.395 13,12"
     id="path4796" />
  <path
     style="stroke:#000000; fill:none;"
     d="m 217,170 c -14.132,3.996 5.316,5.838 6.079,2.252 0.176,-0.829 -5.625,-3.264 -6.565,-5.287 -4.371,-9.404 -8.664,-19.3 -14.404,-27.965 -1.763,-2.66 -6.748,-7.109 -5.663,-10.671 1.436,-4.716 11.422,-6.949 15.553,-7.926 4.312,-1.02 8.583,-1.376 13,-1.403"
     id="path4794" />
  <path
     style="stroke:#000000; fill:none;"
     d="m 227,119 4,0"
     id="path4792" />
  <path
     style="stroke:#000000; fill:none;"
     d="m 372,119 0,1"
     id="path4790" />
  <path
     style="stroke:#000000; fill:none;"
     d="m 234,120 0,1"
     id="path4788" />
  <path
     style="stroke:#000000; fill:none;"
     d="m 182,121 1,0"
     id="path4786" />
  <path
     style="stroke:#000000; fill:none;"
     d="m 178,126 0,-3"
     id="path4784" />
  <path
     style="stroke:#000000; fill:none;"
     d="m 239,123 8,7"
     id="path4782" />
  <path
     style="stroke:#000000; fill:none;"
     d="m 177,126 c -2.729,0.929 -2.78,-0.127 -1,-2"
     id="path4780" />
  <path
     style="stroke:#000000; fill:none;"
     d="m 170,126 4,-1"
     id="path4778" />
  <path
     style="stroke:#000000; fill:none;"
     d="m 187,125 8,3"
     id="path4776" />
  <path
     style="stroke:#000000; fill:none;"
     d="m 198,127 c 8.848,1.917 19.415,-2.624 26.146,6.188 4.816,6.307 4.057,17.413 3.139,24.812 -0.262,2.108 -2.378,9.227 -0.553,10.651 3.154,2.46 15.937,1.018 20.268,1.507 3.402,0.385 10.182,3.074 13,1.842"
     id="path4774" />
  <path
     style="stroke:#000000; fill:none;"
     d="m 273,127 0,1"
     id="path4772" />
  <path
     style="stroke:#000000; fill:none;"
     d="m 174,128 c -2.706,2.205 -9.638,6.467 -7.824,10.772 2.643,6.273 20.952,2.677 26.805,7.507 4.873,4.02 7.328,10.439 6.9,16.721 -0.164,2.413 -2.205,6.088 -1.173,8.392 1.3,2.903 8.062,0.012 10.292,-0.392"
     id="path4770" />
  <path
     style="stroke:#000000; fill:none;"
     d="m 249,132 3,4"
     id="path4768" />
  <path
     style="stroke:#000000; fill:none;"
     d="m 279,133 c 0.007,13.064 2.129,29.375 -5,41"
     id="path4766" />
  <path
     style="stroke:#000000; fill:none;"
     d="m 387,136 c 8.162,3.541 17.5,1.081 26,-0.209 1.989,-0.302 7.326,-2.991 8.868,-1.056 2.969,3.726 -5.336,19.556 -5.998,24.265 -2.444,17.376 0.345,37.262 0.134,55 -0.045,3.733 1.921,16.49 -1.798,18.793 -2.047,1.268 -2.998,-4.844 -3.206,-5.793"
     id="path4764" />
  <path
     style="stroke:#000000; fill:none;"
     d="m 363,135 c -8.429,8.453 -13.733,17.417 -18.834,28 -1.106,2.295 -4.933,8.538 -2.458,10.82 7.86,7.251 7.191,-10.261 5.292,-13.82"
     id="path4762" />
  <path
     style="stroke:#000000; fill:none;"
     d="m 363,138 c 1.47,10.591 7.726,5.263 14,1"
     id="path4760" />
  <path
     style="stroke:#000000; fill:none;"
     d="m 254,139 18,34"
     id="path4758" />
  <path
     style="stroke:#000000; fill:none;"
     d="m 281,143 8,10"
     id="path4756" />
  <path
     style="stroke:#000000; fill:none;"
     d="m 369,145 c 4.949,3.139 8.098,3.283 13,0"
     id="path4754" />
  <path
     style="stroke:#000000; fill:none;"
     d="m 352,153 22,-4"
     id="path4752" />
  <path
     style="stroke:#000000; fill:none;"
     d="m 157,155 1,0"
     id="path4750" />
  <path
     style="stroke:#000000; fill:none;"
     d="m 148,163 7,-7"
     id="path4748" />
  <path
     style="stroke:#000000; fill:none;"
     d="m 160,156 2,0"
     id="path4746" />
  <path
     style="stroke:#000000; fill:none;"
     d="m 410,156 -1,13"
     id="path4744" />
  <path
     style="stroke:#000000; fill:none;"
     d="m 323,157 -1,3"
     id="path4742" />
  <path
     style="stroke:#000000; fill:none;"
     d="m 288,158 -4,15"
     id="path4740" />
  <path
     style="stroke:#000000; fill:none;"
     d="m 170,162 c 4.432,4.529 7.166,12.189 14,12"
     id="path4738" />
  <path
     style="stroke:#000000; fill:none;"
     d="m 146,165 -1,3"
     id="path4736" />
  <path
     style="stroke:#000000; fill:none;"
     d="m 338,176 c -2.046,3.274 -9.178,16.148 -13.621,15.369 -7.291,-1.278 -4.156,-17.718 0.015,-20.672 4.058,-2.875 10.921,2.503 14.606,4.303"
     id="path4734" />
  <path
     style="stroke:#000000; fill:none;"
     d="m 143,171 c -10.214,16.172 -11.565,39.479 -15.167,58 -0.65,3.344 -5.169,16.02 -2.333,18.667 1.036,0.966 6.863,-14.455 8,-16.667 0.538,-1.048 2.465,-5.155 4.167,-3.667 1.551,1.358 -0.815,7.111 -1.334,8.667 -1.483,4.451 -6.457,21.573 -2.833,25.5 6.783,7.348 19.542,11.559 28.5,15.167 2.799,1.127 12.404,4.766 13.667,7.333 0.979,1.992 -1.351,3.792 -0.667,6 1.142,3.685 5.465,4.788 6.167,9 1.471,8.831 -1.351,18.314 -1.834,27 -0.165,2.982 1.946,4.849 1.334,8 -1.401,7.202 -12.466,15.55 -10.5,23 1.692,6.413 12.201,7.163 15.5,13 1.935,3.423 -0.917,10.955 2.5,13.5 2.223,1.656 14.481,3.251 12.833,1.5"
     id="path4732" />
  <path
     style="stroke:#000000; fill:none;"
     d="m 213,171 0,2"
     id="path4730" />
  <path
     style="stroke:#000000; fill:none;"
     d="m 408,171 1,36"
     id="path4728" />
  <path
     style="stroke:#000000; fill:none;"
     d="m 219,172 0,2"
     id="path4726" />
  <path
     style="stroke:#000000; fill:none;"
     d="m 261,173 7,-1"
     id="path4724" />
  <path
     style="stroke:#000000; fill:none;"
     d="m 186,174 7,0"
     id="path4722" />
  <path
     style="stroke:#000000; fill:none;"
     d="m 197,174 c -0.798,5.899 -4.031,19.694 -12,15"
     id="path4720" />
  <path
     style="stroke:#000000; fill:none;"
     d="m 167,180 10,-5"
     id="path4718" />
  <path
     style="stroke:#000000; fill:none;"
     d="m 255,176 4,-2"
     id="path4716" />
  <path
     style="stroke:#000000; fill:none;"
     d="m 180,176 c 1.656,5.738 -3.319,5.148 -6.062,9.214 -1.845,2.735 -2.122,6.65 -2.938,9.786 -1.35,5.186 -5.01,10.825 -5.483,16 -0.995,10.872 3.533,21.876 1.197,33 -1.109,5.276 -8.996,16.174 -7.408,20.891 1.906,5.664 15.046,6.497 19.694,9.758 7.663,5.377 7.131,16.391 16.961,18.116 9.718,1.706 10.124,-11.256 15.357,-14.737 3.15,-2.096 9,-1.128 12.682,-1.833 9.417,-1.801 18.54,-5.267 28,-6.756 7.878,-1.24 15.053,-0.483 22,3.469 3.011,1.713 7.958,5.47 11.316,2.565 11.49,-9.936 4.657,-28.555 8.568,-41.473 4.824,-15.933 19.629,-29.417 31.116,-41"
     id="path4714" />
  <path
     style="stroke:#000000; fill:none;"
     d="m 222,176 9,8"
     id="path4712" />
  <path
     style="stroke:#000000; fill:none;"
     d="m 289,176 5,1"
     id="path4710" />
  <path
     style="stroke:#000000; fill:none;"
     d="m 183,182 1,5"
     id="path4708" />
  <path
     style="stroke:#000000; fill:none;"
     d="m 163,184 c -1.776,2.515 -3.645,4.664 -6.004,6.677 -2.233,1.905 -5.309,3.501 -6.373,6.411 -0.547,1.495 -0.466,5.402 2.086,3.991 C 160.628,196.699 162.794,186.49 173,185"
     id="path4706" />
  <path
     style="stroke:#000000; fill:none;"
     d="m 297,189 22,8"
     id="path4704" />
  <path
     style="stroke:#000000; fill:none;"
     d="m 301,192 10,15"
     id="path4702" />
  <path
     style="stroke:#000000; fill:none;"
     d="m 324,194 c 3.248,4.768 1.902,6.64 -3,3"
     id="path4700" />
  <path
     style="stroke:#000000; fill:none;"
     d="m 326,198 -2,2"
     id="path4698" />
  <path
     style="stroke:#000000; fill:none;"
     d="m 151,203 -14,22"
     id="path4696" />
  <path
     style="stroke:#000000; fill:none;"
     d="m 151,207 c 3.443,7.571 1.68,19.419 3.144,27.911 0.573,3.324 3.469,5.655 3.6,9.092 0.058,1.516 -2.229,7.921 -4.156,4.531 C 152.205,246.1 153,241.711 153,239"
     id="path4694" />
  <path
     style="stroke:#000000; fill:none;"
     d="m 311,208 c 4.155,6.171 -0.689,3.739 -1.498,8.353 -0.725,4.137 0.521,23.209 3.816,25.709 6.313,4.79 17.467,2.031 24.682,5.51 9.34,4.503 12.545,17.905 24,18.664 4.223,0.28 7.238,-2.906 11,-4.207 4.403,-1.524 9.423,-0.968 14,-2.117 2.765,-0.695 6.806,-3.217 9.61,-1.779 3.45,1.77 5.296,7.906 7.718,10.867 2.093,2.559 4.902,4.815 6.069,8 6.812,18.6 -24.303,-1.891 -29.56,2.617 -6.933,5.945 -3.139,18.98 -5.986,26.25 -1.423,3.634 -10.647,5.774 -7.613,10.772 1.399,2.304 4.017,1.084 5.766,-0.002 8.467,-5.26 12.432,-4.654 21.996,-6.223 2.069,-0.34 8.216,-2.195 7.493,1.749 -1.747,9.527 -19.4,31.952 -30.478,30.271 -4.449,-0.676 -10.775,-16.054 -11.934,-14.798 -2.307,2.5 -2.739,8.169 -3.74,11.364 -2.69,8.586 -5.539,17.913 -9.465,26 -7.93,16.332 -26.373,32.869 -39.876,44.714 -11.204,9.828 -22.705,22.523 -35,30.754 -2.223,1.489 -14.095,1.779 -12.793,5.753 2.609,7.966 15.231,13.427 19.798,20.779 5.457,8.783 6.927,21.028 8.992,31 0.723,3.49 0.925,10.632 3.799,13.09 1.84,1.575 5.061,1.214 7.204,2.574 4.551,2.89 7.596,6.985 13,8.547 8.812,2.546 20.212,-0.108 29,-1.751 16.899,-3.16 33.56,-6.994 50,-12.119 9.011,-2.809 18.302,-4.24 27,-8.072 12.241,-5.392 23.938,-11.305 30.981,-23.269 14.381,-24.429 16.513,-61.345 19.189,-89 1.05,-10.857 3.08,-24.767 -1.482,-35 -4.539,-10.178 -12.079,-19.046 -20.689,-26.066 -2.081,-1.696 -6.391,-6.054 -9.346,-5.77 -1.67,0.16 -1.998,7.516 -0.568,8.209 1.989,0.965 -0.245,-3.745 -0.085,-3.373"
     id="path4692" />
  <path
     style="stroke:#000000; fill:none;"
     d="m 410,216 0,8"
     id="path4690" />
  <path
     style="stroke:#000000; fill:none;"
     d="m 140,225 -2,2"
     id="path4688" />
  <path
     style="stroke:#000000; fill:none;"
     d="m 135,228 2,2"
     id="path4686" />
  <path
     style="stroke:#000000; fill:none;"
     d="m 414,235 -3,40"
     id="path4684" />
  <path
     style="stroke:#000000; fill:none;"
     d="m 126,250 c -3.134,7.475 -2.911,20.926 7,12"
     id="path4682" />
  <path
     style="stroke:#000000; fill:none;"
     d="m 382,262 c -4.657,5.252 -15.864,9.881 -18.397,16.105 -3.159,7.764 4.292,14.407 -1.831,21.895 -2.057,2.515 -11.693,14.99 -15.149,13.079 -3.393,-1.877 -7.427,-13.557 -5.756,-16.989 0.786,-1.618 8.09,-6.855 5.381,-8.853 -4.99,-3.681 -10.101,4.372 -7.248,8.763"
     id="path4680" />
  <path
     style="stroke:#000000; fill:none;"
     d="m 369,264 7,3"
     id="path4678" />
  <path
     style="stroke:#000000; fill:none;"
     d="m 132,266 c 0.113,9.516 7.833,7.426 15,5"
     id="path4676" />
  <path
     style="stroke:#000000; fill:none;"
     d="m 155,273 c -0.438,-3.311 -0.93,-5.116 2,-7"
     id="path4674" />
  <path
     style="stroke:#000000; fill:none;"
     d="m 362,267 -28,11.694 -39,13.5 -20.333,7.473 L 277,298"
     id="path4672" />
  <path
     style="stroke:#000000; fill:none;"
     d="m 377,267 0,14"
     id="path4670" />
  <path
     style="stroke:#000000; fill:none;"
     d="m 126,268 c 0.421,5.284 0.918,10.377 7,7"
     id="path4668" />
  <path
     style="stroke:#000000; fill:none;"
     d="m 149,271 4,-3"
     id="path4666" />
  <path
     style="stroke:#000000; fill:none;"
     d="m 163,269 c 2.634,4.31 16.138,10.55 21,10"
     id="path4664" />
  <path
     style="stroke:#000000; fill:none;"
     d="m 382,277 c 8.439,-6.3 21.581,-5.926 22,7"
     id="path4662" />
  <path
     style="stroke:#000000; fill:none;"
     d="m 149,273 c -3.636,2.988 -12.86,5.448 -14.927,9.418 -1.358,2.61 1.071,5.604 0.516,8.349 -0.585,2.894 -4.028,2.881 -4.001,6.295 0.107,13.553 17.404,36.673 31.412,37.543 7.139,0.443 10.763,-6.761 17,-8.605"
     id="path4660" />
  <path
     style="stroke:#000000; fill:none;"
     d="m 276,275 c -5.132,4.593 -13.911,15.555 -21,16.556 -4.102,0.579 -8.535,-5.55 -12.778,-2.862 -3.566,2.26 6.364,3.892 3.778,5.306"
     id="path4658" />
  <path
     style="stroke:#000000; fill:none;"
     d="m 278,276 c 2.837,10.402 -0.012,11.394 -9,5"
     id="path4656" />
  <path
     style="stroke:#000000; fill:none;"
     d="m 133,277 0,3"
     id="path4654" />
  <path
     style="stroke:#000000; fill:none;"
     d="m 128,278 4,5"
     id="path4652" />
  <path
     style="stroke:#000000; fill:none;"
     d="m 241,287 -8,-0.95 -11.944,-1.971 10.944,-1.078 18,0.786 17,-1.787"
     id="path4650" />
  <path
     style="stroke:#000000; fill:none;"
     d="m 380,280 4,0"
     id="path4648" />
  <path
     style="stroke:#000000; fill:none;"
     d="m 128,281 -3,4"
     id="path4646" />
  <path
     style="stroke:#000000; fill:none;"
     d="m 381,281 -2,2"
     id="path4644" />
  <path
     style="stroke:#000000; fill:none;"
     d="m 171,282 3,6"
     id="path4642" />
  <path
     style="stroke:#000000; fill:none;"
     d="m 184,282 2,3"
     id="path4640" />
  <path
     style="stroke:#000000; fill:none;"
     d="m 130,283 0,9"
     id="path4638" />
  <path
     style="stroke:#000000; fill:none;"
     d="m 354,283 -5,3"
     id="path4636" />
  <path
     style="stroke:#000000; fill:none;"
     d="m 210,285 9,-1"
     id="path4634" />
  <path
     style="stroke:#000000; fill:none;"
     d="m 168,285 2,1"
     id="path4632" />
  <path
     style="stroke:#000000; fill:none;"
     d="m 177,285 2,0"
     id="path4630" />
  <path
     style="stroke:#000000; fill:none;"
     d="m 185,286 3,5"
     id="path4628" />
  <path
     style="stroke:#000000; fill:none;"
     d="m 405,287 0,21"
     id="path4626" />
  <path
     style="stroke:#000000; fill:none;"
     d="m 176,291 8,-1"
     id="path4624" />
  <path
     style="stroke:#000000; fill:none;"
     d="m 239,289 1,2"
     id="path4622" />
  <path
     style="stroke:#000000; fill:none;"
     d="m 180,294 c 4.982,-2.28 5.229,1.214 3,5"
     id="path4620" />
  <path
     style="stroke:#000000; fill:none;"
     d="m 247,296 c -0.586,0.971 -10.099,7.094 -10.425,6.863 -1.991,-1.409 1.808,-4.013 -0.209,-5.299 -1.61,-1.026 -7.31,0.215 -7.31,-2.748 0,-4.348 7.556,-3.471 9.944,-2.816"
     id="path4618" />
  <path
     style="stroke:#000000; fill:none;"
     d="m 174,292 -10,7"
     id="path4616" />
  <path
     style="stroke:#000000; fill:none;"
     d="m 265,441 c -3.052,-23.63 1.203,-46.474 4.572,-70 1.046,-7.304 -1.059,-18.475 2.376,-25 12.844,-24.406 40.219,-41.535 63.052,-55"
     id="path4614" />
  <path
     style="stroke:#000000; fill:none;"
     d="m 248,294 c 3.547,2.315 1.9,5.296 -2,5"
     id="path4612" />
  <path
     style="stroke:#000000; fill:none;"
     d="m 136,295 10,11"
     id="path4610" />
  <path
     style="stroke:#000000; fill:none;"
     d="m 200,295 c -4.451,10.548 -1.496,23.895 7.174,31.545 1.844,1.627 9.298,8.893 11.797,6.623 7.148,-6.488 -12.378,-17.019 -14.514,-21.183 C 197.6,298.62 219.178,297.774 227,296"
     id="path4608" />
  <path
     style="stroke:#000000; fill:none;"
     d="m 252,296 c 9.109,5.273 10.59,5.43 21,3"
     id="path4606" />
  <path
     style="stroke:#000000; fill:none;"
     d="m 223,297 3,1"
     id="path4604" />
  <path
     style="stroke:#000000; fill:none;"
     d="m 248,297 2,2"
     id="path4602" />
  <path
     style="stroke:#000000; fill:none;"
     d="m 227,300 6,2"
     id="path4600" />
  <path
     style="stroke:#000000; fill:none;"
     d="m 250,300 c 2.385,2.491 6.722,8.056 8,2"
     id="path4598" />
  <path
     style="stroke:#000000; fill:none;"
     d="m 248,301 c -0.23,4.349 0.563,5.51 5,5"
     id="path4596" />
  <path
     style="stroke:#000000; fill:none;"
     d="m 269,302 4,0"
     id="path4594" />
  <path
     style="stroke:#000000; fill:none;"
     d="m 264,303 c -1.696,3.625 -6.355,5.078 -7.389,9.005 -3.308,12.557 3.802,21.564 -8.616,31.796 -7.064,5.822 -13.658,1.174 -19.995,-2.894 -0.747,-0.479 -6.002,-3.991 -6.634,-2.291 -1.327,3.562 6.871,4.671 8.634,4.384"
     id="path4592" />
  <path
     style="stroke:#000000; fill:none;"
     d="m 239,304 7,3"
     id="path4590" />
  <path
     style="stroke:#000000; fill:none;"
     d="m 407,304 c 18.23,8.762 43.319,3.3 64,6.753 7.614,1.272 19.92,2.59 23.972,10.287 3.353,6.368 0.209,16.168 0.043,22.96 -0.466,19.023 -1.046,37.947 -1.015,57 0.036,22.671 2.959,45.203 1.961,68 -2.105,48.049 -6.375,93.985 -0.246,142 2.793,21.887 3.21,42.125 -0.47,64 -0.938,5.579 -2.534,18.774 -8.459,21.258 -8.144,3.414 -23.163,-1.381 -31.786,-2.183 -24.856,-2.311 -50.248,-1.282 -75,-4.651 -7.662,-1.043 -15.375,-0.959 -23,-2 -1.998,-0.273 -6.466,0.011 -7.793,-1.848 -0.282,-0.395 14.053,-1.829 14.581,-5.72 0.574,-4.239 -3.211,-10.059 -4.777,-13.856 -4.249,-10.296 -8.26,-20.591 -12.203,-31 -1.166,-3.078 -2.965,-12.494 -6.754,-13.369 -2.309,-0.533 -4.897,19.682 -5.015,22.369 -0.376,8.573 2.83,23.391 -2.781,30.66 -4.582,5.936 -15.68,4.862 -22.258,4.054 -22.923,-2.816 -46.653,-8.991 -67,-19.878 -4.876,-2.609 -15.075,-5.21 -17.971,-10.061 -2.019,-3.379 -0.405,-8.134 -0.149,-11.775 0.571,-8.098 0.162,-15.933 0.121,-24 -0.01,-1.961 0.998,-10.446 -1.317,-11.369 -1.119,-0.446 -2.701,15.586 -2.955,17.369 C 217.93,638.634 216,656.204 216,676"
     id="path4588" />
  <path
     style="stroke:#000000; fill:none;"
     d="m 258,305 2,2"
     id="path4586" />
  <path
     style="stroke:#000000; fill:none;"
     d="m 255,307 1,2"
     id="path4584" />
  <path
     style="stroke:#000000; fill:none;"
     d="m 402,319 c 4.54,-3.06 11.201,-9.024 17,-6.049 5.019,2.576 9.134,11.61 15,11.049"
     id="path4582" />
  <path
     style="stroke:#000000; fill:none;"
     d="m 433,318 2,2"
     id="path4580" />
  <path
     style="stroke:#000000; fill:none;"
     d="m 402,319 -2.821,26 4.762,22 1.059,40"
     id="path4578" />
  <path
     style="stroke:#000000; fill:none;"
     d="m 431,324 c -7.653,4.064 -19.46,2.006 -28,2"
     id="path4576" />
  <path
     style="stroke:#000000; fill:none;"
     d="m 208,328 c 2.413,5.17 6.34,8.858 12,10"
     id="path4574" />
  <path
     style="stroke:#000000; fill:none;"
     d="m 403,328 1,33"
     id="path4572" />
  <path
     style="stroke:#000000; fill:none;"
     d="m 178,329 2,7"
     id="path4570" />
  <path
     style="stroke:#000000; fill:none;"
     d="m 434,331 c -8.564,30.465 -1.458,65.617 -18,93"
     id="path4568" />
  <path
     style="stroke:#000000; fill:none;"
     d="m 438,332 c 4.19,12.856 13.376,27.371 13.739,41 0.308,11.53 -7.312,28.04 -12.739,38"
     id="path4566" />
  <path
     style="stroke:#000000; fill:none;"
     d="m 177,335 0,4"
     id="path4564" />
  <path
     style="stroke:#000000; fill:none;"
     d="m 219,335 2,2"
     id="path4562" />
  <path
     style="stroke:#000000; fill:none;"
     d="m 218,343 6,0"
     id="path4560" />
  <path
     style="stroke:#000000; fill:none;"
     d="m 220,345 2.278,14.972 -18.222,6 L 206,366"
     id="path4558" />
  <path
     style="stroke:#000000; fill:none;"
     d="m 175,349 2,13"
     id="path4556" />
  <path
     style="stroke:#000000; fill:none;"
     d="m 446,358 c -0.012,18.762 -5.361,35.039 -12.86,52 -1.513,3.422 -9.67,15.526 -7.451,19.079 0.783,1.254 9.214,-8.556 8.311,-11.079"
     id="path4554" />
  <path
     style="stroke:#000000; fill:none;"
     d="m 202,365 c -3.41,1.703 -4.955,0.022 -1,-1"
     id="path4552" />
  <path
     style="stroke:#000000; fill:none;"
     d="m 155,437 c 1.624,3.908 7.114,18.296 -2.043,18.833 -3.261,0.191 -7.104,-4.985 -9.957,-6.38 -3.06,-1.496 -10.137,-0.474 -11.067,-4.601 -0.96,-4.263 3.212,-9.189 2.973,-13.852 -0.739,-14.385 0.736,-26.771 1.928,-41 0.397,-4.736 -1.24,-11.612 1.194,-15.867 5.54,-9.688 19.935,-8.326 24.944,0.957 2.103,3.896 1.232,10.618 0.938,14.91 -0.55,8.044 -2.744,15.937 -2.91,24"
     id="path4550" />
  <path
     style="stroke:#000000; fill:none;"
     d="m 187,371 9,-4"
     id="path4548" />
  <path
     style="stroke:#000000; fill:none;"
     d="m 129,460 c -4.323,-1.8 -10.388,-3.812 -12.825,-8.105 -2.609,-4.596 -1.862,-10.841 -2.46,-15.895 -1.807,-15.269 -2.62,-38.093 1.854,-52.999 C 119.147,371.077 127.576,363.737 138,373"
     id="path4546" />
  <path
     style="stroke:#000000; fill:none;"
     d="m 192,370 1,-3"
     id="path4544" />
  <path
     style="stroke:#000000; fill:none;"
     d="m 186,370 4,-2"
     id="path4542" />
  <path
     style="stroke:#000000; fill:none;"
     d="m 196,368 -1,1"
     id="path4540" />
  <path
     style="stroke:#000000; fill:none;"
     d="m 164,374 c 6.277,-9.211 15.556,-0.428 21,5"
     id="path4538" />
  <path
     style="stroke:#000000; fill:none;"
     d="m 183,379 c 0.15,4.659 2.953,8.459 2.982,13 0.071,10.965 -3.698,24.356 3.018,34"
     id="path4536" />
  <path
     style="stroke:#000000; fill:none;"
     d="m 188,384 -2,4"
     id="path4534" />
  <path
     style="stroke:#000000; fill:none;"
     d="m 203,386 c 11.687,4.066 -2.374,28.634 15.837,30.029 4.882,0.374 -0.194,-17.386 -1.543,-19.605 -0.636,-1.045 -5.237,-4.663 -4.087,-6.068 1.504,-1.839 17.502,4.814 6.793,5.644"
     id="path4532" />
  <path
     style="stroke:#000000; fill:none;"
     d="m 202,387 6,6"
     id="path4530" />
  <path
     style="stroke:#000000; fill:none;"
     d="m 226,395 c 2.546,0.002 12.653,-0.891 13.369,2.584 1.308,6.347 -13.904,6.263 -17.369,6.416"
     id="path4528" />
  <path
     style="stroke:#000000; fill:none;"
     d="m 219,398 2,5"
     id="path4526" />
  <path
     style="stroke:#000000; fill:none;"
     d="m 138,400 c 1.036,5.602 -0.928,13.6 1.603,18.682 2.051,4.12 8.94,1.706 12.397,1.527 8.629,-0.447 15.204,-0.292 21.725,-7.393 C 177.763,408.42 178.282,402.812 184,400"
     id="path4524" />
  <path
     style="stroke:#000000; fill:none;"
     d="m 437,414 -2,3"
     id="path4522" />
  <path
     style="stroke:#000000; fill:none;"
     d="m 222,418 0,1"
     id="path4520" />
  <path
     style="stroke:#000000; fill:none;"
     d="m 186,423 c 0.131,7.785 4.118,15.587 8.333,22 0.943,1.433 2.621,5.254 4.528,5.556 1.76,0.278 -0.911,-1.576 -0.861,-1.556"
     id="path4518" />
  <path
     style="stroke:#000000; fill:none;"
     d="m 215,426 c 17.018,8.828 24.966,25.034 34.633,40 2.426,3.757 10.787,12.035 9.776,16.787 -0.813,3.821 -8.33,5.744 -11.409,7.063 -12.7,5.438 -23.376,7.225 -37,6.15"
     id="path4516" />
  <path
     style="stroke:#000000; fill:none;"
     d="m 190,428 9,19"
     id="path4514" />
  <path
     style="stroke:#000000; fill:none;"
     d="m 221,429 c 6.432,-1.239 13.11,3.919 18,7.755 10.076,7.903 19.839,18.636 32,23.245"
     id="path4512" />
  <path
     style="stroke:#000000; fill:none;"
     d="m 287,428 c 4.837,8.454 -5.259,16.648 -2.91,25.971 C 288.501,471.48 322.243,467 335,467"
     id="path4510" />
  <path
     style="stroke:#000000; fill:none;"
     d="m 425,431 c -6.498,8.061 -11.524,17.253 -18.59,24.83 C 384.572,479.247 358.792,490.587 327,484.003 314.256,481.364 299.978,476.82 294,464"
     id="path4508" />
  <path
     style="stroke:#000000; fill:none;"
     d="m 403,435 2,0"
     id="path4506" />
  <path
     style="stroke:#000000; fill:none;"
     d="m 397,438 -1,1"
     id="path4504" />
  <path
     style="stroke:#000000; fill:none;"
     d="m 394,440 -8,10"
     id="path4502" />
  <path
     style="stroke:#000000; fill:none;"
     d="m 252,443 4,1"
     id="path4500" />
  <path
     style="stroke:#000000; fill:none;"
     d="m 180,445 c 6.511,7.453 15.051,14.689 26,11.281 3.339,-1.04 5.757,-3.979 8.998,-5.293 3.582,-1.451 5.599,-0.726 6.002,3.012"
     id="path4498" />
  <path
     style="stroke:#000000; fill:none;"
     d="m 207,447 -4,9"
     id="path4496" />
  <path
     style="stroke:#000000; fill:none;"
     d="m 181,448 c 0.261,15.235 -16.426,13.652 -22,2"
     id="path4494" />
  <path
     style="stroke:#000000; fill:none;"
     d="m 279,448 4,5"
     id="path4492" />
  <path
     style="stroke:#000000; fill:none;"
     d="m 404,450 1,0"
     id="path4490" />
  <path
     style="stroke:#000000; fill:none;"
     d="m 200,451 3,0"
     id="path4488" />
  <path
     style="stroke:#000000; fill:none;"
     d="m 395,458 5,-4"
     id="path4486" />
  <path
     style="stroke:#000000; fill:none;"
     d="m 286,459 5.714,26 4.286,25"
     id="path4484" />
  <path
     style="stroke:#000000; fill:none;"
     d="m 381,459 -15,23"
     id="path4482" />
  <path
     style="stroke:#000000; fill:none;"
     d="m 393,460 -4,4"
     id="path4480" />
  <path
     style="stroke:#000000; fill:none;"
     d="m 131,461 c 18.453,7.984 36.618,16.096 54,26.397 8.419,4.989 17.242,9.584 22.015,18.603 6.013,11.36 6.436,23.845 9.46,36 1.909,7.672 5.846,14.478 8.085,22 1.648,5.537 -0.712,16.36 4.588,19.722 4.566,2.897 10.178,4.003 14.852,6.973 15.246,9.688 28.785,21.066 47,24.703 7.786,1.555 22.546,0.269 27.223,-7.531 2.651,-4.421 -1.441,-14.181 -2.597,-18.867 -4.404,-17.845 -10.175,-37.538 -18.379,-54 -2.292,-4.598 -11.934,-20.425 -7.247,-24"
     id="path4478" />
  <path
     style="stroke:#000000; fill:none;"
     d="m 133,462 c -23.874,19.441 -25.549,44.899 -22.184,73 1.8,15.036 2.308,29.255 6.754,44 6.779,22.477 19.572,41.49 31.994,61 5.878,9.231 10.919,19.63 14.432,30 1.507,4.449 2.087,11.415 7.059,13.397 9.971,3.975 25.436,-0.397 35.945,-0.397 25.008,0 49.986,3 75,3 8.292,0 16.731,-0.725 25,-0.371 1.638,0.07 7.592,1.345 8.369,-0.915 0.655,-1.905 -7.302,-2.431 -8.369,-2.559 -9.49,-1.14 -18.617,-3.775 -28,-5.155"
     id="path4476" />
  <path
     style="stroke:#000000; fill:none;"
     d="m 387,465 -5,5"
     id="path4474" />
  <path
     style="stroke:#000000; fill:none;"
     d="m 345,470 2,1"
     id="path4472" />
  <path
     style="stroke:#000000; fill:none;"
     d="m 218,471 0,1"
     id="path4470" />
  <path
     style="stroke:#000000; fill:none;"
     d="m 379,471 -3,3"
     id="path4468" />
  <path
     style="stroke:#000000; fill:none;"
     d="m 349,472 20,6"
     id="path4466" />
  <path
     style="stroke:#000000; fill:none;"
     d="m 220,487 -6,9"
     id="path4464" />
  <path
     style="stroke:#000000; fill:none;"
     d="m 346,497 14,-10"
     id="path4462" />
  <path
     style="stroke:#000000; fill:none;"
     d="m 343,499 -20,9"
     id="path4460" />
  <path
     style="stroke:#000000; fill:none;"
     d="m 320,509 -19,5"
     id="path4458" />
  <path
     style="stroke:#000000; fill:none;"
     d="m 292,513 -1,3"
     id="path4456" />
  <path
     style="stroke:#000000; fill:none;"
     d="m 293,517 -2,3"
     id="path4454" />
  <path
     style="stroke:#000000; fill:none;"
     d="m 225,583 -1,17"
     id="path4452" />
  <path
     style="stroke:#000000; fill:none;"
     d="m 326,592 12,27"
     id="path4450" />
  <path
     style="stroke:#000000; fill:none;"
     d="m 227,675 8,0"
     id="path4448" />
  <path
     style="stroke:#000000; fill:none;"
     d="m 242,675 35,1"
     id="path4446" />
  <path
     style="stroke:#000000; fill:none;"
     d="m 220,676 5,0"
     id="path4444" />
  <path
     style="stroke:#000000; fill:none;"
     d="m 317,685 30,0"
     id="path4442" />
  <path
     style="stroke:#000000; fill:none;"
     d="m 363,722 c 0.982,-3.415 4.371,-8.388 8.667,-5.777 4.723,2.871 -1.978,11.874 4.392,16.33 6.463,4.522 14.63,0.323 20.922,-0.821 2.107,-0.383 8.313,1.152 10.705,1.436 3.695,0.439 1.902,6.135 -1.686,5.832"
     id="path4440" />
  <path
     style="stroke:#000000; fill:none;"
     d="m 463,715 3,1"
     id="path4438" />
  <path
     style="stroke:#000000; fill:none;"
     d="m 441,716 c -0.646,5.108 -0.356,11.732 -3.804,15.883 -6.292,7.574 -9.019,-6.77 -9.196,-10.883"
     id="path4436" />
  <path
     style="stroke:#000000; fill:none;"
     d="m 404,718 4,0"
     id="path4434" />
  <path
     style="stroke:#000000; fill:none;"
     d="m 473,719 c -0.568,3.582 -1.508,4.943 -5,6"
     id="path4432" />
  <path
     style="stroke:#000000; fill:none;"
     d="m 496,723 c 12.711,-6.638 7.101,12.053 15.053,13.369 5.063,0.837 4.283,-10.919 -4.053,-9.369"
     id="path4430" />
  <path
     style="stroke:#000000; fill:none;"
     d="m 366,724 c -0.174,3.45 -2.134,7.11 2,8"
     id="path4428" />
  <path
     style="stroke:#000000; fill:none;"
     d="m 525,724 12,0"
     id="path4426" />
  <path
     style="stroke:#000000; fill:none;"
     d="m 480,740 c 7.808,-8.834 -0.171,-3.849 -4.397,-6.238 -5.443,-3.077 0.827,-8.484 4.397,-8.762"
     id="path4424" />
  <path
     style="stroke:#000000; fill:none;"
     d="m 504,727 c -2.665,4.771 -7.558,9.345 1,10"
     id="path4422" />
  <path
     style="stroke:#000000; fill:none;"
     d="m 525,727 c 0.484,1.561 4.338,8.544 2.212,9.539 -3.93,1.838 -7.53,-8.324 -8.212,0.461"
     id="path4420" />
  <path
     style="stroke:#000000; fill:none;"
     d="m 432,732 3,-4"
     id="path4418" />
  <path
     style="stroke:#000000; fill:none;"
     d="m 521,728 -1,2"
     id="path4416" />
  <path
     style="stroke:#000000; fill:none;"
     d="m 447,730 c -2.464,4.205 -4.813,8.597 -7,2"
     id="path4414" />
  <path
     style="stroke:#000000; fill:none;"
     d="m 450,730 c 1.248,4.103 3.442,6.906 6,2"
     id="path4412" />
  <path
     style="stroke:#000000; fill:none;"
     d="m 364,733 0,2"
     id="path4410" />
  <path
     style="stroke:#000000; fill:none;"
     d="m 447,733 2,5"
     id="path4408" />
  <path
     style="stroke:#000000; fill:none;"
     d="m 393,734 3,3"
     id="path4406" />
  <path
     style="stroke:#000000; fill:none;"
     d="m 430,734 c -3.141,3.56 -6.971,5.036 -11,2"
     id="path4404" />
  <path
     style="stroke:#000000; fill:none;"
     d="m 455,735 16,2"
     id="path4402" />
  <path
     style="stroke:#000000; fill:none;"
     d="m 379,735 c -6.045,5.112 -11.822,4.275 -19,2"
     id="path4400" />
  <path
     style="stroke:#000000; fill:none;"
     d="m 388,736 c -2.243,4.406 -6.179,5.59 -9,1"
     id="path4398" />
  <path
     style="stroke:#000000; fill:none;"
     d="m 483,740 4,-2"
     id="path4396" />
  <path
     style="stroke:#000000; fill:none;"
     d="m 2,763 16,0"
     id="path4394" />
  <path
     style="stroke:#000000; fill:none;"
     d="m 40,763 4,0"
     id="path4392" />
  <path
     style="stroke:#000000; fill:none;"
     d="m 52,763 15,0"
     id="path4390" />
  <path
     style="stroke:#000000; fill:none;"
     d="m 71,763 1,0"
     id="path4388" />
  <path
     style="stroke:#000000; fill:none;"
     d="m 189,763 2,0"
     id="path4386" />
  <path
     style="stroke:#000000; fill:none;"
     d="m 216,763 1,0"
     id="path4384" />
  <path
     style="stroke:#000000; fill:none;"
     d="m 282,763 2,0"
     id="path4" />
</svg>
