<?xml version="1.0" encoding="UTF-8" standalone="no"?>
<svg
   xmlns:dc="http://purl.org/dc/elements/1.1/"
   xmlns:cc="http://creativecommons.org/ns#"
   xmlns:rdf="http://www.w3.org/1999/02/22-rdf-syntax-ns#"
   xmlns:svg="http://www.w3.org/2000/svg"
   xmlns="http://www.w3.org/2000/svg"
   xmlns:sodipodi="http://sodipodi.sourceforge.net/DTD/sodipodi-0.dtd"
   xmlns:inkscape="http://www.inkscape.org/namespaces/inkscape"
   width="568"
   height="801"
   id="svg2"
   version="1.1"
   inkscape:version="0.91 r13725"
   sodipodi:docname="face3.svg">
  <metadata
     id="metadata10">
    <rdf:RDF>
      <cc:Work
         rdf:about="">
        <dc:format>image/svg+xml</dc:format>
        <dc:type
           rdf:resource="http://purl.org/dc/dcmitype/StillImage" />
        <dc:title></dc:title>
      </cc:Work>
    </rdf:RDF>
  </metadata>
  <defs
     id="defs8" />
  <sodipodi:namedview
     pagecolor="#ffffff"
     bordercolor="#666666"
     borderopacity="1"
     objecttolerance="10"
     gridtolerance="10"
     guidetolerance="10"
     inkscape:pageopacity="0"
     inkscape:pageshadow="2"
     inkscape:window-width="1448"
     inkscape:window-height="794"
     id="namedview6"
     showgrid="false"
     inkscape:zoom="0.29463171"
     inkscape:cx="284"
     inkscape:cy="400.5"
     inkscape:window-x="40"
     inkscape:window-y="63"
     inkscape:window-maximized="0"
     inkscape:current-layer="svg2" />
  <path
     style="stroke:#000000; fill:none;"
     d="m 211,175 c -0.527,-3.862 -5.762,-20.569 -2.933,-23.093 2.918,-2.604 16.348,9.85 18.933,11.701 10.372,7.429 23.295,3.827 36,6.866 2.984,0.714 11.806,3.055 14.469,1.359 2.474,-1.575 -0.272,-5.945 -0.922,-7.833 -2.41,-7.007 -1.037,-14.77 -0.378,-22 0.563,-6.175 -0.299,-13.254 2.953,-18.83 2.151,-3.688 6.417,-5.815 8.368,-9.545 1.563,-2.989 0.995,-6.624 2.534,-9.625 3.143,-6.13 10.855,-10.873 16.976,-13.5602 9.272,-4.07 17.962,-0.4526 27,2.5602 1.941,0.647 8.902,1.8162 8.946,4.51 0.095,5.781 -10.575,19.05 -2.977,25.453 1.812,1.527 4.999,-4.386 6.174,-5.311 3.824,-3.008 8.434,-2.389 12.857,-1.313 13.216,3.218 28.354,11.022 40,17.97 5.163,3.079 12.518,10.263 18.999,9.787 C 433.802,142.934 411.714,126.013 408,123.509 390.569,111.759 365.842,100.589 345,97"
     id="path4454" />
  <path
     style="stroke:#000000; fill:none;"
     d="m 316,89 8.001,20 4.038,5.944 L 337,104"
     id="path4452" />
  <path
     style="stroke:#000000; fill:none;"
     d="m 236,167 c 5.197,-3.763 0.767,-10.531 1.049,-16 0.71,-13.753 -1.263,-24.098 8.331,-35.996 5.861,-7.27 14.861,-13.028 23.62,-16.1383 2.318,-0.8232 7.086,-2.9057 9.306,-0.9621 2.241,1.961 -2.654,16.0404 1.192,16.0404 2.969,0 6.485,-8.289 9.502,-9.944"
     id="path4450" />
  <path
     style="stroke:#000000; fill:none;"
     d="m 279,116 0,4"
     id="path4448" />
  <path
     style="stroke:#000000; fill:none;"
     d="m 289,116 c 6.369,14.861 17.126,28.271 25.611,42 1.988,3.216 6.366,13.686 9.417,15.167 1.7,0.825 6.783,-1.167 8.972,-1.167 3.919,0 11.632,2.357 14.861,-0.361 5.358,-4.509 -1.729,-16.616 -2.694,-21.639 -0.347,-1.802 0.806,-5.444 -0.861,-6.556 -1.463,-0.975 1.658,4.344 0.694,2.556"
     id="path4446" />
  <path
     style="stroke:#000000; fill:none;"
     d="m 179,117 c -3.813,7.443 -7.63,15.757 -4.334,23.999 0.65,1.625 1.726,5.651 3.883,5.838 2.331,0.203 5.26,-2.324 7.451,-3.048 10.132,-3.353 16.067,-2.326 22,6.211"
     id="path4444" />
  <path
     style="stroke:#000000; fill:none;"
     d="m 328,117 c 0.524,7.824 14.251,25.592 11,9"
     id="path4442" />
  <path
     style="stroke:#000000; fill:none;"
     d="m 174,124 3,-4"
     id="path4440" />
  <path
     style="stroke:#000000; fill:none;"
     d="m 250,121 -2,13"
     id="path4438" />
  <path
     style="stroke:#000000; fill:none;"
     d="m 327,123 -5,44"
     id="path4436" />
  <path
     style="stroke:#000000; fill:none;"
     d="m 174,124 c -2.204,3.175 -2.637,4.479 -1,8"
     id="path4434" />
  <path
     style="stroke:#000000; fill:none;"
     d="m 247,129 0,-4"
     id="path4432" />
  <path
     style="stroke:#000000; fill:none;"
     d="m 343,125 -2,8"
     id="path4430" />
  <path
     style="stroke:#000000; fill:none;"
     d="m 245,127 -7,17"
     id="path4428" />
  <path
     style="stroke:#000000; fill:none;"
     d="m 340,128 2,0"
     id="path4426" />
  <path
     style="stroke:#000000; fill:none;"
     d="m 205,141 17.999,-7.765 5.988,-2.318 L 236,155"
     id="path4424" />
  <path
     style="stroke:#000000; fill:none;"
     d="m 270,163 c 0.083,-0.071 -1.767,2.184 -2,0.639 -1.279,-8.495 0.599,-28.292 8,-33.639"
     id="path4422" />
  <path
     style="stroke:#000000; fill:none;"
     d="m 170,131 c -1.789,7.826 -6.091,28.866 7,17"
     id="path4420" />
  <path
     style="stroke:#000000; fill:none;"
     d="m 342,132 -2,4"
     id="path4418" />
  <path
     style="stroke:#000000; fill:none;"
     d="m 343,135 c 0.412,2.165 -0.068,4.643 -2,2"
     id="path4416" />
  <path
     style="stroke:#000000; fill:none;"
     d="m 206,136 0,3"
     id="path4414" />
  <path
     style="stroke:#000000; fill:none;"
     d="m 248,136 19,28"
     id="path4412" />
  <path
     style="stroke:#000000; fill:none;"
     d="m 345,139 -3,2"
     id="path4410" />
  <path
     style="stroke:#000000; fill:none;"
     d="m 425,140 c 3.314,1.868 4.406,4.505 6.309,7.714 2.374,4.002 6.46,9.322 6.111,14.286 -0.543,7.722 -13.248,17.898 -17.79,24 -2.782,3.737 -9.338,16.791 -14.546,16.793 -2.88,0.002 -5.267,-4.523 -7.258,-6.184 -5.644,-4.711 -12.584,-8.657 -18.826,-12.545 -1.639,-1.021 -6.944,-3.093 -6.944,-5.476 0,-1.709 5.074,-0.568 5.943,-0.458 6.909,0.875 12.749,-8.964 6.749,-14.164 -6.171,-5.347 -16.47,-7.132 -23.748,-10.722 -3.138,-1.548 -7.236,-5.093 -10.696,-5.509 -1.984,-0.239 -2.584,1.872 -3.304,3.265"
     id="path4408" />
  <path
     style="stroke:#000000; fill:none;"
     d="m 409,141 c -12.75,6.918 -15.917,9.342 -22,23"
     id="path4406" />
  <path
     style="stroke:#000000; fill:none;"
     d="m 346,144 2,2"
     id="path4404" />
  <path
     style="stroke:#000000; fill:none;"
     d="m 411,144 c -3.179,8.259 0.909,6.801 6,2"
     id="path4402" />
  <path
     style="stroke:#000000; fill:none;"
     d="m 419,145 11,5"
     id="path4400" />
  <path
     style="stroke:#000000; fill:none;"
     d="m 179,148 c 13.7,13.7 29.436,27.974 50,17"
     id="path4398" />
  <path
     style="stroke:#000000; fill:none;"
     d="m 349,152 -2,3"
     id="path4396" />
  <path
     style="stroke:#000000; fill:none;"
     d="m 169,154 c -0.263,5.541 -1.179,14.388 3.499,18.501 5.241,4.607 21.38,-1.534 26.501,-4.501"
     id="path4394" />
  <path
     style="stroke:#000000; fill:none;"
     d="m 21,155 1,0"
     id="path4392" />
  <path
     style="stroke:#000000; fill:none;"
     d="m 174,176 c -9.152,1.019 -15.061,-15.426 -6,-18"
     id="path4390" />
  <path
     style="stroke:#000000; fill:none;"
     d="m 163,459 c -0.59,2.094 -4.475,20.534 -7.08,18.793 -2.891,-1.931 -0.63,-15.615 -0.479,-18.793 0.916,-19.374 -0.986,-33.622 -7.108,-52 -10.568,-31.729 -26.85,-61.79 -32.718,-95 -3.932,-22.254 -2.173,-47.656 0.219,-70 1.028,-9.596 1.65,-19.365 1.907,-29 0.106,-3.969 -1.568,-8.103 -0.138,-12 1.663,-4.53 6.536,-8.433 9.682,-12 9.599,-10.883 23.79,-23.331 36.715,-30"
     id="path4388" />
  <path
     style="stroke:#000000; fill:none;"
     d="m 269,165 3,4"
     id="path4386" />
  <path
     style="stroke:#000000; fill:none;"
     d="m 389,166 c 1.875,1.915 13.8,13.88 8.381,16.593 -1.689,0.846 -9.881,-3.308 -10.125,-0.897 -0.517,5.117 9.276,9.184 10.744,14.304"
     id="path4384" />
  <path
     style="stroke:#000000; fill:none;"
     d="m 294,168 c -0.462,1.866 -2.583,5.336 -2.113,7.194 0.379,1.498 7.478,2.255 2.113,-2.194"
     id="path4382" />
  <path
     style="stroke:#000000; fill:none;"
     d="m 203,169 7,5"
     id="path4380" />
  <path
     style="stroke:#000000; fill:none;"
     d="m 171,172 -2,2"
     id="path4378" />
  <path
     style="stroke:#000000; fill:none;"
     d="m 350,172 c 2.961,4.567 14.626,4.891 20,6"
     id="path4376" />
  <path
     style="stroke:#000000; fill:none;"
     d="m 281,173 6,2"
     id="path4374" />
  <path
     style="stroke:#000000; fill:none;"
     d="m 288,174 3,0"
     id="path4372" />
  <path
     style="stroke:#000000; fill:none;"
     d="m 302,174 -4,2"
     id="path4370" />
  <path
     style="stroke:#000000; fill:none;"
     d="m 303,175 19,-1"
     id="path4368" />
  <path
     style="stroke:#000000; fill:none;"
     d="m 350,174 -23,1"
     id="path4366" />
  <path
     style="stroke:#000000; fill:none;"
     d="m 287,176 3,2"
     id="path4364" />
  <path
     style="stroke:#000000; fill:none;"
     d="m 173,177 8,7"
     id="path4362" />
  <path
     style="stroke:#000000; fill:none;"
     d="m 290,178 c -0.716,3.142 -2.312,6.774 -0.782,9.896 1.372,2.798 5.805,4.448 5.046,8.058 -1.588,7.551 -17.671,16.298 -14.051,24.938 1.367,3.264 8.878,6.547 11.198,2.631 3.281,-5.536 4.244,-18.502 2.589,-24.523"
     id="path4360" />
  <path
     style="stroke:#000000; fill:none;"
     d="m 296,178 0,13"
     id="path4358" />
  <path
     style="stroke:#000000; fill:none;"
     d="m 408,205 c 7.655,21.228 12.77,42.935 20.902,64 2.159,5.592 2.741,17.463 -1.219,22.497 -4.079,5.184 -20.629,-8.481 -25.442,1.922 -1.592,3.441 8.223,27.504 11.813,26.825 C 419.291,319.253 425.723,299.086 427,294"
     id="path4356" />
  <path
     style="stroke:#000000; fill:none;"
     d="M 292,225 289.515,236.001 286,271"
     id="path4354" />
  <path
     style="stroke:#000000; fill:none;"
     d="m 291,226 0,2"
     id="path4352" />
  <path
     style="stroke:#000000; fill:none;"
     d="m 288,235 1,-2"
     id="path4350" />
  <path
     style="stroke:#000000; fill:none;"
     d="m 270,252 c -1.952,-5.276 12.803,-15.047 17,-18"
     id="path4348" />
  <path
     style="stroke:#000000; fill:none;"
     d="m 129,305 c 4.363,-6.699 5.307,-12.708 15,-13 1.455,-0.044 6.371,-0.689 6.944,1.25 0.542,1.832 -14.822,12.589 -16.722,14.75 -0.792,0.901 -2.893,4.446 -4.5,3.333 -3.525,-2.442 -2.152,-12.847 -1.805,-16.333 1.398,-14.044 7.939,-35.409 22.055,-42.556 3.666,-1.855 6.931,7.023 8.25,9.556 5.16,9.907 9.578,20.342 15.167,30 1.412,2.44 4.317,10.448 4.611,10"
     id="path4346" />
  <path
     style="stroke:#000000; fill:none;"
     d="M 189,333 206.127,301 219.465,275.318 237,270.42 267,252"
     id="path4344" />
  <path
     style="stroke:#000000; fill:none;"
     d="m 297,279 c 12.562,-17.833 30.167,-16.434 50,-17.015 5.839,-0.172 11.042,-2.123 17,-1.791 5.826,0.325 28.542,4.335 22.82,13.599 -0.53,0.858 -12.057,3.517 -13.417,3.322 -2.091,-0.3 -1.841,-3.689 -3.756,-4.583 -6.434,-3.002 -22.381,-4.341 -29.647,-4.353 -15.379,-0.025 -32.051,4.397 -44.441,13.772 -2.691,2.036 -3.722,6.417 -6.027,8.976 C 286.265,294.554 280.9,296.92 277,300"
     id="path4342" />
  <path
     style="stroke:#000000; fill:none;"
     d="m 364,262 7,8"
     id="path4340" />
  <path
     style="stroke:#000000; fill:none;"
     d="m 371,262 0,4"
     id="path4338" />
  <path
     style="stroke:#000000; fill:none;"
     d="m 380,267 1,6"
     id="path4336" />
  <path
     style="stroke:#000000; fill:none;"
     d="m 401,294 c -12.096,-19.662 14.212,-21 27,-21"
     id="path4334" />
  <path
     style="stroke:#000000; fill:none;"
     d="m 285,275 1,3"
     id="path4332" />
  <path
     style="stroke:#000000; fill:none;"
     d="m 281,300 c 20.668,-7.925 43.239,-20.536 66,-20.444 10.039,0.041 22.039,2.595 32,4.444"
     id="path4330" />
  <path
     style="stroke:#000000; fill:none;"
     d="m 296,283 -3,1"
     id="path4328" />
  <path
     style="stroke:#000000; fill:none;"
     d="m 353,283 c 1.419,4.802 2.375,16.187 -5.001,16.963 -2.454,0.258 -5.385,-3.886 -7.454,-2.779 -2.377,1.271 1.844,3.486 2.455,3.816"
     id="path4326" />
  <path
     style="stroke:#000000; fill:none;"
     d="m 284,294 9,-10"
     id="path4324" />
  <path
     style="stroke:#000000; fill:none;"
     d="m 291,285 2,2"
     id="path4322" />
  <path
     style="stroke:#000000; fill:none;"
     d="m 284,290 2,-1"
     id="path4320" />
  <path
     style="stroke:#000000; fill:none;"
     d="m 153,292 c 6.479,1.705 20.25,18.116 13.997,25.364 -2.086,2.418 -8.624,-4.575 -5.997,-7.364"
     id="path4318" />
  <path
     style="stroke:#000000; fill:none;"
     d="m 160,293 c 6.926,1.951 11.099,3.525 16,9"
     id="path4316" />
  <path
     style="stroke:#000000; fill:none;"
     d="m 335,297 4,-2"
     id="path4314" />
  <path
     style="stroke:#000000; fill:none;"
     d="m 304,297 13,7"
     id="path4312" />
  <path
     style="stroke:#000000; fill:none;"
     d="m 329,298 1,-1"
     id="path4310" />
  <path
     style="stroke:#000000; fill:none;"
     d="m 315,298 9,1"
     id="path4308" />
  <path
     style="stroke:#000000; fill:none;"
     d="m 318,300 -2,2"
     id="path4306" />
  <path
     style="stroke:#000000; fill:none;"
     d="m 179,301 -1,1"
     id="path4304" />
  <path
     style="stroke:#000000; fill:none;"
     d="m 350,301 6,3"
     id="path4302" />
  <path
     style="stroke:#000000; fill:none;"
     d="m 180,303 -2,2"
     id="path4300" />
  <path
     style="stroke:#000000; fill:none;"
     d="m 182,307 -3,0"
     id="path4298" />
  <path
     style="stroke:#000000; fill:none;"
     d="m 182,307 8,23"
     id="path4296" />
  <path
     style="stroke:#000000; fill:none;"
     d="m 193,327 c -1.434,-5.68 -0.284,-22.591 8,-16"
     id="path4294" />
  <path
     style="stroke:#000000; fill:none;"
     d="m 180,308 3,6"
     id="path4292" />
  <path
     style="stroke:#000000; fill:none;"
     d="m 172,351 c 0.195,-2.474 0.284,-14.46 4.906,-12.079 7.611,3.922 -6.98,18.698 -13.906,16.181 -14.183,-5.154 -27.714,-42.858 -5,-44.102"
     id="path4290" />
  <path
     style="stroke:#000000; fill:none;"
     d="m 202,311 c 19.09,15.792 46.984,19.934 70,26.975 6.803,2.082 20.418,2.328 25.436,7.539 5.492,5.702 6.005,21.851 7.938,29.486 5.226,20.638 11.97,40.977 15.545,62 1.732,10.184 2.949,28.542 9.924,36.601 3.086,3.565 11.02,2.048 15.157,1.465 11.502,-1.624 43.059,-6.31 45.408,12.577 0.446,3.582 -13.438,-1.352 -15.408,-1.539 -11.906,-1.131 -36.96,0.273 -45,-9.104"
     id="path4288" />
  <path
     style="stroke:#000000; fill:none;"
     d="m 129,314 c 1.762,21.568 13.89,45.832 31,58.87 4.011,3.056 11.47,11.079 16.985,10.044 7.682,-1.441 8.238,-20.355 4.987,-25.686 -1.773,-2.907 -6.153,-3.655 -8.972,-5.228"
     id="path4286" />
  <path
     style="stroke:#000000; fill:none;"
     d="m 166,320 8,16"
     id="path4284" />
  <path
     style="stroke:#000000; fill:none;"
     d="m 169,320 0,3"
     id="path4282" />
  <path
     style="stroke:#000000; fill:none;"
     d="m 412,322 c 0.249,4.932 2.718,13.691 5.528,17.778 2.715,3.949 7.686,4.815 8.389,10.222 0.715,5.504 -3.556,8.167 -4.361,13 -2.493,14.953 -4.021,30.781 -6.945,46 -0.654,3.405 -3.436,15.62 -9.194,13.944 -1.755,-0.51 -0.741,-8.038 3.583,-5.416 6.961,4.22 -0.601,21.44 -2.556,27.472 -0.64,1.975 -0.888,7.282 -3.555,7.639 -2.458,0.329 -6.697,-3.098 -8.889,-4.195 -5.928,-2.963 -11.465,-4.966 -18,-6.055 -1.321,-0.22 -8.556,0.201 -8.556,-1.639 0,-5.436 16.112,-3.854 16.112,-7.667 0,-2.259 -8.13,-2.091 -9.556,-2.305 -7.617,-1.146 -19.223,-3.55 -24.972,-8.861 -1.523,-1.408 -5.611,-5.189 -4.361,-7.584 1.319,-2.528 5.03,-0.469 6.666,-2.083 1.627,-1.605 -2.402,-1.248 -2.333,-1.25"
     id="path4280" />
  <path
     style="stroke:#000000; fill:none;"
     d="m 192,326 -3,3"
     id="path4278" />
  <path
     style="stroke:#000000; fill:none;"
     d="m 408,331 8,8"
     id="path4276" />
  <path
     style="stroke:#000000; fill:none;"
     d="m 400,358 c 0.745,-3.951 -7.281,-4.588 -10,-4.975 -6.593,-0.94 -19.877,16.058 -25.044,9.321 -3.284,-4.282 6.48,-10.807 9.044,-12.907 5.688,-4.657 13.489,-7.694 21,-7.295 10.399,0.553 12.142,6.073 22,-1.144"
     id="path4274" />
  <path
     style="stroke:#000000; fill:none;"
     d="m 180,343 2,2"
     id="path4272" />
  <path
     style="stroke:#000000; fill:none;"
     d="m 391,354 c -0.496,6.224 9.75,3.164 13.883,5.438 3.704,2.038 0.578,4.016 -0.883,-0.438"
     id="path4270" />
  <path
     style="stroke:#000000; fill:none;"
     d="m 390,358 c -4.848,2.82 -6.478,-0.823 -1,-2"
     id="path4268" />
  <path
     style="stroke:#000000; fill:none;"
     d="m 401,360 c -2.905,2.978 -1.849,3.897 2,4"
     id="path4266" />
  <path
     style="stroke:#000000; fill:none;"
     d="m 409,362 12,-2"
     id="path4264" />
  <path
     style="stroke:#000000; fill:none;"
     d="m 394,364 3,-1"
     id="path4262" />
  <path
     style="stroke:#000000; fill:none;"
     d="m 155,377 c 0.568,13.238 5.841,33.861 0,46"
     id="path4260" />
  <path
     style="stroke:#000000; fill:none;"
     d="m 187,384 -6,26"
     id="path4258" />
  <path
     style="stroke:#000000; fill:none;"
     d="m 350,410 c 10.034,-8.552 30.263,-21.718 44,-21.973 9.904,-0.184 22.675,3.316 15.012,15.844 -1.044,1.708 -6.063,10.015 -7.379,10.662 -4.574,2.247 -14.642,-2.092 -19.633,-2.558 -2.09,-0.196 -12.944,-0.113 -12.944,-3.065 0,-2.975 6.042,-3.034 7.944,-3.175 8.552,-0.638 16.623,-1.793 24,3.265"
     id="path4256" />
  <path
     style="stroke:#000000; fill:none;"
     d="m 190,388 c 0.645,3.46 0.44,14.985 3.653,16.813 2.687,1.53 4.454,-2.143 7.221,1.354 6.063,7.664 8.303,16.907 16.13,23.507 18.999,16.022 48.804,22.976 70.996,34.079 10.436,5.221 20.824,10.454 31,16.156 2.875,1.611 8.915,6.666 12.357,6.015 1.92,-0.362 0.822,-3.796 0.643,-4.924"
     id="path4254" />
  <path
     style="stroke:#000000; fill:none;"
     d="m 412,396 3,0"
     id="path4252" />
  <path
     style="stroke:#000000; fill:none;"
     d="m 196,407 0,41"
     id="path4250" />
  <path
     style="stroke:#000000; fill:none;"
     d="m 193,408 0,2"
     id="path4248" />
  <path
     style="stroke:#000000; fill:none;"
     d="m 367,411 0,-2"
     id="path4246" />
  <path
     style="stroke:#000000; fill:none;"
     d="m 396,409 2,0"
     id="path4244" />
  <path
     style="stroke:#000000; fill:none;"
     d="m 403,409 1,1"
     id="path4242" />
  <path
     style="stroke:#000000; fill:none;"
     d="m 354,413 11,-3"
     id="path4240" />
  <path
     style="stroke:#000000; fill:none;"
     d="m 405,410 8,4"
     id="path4238" />
  <path
     style="stroke:#000000; fill:none;"
     d="m 180,412 0,1"
     id="path4236" />
  <path
     style="stroke:#000000; fill:none;"
     d="m 338,412 6,1"
     id="path4234" />
  <path
     style="stroke:#000000; fill:none;"
     d="m 341,414 1,1"
     id="path4232" />
  <path
     style="stroke:#000000; fill:none;"
     d="m 178,416 -5,12"
     id="path4230" />
  <path
     style="stroke:#000000; fill:none;"
     d="m 403,425 c -4.854,7.733 -9.456,8 -18,8"
     id="path4228" />
  <path
     style="stroke:#000000; fill:none;"
     d="m 172,431 0,1"
     id="path4226" />
  <path
     style="stroke:#000000; fill:none;"
     d="m 398,432 4,2"
     id="path4224" />
  <path
     style="stroke:#000000; fill:none;"
     d="m 171,434 0,1"
     id="path4222" />
  <path
     style="stroke:#000000; fill:none;"
     d="m 170,438 -5,16"
     id="path4220" />
  <path
     style="stroke:#000000; fill:none;"
     d="m 362,442 4,-1"
     id="path4218" />
  <path
     style="stroke:#000000; fill:none;"
     d="m 403,454 c 0,9.468 3.156,19.942 -0.478,29 -10.246,25.536 -49.879,13.168 -70.522,10.424 -5.659,-0.752 -11.326,-0.088 -17,-0.424"
     id="path4216" />
  <path
     style="stroke:#000000; fill:none;"
     d="m 156,480 c -0.544,12.664 -4.141,25.412 -2.08,38 0.451,2.759 0.256,9.286 2.822,11.006 7.725,5.179 16.932,-10.994 18.541,-16.004 0.196,-0.609 1.986,-6.794 3.222,-4.366 1.997,3.925 -1.052,10.501 -2.03,14.364 -2.966,11.709 -6.895,23.071 -9.051,35 -0.656,3.631 -3.706,12.369 -0.781,15.382 3.166,3.261 10.008,-0.875 13.357,-2.038 11.802,-4.097 24.476,-10.252 37,-11.344"
     id="path4214" />
  <path
     style="stroke:#000000; fill:none;"
     d="m 146,481 c 0.726,5.718 0.634,21.838 7,23"
     id="path4212" />
  <path
     style="stroke:#000000; fill:none;"
     d="m 334,488 0,1"
     id="path4210" />
  <path
     style="stroke:#000000; fill:none;"
     d="m 318,495 7,8"
     id="path4208" />
  <path
     style="stroke:#000000; fill:none;"
     d="m 173,503 5,3"
     id="path4206" />
  <path
     style="stroke:#000000; fill:none;"
     d="m 148,505 c 0,7.496 -0.837,14.586 -1.87,22 -0.273,1.964 -1.731,6.402 -0.487,8.172 2.264,3.224 8.566,-6.126 10.938,0.902 4.064,12.042 1.151,26.619 7.419,37.926"
     id="path4204" />
  <path
     style="stroke:#000000; fill:none;"
     d="m 328,505 c -4.687,5.33 -12.476,5.167 -19,7"
     id="path4202" />
  <path
     style="stroke:#000000; fill:none;"
     d="m 343,506 c 2.843,4.055 3.578,10.004 6.819,13.532 6.273,6.829 19.69,14.537 28.181,18.556 5.773,2.732 23.072,5.203 24.971,12.125 0.978,3.563 -0.733,8.159 -0.936,11.787 -0.914,16.427 -6.288,30.45 -15.622,44 -18.85,27.363 -40.002,45.865 -69.413,61.297 -12.245,6.425 -25.021,12.656 -39,13.614 -15.446,1.057 -31.119,-7.674 -44,-15.308 C 204.035,647.847 164.141,625.46 146.904,594 c -6.431,-11.738 -5.513,-25.171 -6.734,-38 -0.286,-3.001 1.447,-11.747 -0.381,-13.964 -1.788,-2.171 -1.813,2.705 -1.789,2.964"
     id="path4200" />
  <path
     style="stroke:#000000; fill:none;"
     d="m 342,508 c 0,15.18 2.063,43.174 -6.803,56 -17.351,25.099 -54.186,31.136 -82.197,33.211 -9.498,0.703 -19.575,1.854 -29,-0.019 -10.825,-2.151 -19.833,-7.908 -30,-11.647 -9.517,-3.501 -22.81,-4.655 -31,-10.545"
     id="path4198" />
  <path
     style="stroke:#000000; fill:none;"
     d="m 219,559 c 21.178,0.058 45.915,19.12 65.985,4.945 8.084,-5.709 18.084,-19.616 10.671,-28.945 -2.576,-3.241 -13.736,-10.426 -13.025,-14.79 0.956,-5.864 19.682,-7.301 24.369,-8.21"
     id="path4196" />
  <path
     style="stroke:#000000; fill:none;"
     d="m 278,520 3,0"
     id="path4194" />
  <path
     style="stroke:#000000; fill:none;"
     d="m 351,522 c 1.511,35.19 -13.709,66.912 -31.09,97 -6.117,10.59 -13.882,20.18 -19.676,31 -1.689,3.154 -5.791,8.728 -4.955,12.534 0.694,3.158 6.911,-4.737 7.575,-5.534 5.674,-6.809 11.273,-15.375 15.795,-23 C 334.184,607.804 353,575.968 353,545"
     id="path4192" />
  <path
     style="stroke:#000000; fill:none;"
     d="m 63,573 c 0,15.436 -3.429,30.613 -3.429,46 0,20.073 1.9184,40.068 2.4143,60 0.2172,8.725 1.5554,17.254 1.2045,26 -0.112,2.792 -1.2974,7.988 1.2979,9.972 5.8904,4.503 24.4927,0.866 31.5123,0.198 21.06,-2.004 43.708,2.83 65,2.83 20.678,0 41.346,2 62,2 28.021,0 56.022,-1.963 84,-1.536 34.866,0.531 69.08,4.104 104,2.575 19.76,-0.865 39.233,-0.039 59,-0.039 6.663,0 18.082,1.602 23.682,-2.858 4.786,-3.812 3.059,-21.08 3.894,-27.142 3.752,-27.238 10.199,-61.689 5.196,-88.999 -1.423,-7.764 -10.423,-9.262 -16.772,-11.331 -18.565,-6.051 -34.326,-15.086 -52,-23.083 -3.505,-1.586 -16.774,-11.224 -20.111,-9.219 -1.91,1.148 -1.152,8.533 -1.479,10.632 -1.596,10.243 -4.323,20.25 -7.845,30 -11.208,31.025 -26.028,61.043 -52.569,82.181 -17.043,13.574 -39.717,18.613 -60.996,19.848 -13.884,0.805 -27.153,3.44 -41,0.071 -37.234,-9.057 -60.856,-33.362 -83.666,-62.1 -16.723,-21.069 -33.19,-46.151 -38.526,-73 -1.297,-6.523 -1.677,-14.122 1.992,-19.961 2.208,-3.513 9.446,-15.964 10.2,-6.039"
     id="path4190" />
  <path
     style="stroke:#000000; fill:none;"
     d="m 145,537 -4,4"
     id="path4188" />
  <path
     style="stroke:#000000; fill:none;"
     d="m 129,546 c -9.287,1.65 -18.081,7.222 -27,10.343 -1.543,0.54 -7.4115,3.659 -8.7932,1.91 -1.5558,-1.969 7.6252,-5.914 8.7932,-6.5 8.45,-4.235 19.234,-10.75 29,-8.753"
     id="path4186" />
  <path
     style="stroke:#000000; fill:none;"
     d="m 135,543 1,0"
     id="path4184" />
  <path
     style="stroke:#000000; fill:none;"
     d="M 65,568 91,558"
     id="path4182" />
  <path
     style="stroke:#000000; fill:none;"
     d="m 92,559 -4,1"
     id="path4180" />
  <path
     style="stroke:#000000; fill:none;"
     d="m 293,666 0,1"
     id="path4178" />
  <path
     style="stroke:#000000; fill:none;"
     d="m 334,753 c 11.185,-5.52 10.311,12.151 16.753,17.248 2.917,2.309 6.249,-3.31 10.247,-0.248"
     id="path4176" />
  <path
     style="stroke:#000000; fill:none;"
     d="m 434,753 c 0,10.192 0.252,17.685 11,21"
     id="path4174" />
  <path
     style="stroke:#000000; fill:none;"
     d="m 386,770 c -0.833,5.385 3.925,4.025 5.382,-0.02 1.668,-4.63 -3.959,-16.291 4.618,-14.98"
     id="path4172" />
  <path
     style="stroke:#000000; fill:none;"
     d="M 405,754 403.312,769.817 410,772"
     id="path4170" />
  <path
     style="stroke:#000000; fill:none;"
     d="m 425,754 3,0"
     id="path4168" />
  <path
     style="stroke:#000000; fill:none;"
     d="m 339,757 c -1.5,6.328 -3.425,12.71 -10,15"
     id="path4166" />
  <path
     style="stroke:#000000; fill:none;"
     d="m 460,758 c 10.852,3.083 4.31,12.124 -3,15"
     id="path4164" />
  <path
     style="stroke:#000000; fill:none;"
     d="m 487,761 1,13"
     id="path4162" />
  <path
     style="stroke:#000000; fill:none;"
     d="m 431,762 8,0"
     id="path4160" />
  <path
     style="stroke:#000000; fill:none;"
     d="m 491,773 c 0.926,3.447 4.578,4.217 6.046,0.116 0.942,-2.632 -2.895,-3.957 -3.486,-6.25 C 492.021,760.886 501.741,762 505,762"
     id="path4158" />
  <path
     style="stroke:#000000; fill:none;"
     d="m 471,764 c 4.442,-0.986 11.673,3.579 7.378,8.633 -3.574,4.205 -12.589,1.685 -16.378,-0.633"
     id="path4156" />
  <path
     style="stroke:#000000; fill:none;"
     d="m 362,767 c 2.939,-1.949 4.366,-0.946 6,2"
     id="path4154" />
  <path
     style="stroke:#000000; fill:none;"
     d="m 350,766 5,2"
     id="path4152" />
  <path
     style="stroke:#000000; fill:none;"
     d="m 336,771 12,-4"
     id="path4150" />
  <path
     style="stroke:#000000; fill:none;"
     d="m 396,767 c 0.209,2.858 0.174,4 3,4"
     id="path4148" />
  <path
     style="stroke:#000000; fill:none;"
     d="m 427,767 0,4"
     id="path4146" />
  <path
     style="stroke:#000000; fill:none;"
     d="m 375,768 -4,4"
     id="path4144" />
  <path
     style="stroke:#000000; fill:none;"
     d="m 413,771 c 3.137,-2.114 6.77,-2.273 9,1"
     id="path4142" />
  <path
     style="stroke:#000000; fill:none;"
     d="m 440,772 -2,2"
     id="path4140" />
  <path
     style="stroke:#000000; fill:none;"
     d="m 473,772 0,1"
     id="path4" />
</svg>
