<?xml version="1.0" encoding="UTF-8" standalone="no"?>
<svg
   xmlns:dc="http://purl.org/dc/elements/1.1/"
   xmlns:cc="http://creativecommons.org/ns#"
   xmlns:rdf="http://www.w3.org/1999/02/22-rdf-syntax-ns#"
   xmlns:svg="http://www.w3.org/2000/svg"
   xmlns="http://www.w3.org/2000/svg"
   width="600"
   height="600"
   viewBox="0 0 600.00001 600.00001"
   id="svg5922"
   version="1.1">
  <defs
     id="defs5924" />
  <metadata
     id="metadata5927">
    <rdf:RDF>
      <cc:Work
         rdf:about="">
        <dc:format>image/svg+xml</dc:format>
        <dc:type
           rdf:resource="http://purl.org/dc/dcmitype/StillImage" />
        <dc:title></dc:title>
      </cc:Work>
    </rdf:RDF>
  </metadata>
  <path
     id="path19980"
     d="m 299.30999,548.71847 c 9.49698,-80.94179 39.51931,-141.75561 34.43,-180.30447 -5.72998,-37.90819 -19.24856,-102.42166 24.46342,-89.69921 -7.86242,-8.41984 -25.69762,-8.88783 -45.67793,3.94456 20.06194,26.28656 0.76946,33.29627 0.37531,-3.94456 0,0 3.82196,-66.75585 92.41736,-47.11473 18.12105,3.62421 45.81452,9.69177 57.66703,-12.47432 -29.15076,14.67278 -49.44818,1.71161 -67.63361,-2.02253 -11.77869,-1.8121 -55.83606,-6.76481 -77.01447,21.74526 24.95026,-99.6251 -11.94518,-133.02322 9.06053,-181.210506 -38.25682,18.122669 11.91689,85.264576 -26.27553,183.928676 -38.19241,-99.62511 5.93097,-156.269686 -25.36948,-184.834734 16.42992,48.636414 -20.16403,110.946584 9.96659,183.022624 -23.04547,-31.07278 -57.82249,-21.17842 -80.63868,-18.12106 -21.34583,2.86034 -47.85591,15.99024 -67.95394,-1.8121 14.81879,53.95338 124.2736,-46.70818 151.20086,59.79004 0.009,34.98985 -18.33003,29.72258 -0.81671,2.57213 -25.16321,-15.91599 -39.60313,-6.58026 -43.46996,-2.5627 41.27808,-13.74785 28.07821,47.49786 25.15906,90.16557 -3.88014,34.97962 26.52366,98.27127 30.11015,178.93206 z"
     style="fill:none;fill-rule:evenodd;stroke:#ef0db6;stroke-width:1.26847363px;stroke-linecap:butt;stroke-linejoin:miter;stroke-opacity:1" />
  <path
     id="path20001"
     d="m 344.39333,233.51423 c 26.58806,-3.52372 61.22486,22.86865 24.98637,96.10138 -28.98291,58.57026 50.61339,89.37429 54.13711,8.96947 1.04128,-23.76001 -24.02535,-92.25734 -31.71346,-109.55559"
     style="fill:none;fill-rule:evenodd;stroke:#e90dc4;stroke-width:1.26847363px;stroke-linecap:butt;stroke-linejoin:miter;stroke-opacity:1" />
  <path
     id="path20003"
     d="m 388.27964,215.57529 c -23.38467,-96.42172 41.45746,-160.774318 119.48605,-98.02341 78.25603,62.93382 97.14602,-11.7352 71.7557,-36.198191 -18.0394,-17.380575 -48.69137,-21.14231 -52.21508,-3.523719 -9.2898,5.766088 -70.79469,-4.805066 -74.95909,-11.852503 31.07279,5.125407 72.11175,-15.108205 80.72517,-14.094873 -1.28135,10.571155 15.20958,-0.257931 44.52699,18.579612 51.35089,32.994864 6.25939,130.822194 -76.88112,53.176104 C 454.21188,80.205352 369.3797,108.58241 401.41349,218.138"
     style="fill:none;fill-rule:evenodd;stroke:#e90dc4;stroke-width:1.26847363px;stroke-linecap:butt;stroke-linejoin:miter;stroke-opacity:1" />
  <path
     id="path20005"
     d="m 405.25755,231.27186 c 3.52372,15.69656 47.7947,91.45363 27.22873,139.66735 -25.67353,60.18754 -113.35049,21.22698 -77.20145,-44.52698 38.17367,-69.43671 -2.5627,-104.75052 -40.68293,-57.98118"
     style="fill:none;fill-rule:evenodd;stroke:#e90dc4;stroke-width:1.26847363px;stroke-linecap:butt;stroke-linejoin:miter;stroke-opacity:1" />
  <path
     id="path20001-5"
     d="m 256.2862,233.24556 c -26.58806,-3.52372 -61.90439,23.32168 -25.6659,96.55441 28.9829,58.57026 -50.61339,89.37429 -54.13711,8.96947 -1.04128,-23.76001 24.02534,-92.25734 31.71346,-109.55559"
     style="fill:none;fill-rule:evenodd;stroke:#e90dc4;stroke-width:1.26847363px;stroke-linecap:butt;stroke-linejoin:miter;stroke-opacity:1" />
  <path
     id="path20003-8"
     d="M 210.8143,220.51643 C 234.19896,124.0947 170.2629,54.985332 92.234316,117.73624 13.978286,180.67006 -4.9116963,106.00104 20.478617,81.538048 38.518024,64.157474 69.169991,60.395739 72.693696,78.01433 81.983502,83.780418 143.48837,73.209264 147.65277,66.161827 116.57999,71.287234 75.541039,51.053622 66.927621,52.066954 68.20897,62.638109 51.718039,51.809023 22.400633,70.646554 -28.95026,103.64143 16.141236,201.46876 99.281753,123.82267 145.78812,80.389712 229.94076,112.84401 197.90697,222.39961"
     style="fill:none;fill-rule:evenodd;stroke:#e90dc4;stroke-width:1.26847363px;stroke-linecap:butt;stroke-linejoin:miter;stroke-opacity:1" />
  <path
     id="path20005-6"
     d="m 194.74245,231.45622 c -3.52372,15.69656 -47.79471,91.45363 -27.22873,139.66735 25.67353,60.18754 113.35049,21.22698 77.20145,-44.52698 -38.17367,-69.43671 2.5627,-104.75052 40.68293,-57.98118"
     style="fill:none;fill-rule:evenodd;stroke:#e90dc4;stroke-width:1.26847363px;stroke-linecap:butt;stroke-linejoin:miter;stroke-opacity:1" />
  <path
     id="path20028"
     d="m 325.1325,205.32453 c 15.40289,-25.82249 20.48614,-52.69025 25.14295,-68.40697 5.43631,-18.34755 19.48014,-61.611573 45.30263,-57.987366 -29.57867,19.70665 -33.81343,50.893596 -38.05421,69.086516 -4.14575,17.78527 -15.17638,50.51243 -22.42479,63.19717 14.55348,-13.46342 36.01559,-25.82251 48.4738,-29.22021"
     style="fill:none;fill-rule:evenodd;stroke:#f114cf;stroke-width:1.26847363px;stroke-linecap:butt;stroke-linejoin:miter;stroke-opacity:1" />
  <path
     id="path20030"
     d="m 394.44551,177.46341 c 14.72335,-4.98329 38.50725,-25.59598 44.84961,-58.21387 2.03862,38.73374 -32.61789,62.0646 -43.71704,69.76605"
     style="fill:none;fill-rule:evenodd;stroke:#f114cf;stroke-width:1.26847363px;stroke-linecap:butt;stroke-linejoin:miter;stroke-opacity:1" />
  <path
     id="path20032"
     d="m 384.25243,194.4519 c -16.98849,6.34237 -27.86112,14.49684 -41.45191,25.82249"
     style="fill:none;fill-rule:evenodd;stroke:#f114cf;stroke-width:1.26847363px;stroke-linecap:butt;stroke-linejoin:miter;stroke-opacity:1" />
  <path
     id="path20028-7"
     d="m 275.70468,206.77312 c -15.40289,-25.8225 -20.48614,-52.69025 -25.14295,-68.40697 -5.43631,-18.34756 -19.48014,-61.611579 -45.30264,-57.987372 29.57868,19.706652 33.81344,50.893592 38.05421,69.086512 4.14575,17.78527 15.17639,50.51243 22.4248,63.19717 -14.55349,-13.46341 -37.37467,-26.50204 -49.83288,-29.89974"
     style="fill:none;fill-rule:evenodd;stroke:#f114cf;stroke-width:1.26847363px;stroke-linecap:butt;stroke-linejoin:miter;stroke-opacity:1" />
  <path
     id="path20030-9"
     d="m 205.03258,178.91199 c -14.72335,-4.98328 -37.14816,-25.59598 -43.49053,-58.21387 -2.03861,38.73375 31.48533,61.38507 42.58447,69.08652"
     style="fill:none;fill-rule:evenodd;stroke:#f114cf;stroke-width:1.26847363px;stroke-linecap:butt;stroke-linejoin:miter;stroke-opacity:1" />
  <path
     id="path20032-8"
     d="m 215.45218,195.44746 c 16.98849,6.34237 29.67323,13.59078 43.26401,24.91644"
     style="fill:none;fill-rule:evenodd;stroke:#f114cf;stroke-width:1.26847363px;stroke-linecap:butt;stroke-linejoin:miter;stroke-opacity:1" />
  <path
     id="path20055"
     d="m 330.13829,410.02044 c 2.24237,7.24336 6.2466,11.73749 13.9347,16.33724 -7.6881,0 -13.9347,2.40253 -19.38045,6.56693"
     style="fill:none;fill-rule:evenodd;stroke:#dc0ab1;stroke-width:1.26847363px;stroke-linecap:butt;stroke-linejoin:miter;stroke-opacity:1" />
  <path
     id="path20057"
     d="m 322.29002,443.97626 c 4.00422,15.53639 10.41098,19.06011 24.98636,18.25927 -11.372,13.77452 -5.44574,26.58804 8.00845,33.95583 -24.50586,2.88299 -23.06434,15.2161 -12.49319,24.9864 -26.74822,-9.45001 -36.51853,4.32448 -42.2846,18.09908"
     style="fill:none;fill-rule:evenodd;stroke:#dc0ab1;stroke-width:1.26847363px;stroke-linecap:butt;stroke-linejoin:miter;stroke-opacity:1" />
  <path
     id="path20055-0"
     d="m 272.64408,405.37337 c -2.24237,7.24337 -6.81289,17.06055 -14.50099,21.6603 7.6881,0 15.97333,3.64835 21.41908,7.81275"
     style="fill:none;fill-rule:evenodd;stroke:#dc0ab1;stroke-width:1.26847363px;stroke-linecap:butt;stroke-linejoin:miter;stroke-opacity:1" />
  <path
     id="path20057-2"
     d="m 280.94539,439.32919 c -4.00423,15.53639 -12.10984,22.79758 -26.68522,21.99674 11.372,13.77452 5.44574,26.58805 -8.00845,33.95581 24.50586,2.88311 23.06434,15.2161 12.49319,24.98639 24.70961,-6.73179 34.14014,5.11741 39.90621,18.89189"
     style="fill:none;fill-rule:evenodd;stroke:#dc0ab1;stroke-width:1.26847363px;stroke-linecap:butt;stroke-linejoin:miter;stroke-opacity:1" />
</svg>
