<?xml version="1.0" encoding="UTF-8" standalone="no"?>
<svg
   xmlns:dc="http://purl.org/dc/elements/1.1/"
   xmlns:cc="http://creativecommons.org/ns#"
   xmlns:rdf="http://www.w3.org/1999/02/22-rdf-syntax-ns#"
   xmlns:svg="http://www.w3.org/2000/svg"
   xmlns="http://www.w3.org/2000/svg"
   width="600"
   height="600"
   viewBox="0 0 600.00001 600.00001"
   id="svg5922"
   version="1.1">
  <defs
     id="defs5924" />
  <metadata
     id="metadata5927">
    <rdf:RDF>
      <cc:Work
         rdf:about="">
        <dc:format>image/svg+xml</dc:format>
        <dc:type
           rdf:resource="http://purl.org/dc/dcmitype/StillImage" />
        <dc:title></dc:title>
      </cc:Work>
    </rdf:RDF>
  </metadata>
  <path
     id="path4247"
     d="m 299.92585,332.73108 c 32.79623,-38.35491 80.6993,-49.39173 121.73516,-30.57275 87.27133,40.02253 32.78093,122.32388 7.78216,162.86942 -9.4152,15.27052 -64.48073,80.04504 -129.51732,133.96428 C 236.00098,546.7404 181.95734,482.18969 175.41133,471.69818 148.92948,429.25484 85.331927,348.81664 174.29959,303.27008 c 44.03696,-22.54452 92.83001,-9.44978 125.62626,29.461 z"
     style="fill:none;fill-rule:evenodd;stroke:#ec1bcd;stroke-width:1.55643141px;stroke-linecap:butt;stroke-linejoin:miter;stroke-opacity:1" />
  <path
     id="path4249"
     d="m 123.01665,375.01658 c -19.45539,-28.34929 -26.260689,-70.35685 -19.8682,-100.0958 12.50704,40.02253 20.44831,44.96973 26.68168,1.94554 6.43298,-44.40192 -12.50704,-59.75585 -13.61878,-7.78216 -13.0629,-38.63285 -5.55868,-69.20561 10.00563,-88.10514 -10.28357,35.01972 18.89951,47.80467 23.06854,3.05728 5.83661,21.40093 -4.70701,38.91796 -7.50423,45.85913 -5.1709,12.83138 -7.78215,26.40376 -5.83661,31.40658 5.83661,17.78778 11.3953,1.94554 13.06291,-4.16903 1.6676,-6.11455 1.6676,-11.39529 0.55586,-20.84505 10.5615,12.78496 7.83635,32.55175 2.50142,41.13426 -8.96673,14.42511 -5.44356,24.66051 -6.83323,36.88961 -22.79061,14.73051 -23.88259,40.97144 -22.21499,60.70478 z"
     style="fill:none;fill-rule:evenodd;stroke:#e912c5;stroke-width:1.55643141px;stroke-linecap:butt;stroke-linejoin:miter;stroke-opacity:1" />
  <path
     id="path4251"
     d="m 130.94186,189.87292 c 10.5615,-32.24037 -6.94835,-50.58402 11.95118,-67.81593 -1.94554,22.51268 26.1258,26.40376 16.12017,-15.56431 13.61877,23.90233 11.90679,42.99466 -3.61315,51.13987 -17.09803,8.97345 -10.83942,27.79343 -24.4582,32.24037 z"
     style="fill:none;fill-rule:evenodd;stroke:#f20cc8;stroke-width:1.55643141px;stroke-linecap:butt;stroke-linejoin:miter;stroke-opacity:1" />
  <path
     id="path4253"
     d="m 190.42491,290.13627 c 13.36398,-43.62947 -25.54879,-35.37524 -20.43903,1.96529 -20.83208,-40.09193 15.72234,-67.21297 -3.53754,-101.8021 14.54316,0.39308 16.88613,26.39446 17.68763,36.94749 2.35835,31.0516 22.33819,17.12196 5.50281,-25.94186 -3.62159,-9.26381 -37.37056,-77.53115 8.25424,-125.778641 -12.57788,71.929681 38.12664,64.461571 14.54316,115.952191 2.35833,-48.34615 -38.71367,-46.27203 -13.75705,1.57223 17.99286,34.4941 9.35217,45.58606 12.1848,55.02816 8.25422,27.51408 26.92669,4.08126 16.90151,-21.61821 -8.40716,-21.55167 -9.84932,-40.03367 2.75141,-55.81426 -3.14446,62.49626 39.58449,48.19122 14.15009,-4.32365 -21.38421,-44.15241 -35.7683,-75.467184 6.682,-141.894026 -14.93622,85.686696 35.37524,85.686696 10.61257,130.888406 10.12688,-24.77376 -38.31814,-57.886217 -9.04034,-1.96529 7.42351,14.17898 24.28604,21.58038 12.57788,64.46154 -9.04038,33.11035 13.24476,24.96777 19.25984,3.53753 2.15474,-7.67681 0.78612,-21.22516 -3.14446,-44.02252 16.11539,25.94183 20.19243,65.22845 -4.32364,97.8715 -19.9737,26.59492 -14.38992,17.38688 -42.05724,11.79176 -15.91266,-3.21798 -26.72795,-2.35837 -44.80864,3.14446 z"
     style="fill:none;fill-rule:evenodd;stroke:#e507d1;stroke-width:1.55643141px;stroke-linecap:butt;stroke-linejoin:miter;stroke-opacity:1" />
  <path
     id="path4255"
     d="m 299.69511,323.54622 c -7.86117,-10.61257 -18.47374,-19.25986 -33.40996,-26.72796 11.00562,-9.43339 22.01127,-19.65292 33.40996,-50.31146 2.75141,19.65291 -1.86749,31.27993 -4.71669,40.48501 -5.10978,16.50845 18.47373,12.97093 16.50844,0.78611 -1.44494,-8.95868 -7.86117,-10.61258 -5.50282,-30.26548 9.82647,24.76267 14.54317,30.65854 28.3002,39.69888 -17.68763,8.25423 -25.54879,15.72233 -34.58913,26.3349 z"
     style="fill:none;fill-rule:evenodd;stroke:#f206b9;stroke-width:1.55643141px;stroke-linecap:butt;stroke-linejoin:miter;stroke-opacity:1" />
  <path
     id="path4257"
     d="M 299.30206,0.45232282 C 283.57972,22.463594 279.0614,46.680981 293.79923,66.093058 c 7.84582,10.334191 10.21952,46.380882 -9.43339,4.716703 5.89588,35.768299 -9.04034,53.062869 24.36961,98.264549 -7.86116,-40.09193 -3.14447,-56.60037 8.64728,-77.825523 -9.43339,6.288933 -6.68199,-12.970925 -1.96529,-24.369622 5.23421,-12.64932 4.32365,-35.375242 -3.53752,-37.733594 C 311.0938,61.376355 285.93806,66.48612 299.30206,0.45232282 Z"
     style="fill:none;fill-rule:evenodd;stroke:#ec07d0;stroke-width:1.55643141px;stroke-linecap:butt;stroke-linejoin:miter;stroke-opacity:1" />
  <path
     id="path4253-7"
     d="m 409.86936,290.13625 c -13.36399,-43.62946 25.54879,-35.37524 20.43903,1.96529 20.83208,-40.09193 -15.72234,-67.21296 3.53753,-101.8021 -14.54315,0.39308 -16.88613,26.39447 -17.68763,36.94749 -2.35835,31.0516 -22.33818,17.12196 -5.50281,-25.94185 3.6216,-9.26382 37.37057,-77.53116 -8.25424,-125.778631 12.57788,71.929681 -38.12664,64.461551 -14.54315,115.952181 -2.35834,-48.34614 38.71366,-46.27202 13.75705,1.57223 -17.99286,34.4941 -9.35218,45.58605 -12.18481,55.02816 -8.25422,27.51408 -26.92668,4.08126 -16.9015,-21.61821 8.40715,-21.55167 9.84931,-40.03367 -2.75142,-55.81425 3.14446,62.49624 -39.58448,48.19121 -14.15009,-4.32365 21.38422,-44.15241 35.7683,-75.467184 -6.68199,-141.894042 14.93621,85.686712 -35.37525,85.686712 -10.61258,130.888422 -10.12687,-24.77376 38.31815,-57.886217 9.04035,-1.96529 -7.42351,14.17898 -24.28604,21.58038 -12.57788,64.46152 9.04037,33.11036 -13.24477,24.96778 -19.25984,3.53754 -2.15474,-7.67682 -0.78613,-21.22516 3.14445,-44.02251 -16.11538,25.94182 -20.19242,65.22844 4.32365,97.87149 19.9737,26.59491 14.38992,17.38688 42.05723,11.79175 15.91266,-3.21798 26.72796,-2.35836 44.80865,3.14446 z"
     style="fill:none;fill-rule:evenodd;stroke:#e507d1;stroke-width:1.55643141px;stroke-linecap:butt;stroke-linejoin:miter;stroke-opacity:1" />
  <path
     id="path4249-4"
     d="m 476.98335,375.01657 c 19.45539,-28.3493 26.26069,-70.35684 19.86821,-100.09579 -12.50704,40.02253 -20.44832,44.96973 -26.68169,1.94554 -6.43296,-44.40192 12.50705,-59.75585 13.61877,-7.78216 13.06292,-38.63285 5.55869,-69.20561 -10.00562,-88.10514 10.28357,35.01972 -18.8995,47.80467 -23.06853,3.05728 -5.83663,21.40093 4.70701,38.91796 7.50423,45.85913 5.1709,12.83138 7.78214,26.40376 5.83662,31.40658 -5.83662,17.78778 -11.39531,1.94554 -13.06292,-4.16903 -1.6676,-6.11455 -1.6676,-11.39529 -0.55586,-20.84505 -10.56151,12.78496 -7.83635,32.55175 -2.50142,41.13426 8.96673,14.42511 5.44356,24.66051 6.83323,36.88961 22.79061,14.73051 23.88259,40.97143 22.21498,60.70477 z"
     style="fill:none;fill-rule:evenodd;stroke:#e912c5;stroke-width:1.55643141px;stroke-linecap:butt;stroke-linejoin:miter;stroke-opacity:1" />
  <path
     id="path4251-9"
     d="m 469.88979,189.87292 c -10.56151,-32.24037 6.94835,-50.58402 -11.95118,-67.81593 1.94554,22.51268 -26.12581,26.40376 -16.12018,-15.56431 -13.61878,23.90233 -11.90679,42.99466 3.61315,51.13987 17.09803,8.97345 10.83942,27.79343 24.45821,32.24037 z"
     style="fill:none;fill-rule:evenodd;stroke:#f20cc8;stroke-width:1.55643141px;stroke-linecap:butt;stroke-linejoin:miter;stroke-opacity:1" />
</svg>
