<?xml version="1.0" encoding="UTF-8" standalone="no"?>
<svg
   xmlns:dc="http://purl.org/dc/elements/1.1/"
   xmlns:cc="http://creativecommons.org/ns#"
   xmlns:rdf="http://www.w3.org/1999/02/22-rdf-syntax-ns#"
   xmlns:svg="http://www.w3.org/2000/svg"
   xmlns="http://www.w3.org/2000/svg"
   width="600"
   height="600"
   viewBox="0 0 600.00001 600.00001"
   id="svg5922"
   version="1.1">
  <defs
     id="defs5924" />
  <metadata
     id="metadata5927">
    <rdf:RDF>
      <cc:Work
         rdf:about="">
        <dc:format>image/svg+xml</dc:format>
        <dc:type
           rdf:resource="http://purl.org/dc/dcmitype/StillImage" />
        <dc:title></dc:title>
      </cc:Work>
    </rdf:RDF>
  </metadata>
  <path
     id="path16773"
     d="m 231.89464,161.38753 c -21.59099,-1.95356 -40.3481,-1.36509 -66.94583,-26.14075 l 0,0 c 0,0 30.92986,19.36938 88.62353,-0.63759 0,0 -17.44588,-3.76112 -35.06687,-26.14076 21.04012,14.02675 45.00234,17.85534 83.52291,12.11401 -11.26678,-5.67565 -20.82211,-19.95356 -28.0535,-36.979598 22.21562,31.360028 74.58007,32.135508 107.75092,19.127388 36.33397,5.45423 68.04763,18.86826 96.91206,22.95285 8.46806,8.43002 11.33506,13.18657 19.12738,22.95286 32.81141,1.30779 50.97847,9.43442 73.32163,18.4898 9.25679,1.47059 17.42637,-1.33987 28.0535,1.91274 -3.66587,8.46768 -8.61419,17.49059 -14.02675,22.31528 -2.03073,10.26338 -6.99647,17.53977 -14.66433,21.04012 -32.86949,57.70973 -83.83113,-32.4839 -136.18238,-9.92879"
     style="fill:none;fill-rule:evenodd;stroke:#ef1ac1;stroke-width:1.26234281px;stroke-linecap:butt;stroke-linejoin:miter;stroke-opacity:1" />
  <path
     id="path16794"
     d="m 413.60476,220.68241 c -17.21464,22.31528 70.77132,68.221 92.44901,75.87196 3.1879,34.42929 -23.59043,30.60379 -36.34201,46.54328 -1.27517,-16.57706 5.73821,-20.40254 10.83884,-27.41591 -12.11401,12.11401 -21.04011,1.91274 -33.7917,11.47644 29.96622,-38.89236 -70.77131,-59.2949 -81.61016,35.06686 -11.47643,-6.37579 -9.5637,-46.5433 -3.1879,-63.12036"
     style="fill:none;fill-rule:evenodd;stroke:#e20fbe;stroke-width:1.26234281px;stroke-linecap:butt;stroke-linejoin:miter;stroke-opacity:1" />
  <path
     id="path16796"
     d="m 245.28381,150.54868 c -14.02675,5.10064 -12.75159,21.6777 -29.32866,34.42929 22.95286,-7.01337 36.9796,12.114 63.12036,-4.46306 -23.59043,17.85222 -3.1879,23.59043 -15.3019,50.36877 19.12737,-15.93947 25.50317,5.73821 52.2815,-15.93948 -24.228,23.59043 3.1879,19.12738 -17.21464,54.19425 23.59043,-17.85223 31.87898,0 55.46941,-19.76497 -18.4898,22.95287 -0.63758,35.70445 -14.66432,60.57005 16.57706,-21.04012 35.06686,2.55031 51.64392,-35.06687"
     style="fill:none;fill-rule:evenodd;stroke:#df1ec1;stroke-width:1.26234281px;stroke-linecap:butt;stroke-linejoin:miter;stroke-opacity:1" />
  <path
     id="path16798"
     d="m 206.39146,158.19963 c -32.51655,29.96624 -6.37579,31.24139 -29.32865,44.63056 22.95286,-7.65095 36.9796,19.76496 65.0331,-17.85222 -28.69108,30.6038 -4.46306,31.24139 -26.14076,58.01972 19.76496,-16.57707 28.0535,-3.18789 49.09361,-12.75159 -18.4898,23.59045 0.63758,32.51655 -14.66432,49.73119 21.6777,-15.93948 31.24138,0.63759 49.7312,-12.11401 -16.57708,14.02675 0.63758,20.40254 -15.93949,47.81846 20.40254,-19.12739 34.42929,1.91274 61.20762,-22.31528"
     style="fill:none;fill-rule:evenodd;stroke:#eb0acf;stroke-width:1.26234281px;stroke-linecap:butt;stroke-linejoin:miter;stroke-opacity:1" />
  <path
     id="path16800"
     d="m 312.86722,306.11805 c -6.37579,17.21465 5.10065,23.59044 -8.28853,42.08024 17.85223,-21.6777 35.70444,-3.82547 52.91909,-28.69107"
     style="fill:none;fill-rule:evenodd;stroke:#ec0ec7;stroke-width:1.26234281px;stroke-linecap:butt;stroke-linejoin:miter;stroke-opacity:1" />
  <path
     id="path16802"
     d="m 196.82777,155.01173 c -28.0535,17.85223 -57.38214,21.67771 -80.97258,11.47644 21.6777,19.12737 56.74456,21.6777 71.40889,19.76496 -60.57004,6.37579 -30.60381,22.31527 -56.10699,46.54329 17.21464,-6.37579 26.93772,4.30366 36.42172,0.71728 9.48399,-3.58639 7.89004,-22.71376 32.43686,-31.32109 -35.70445,19.12739 -16.57706,35.70444 -40.1675,52.91909 30.60381,-12.11401 25.50317,9.5637 57.38214,-13.38916 -15.93949,20.40254 -1.27516,28.69107 -17.21464,51.00635 18.48981,-12.11401 27.41592,-10e-6 51.64393,-14.02675 -15.30191,17.85223 -1.27516,30.60381 -15.93949,53.55667 17.85223,-19.76497 26.77833,1.91274 49.73119,-15.93949 -19.12738,17.21465 -3.18789,33.15414 -15.3019,53.55668 22.31528,-14.66434 40.80508,10.83884 61.20762,-35.70445 -12.114,25.50318 -6.37578,50.36877 6.3758,71.40889 -6.37579,-38.89235 10.20126,-56.107 19.76496,-63.75794"
     style="fill:none;fill-rule:evenodd;stroke:#ea12d5;stroke-width:1.26234281px;stroke-linecap:butt;stroke-linejoin:miter;stroke-opacity:1" />
  <path
     id="path16804"
     d="m 179.61313,251.28622 c -32.51655,15.93949 -14.66432,46.54329 -29.32866,58.01973 17.85223,-8.9261 32.51655,-0.63757 52.28152,-18.4898 -24.22803,24.22802 2.55031,32.51655 -15.93949,55.4694 12.11401,-12.75158 24.22802,-0.63757 50.36878,-14.02674 -24.8656,22.31528 0.63757,36.34203 -7.01338,53.55666 12.75158,-11.47642 25.50318,-2.55031 40.80508,-16.57706"
     style="fill:none;fill-rule:evenodd;stroke:#e512d0;stroke-width:1.26234281px;stroke-linecap:butt;stroke-linejoin:miter;stroke-opacity:1" />
  <path
     id="path16808"
     d="m 147.73416,230.2461 c -38.25476,18.48981 -9.5637,36.97961 -40.1675,51.64393 24.22801,-8.28853 23.59043,10.83886 51.00634,-3.18789"
     style="fill:none;fill-rule:evenodd;stroke:#ed0cc6;stroke-width:1.26234281px;stroke-linecap:butt;stroke-linejoin:miter;stroke-opacity:1" />
  <path
     id="path16810"
     d="m 291.18952,364.77536 c -9.5637,35.06686 -0.63757,63.12036 13.38917,84.79806 -15.93949,-33.79171 8.92611,-63.75794 21.04012,-75.87196"
     style="fill:none;fill-rule:evenodd;stroke:#ed0cc6;stroke-width:1.26234281px;stroke-linecap:butt;stroke-linejoin:miter;stroke-opacity:1" />
  <path
     id="path16812"
     d="m 157.93543,184.34039 c -22.31528,14.66432 -68.858571,26.14075 -85.435635,9.56369 16.577064,19.76496 43.355395,26.77833 68.220995,24.22801 -50.368768,12.11401 -31.87898,25.50319 -60.570043,45.90573 19.127382,-8.92612 29.966233,1.27515 42.717813,0"
     style="fill:none;fill-rule:evenodd;stroke:#f310db;stroke-width:1.26234281px;stroke-linecap:butt;stroke-linejoin:miter;stroke-opacity:1" />
  <path
     id="path16814"
     d="m 110.11698,216.21935 c -29.966233,15.93949 -56.744567,20.40255 -77.784687,11.47644 24.228018,15.3019 45.268137,21.67769 61.207622,24.22802 -38.892341,6.37579 -19.764962,25.50317 -49.731193,48.45602 26.778336,-17.21464 43.355396,13.38917 77.784678,-21.04011 -28.691062,28.69107 -11.47642,31.24138 -24.865587,47.81846 16.577067,-12.7516 29.966227,10.83884 64.395517,-22.31528 -26.14075,24.228 -11.47644,33.79169 -25.50318,56.74457 13.38917,-18.4898 31.24138,-1.27517 52.91909,-17.21465 -18.48981,16.57706 -5.10065,33.15412 -12.75159,56.10699 14.66433,-14.66433 32.51655,-1.91274 55.46941,-14.66434 -10.83884,14.02675 6.37579,27.41592 -11.47643,49.09362 14.02675,-17.85222 44.63055,-5.73821 67.58341,-33.79171"
     style="fill:none;fill-rule:evenodd;stroke:#ea1dca;stroke-width:1.26234281px;stroke-linecap:butt;stroke-linejoin:miter;stroke-opacity:1" />
  <path
     id="path16816"
     d="M 66.124,244.91043 C 43.171142,267.22571 19.580704,271.05119 0.45332291,259.57475 20.218285,279.97731 46.35904,288.26584 55.92273,287.62825"
     style="fill:none;fill-rule:evenodd;stroke:#f40acb;stroke-width:1.26234281px;stroke-linecap:butt;stroke-linejoin:miter;stroke-opacity:1" />
  <path
     id="path16818"
     d="m 62.936104,294.00404 c -11.476429,17.85222 0.637579,26.14076 -13.389168,38.25477 15.939487,-12.75158 34.429288,1.91273 51.006354,-9.5637 -19.12738,21.6777 1.27516,25.50318 -14.026749,52.91909 10.201272,-15.3019 29.328649,-0.63757 50.368769,-14.66432 -17.21465,18.4898 1.91274,29.32864 -15.30191,51.64394 15.93948,-16.57708 28.0535,2.55031 55.46941,-14.02675 -16.57707,17.21464 3.1879,29.32865 -10.20127,50.36876 15.30191,-15.93948 33.15413,3.82548 54.83183,-15.3019 -22.31528,22.95286 -3.82548,59.93246 5.73821,82.88532 -3.1879,-29.32865 19.76497,-60.57004 26.77834,-60.57004"
     style="fill:none;fill-rule:evenodd;stroke:#f40acb;stroke-width:1.26234281px;stroke-linecap:butt;stroke-linejoin:miter;stroke-opacity:1" />
  <path
     id="path16820"
     d="m 251.02202,421.51992 c 0.63758,17.85224 -2.55032,33.15413 15.3019,63.75794 -3.82547,-38.25477 10.83885,-58.65731 22.95286,-68.85858"
     style="fill:none;fill-rule:evenodd;stroke:#f40acb;stroke-width:1.26234281px;stroke-linecap:butt;stroke-linejoin:miter;stroke-opacity:1" />
  <path
     id="path16822"
     d="m 586.38879,178.12398 c -8.60733,-0.79697 -6.3758,6.5352 -6.3758,8.12915 -28.0535,-42.08025 -91.81143,-29.96623 -134.52926,-1.91273"
     style="fill:none;fill-rule:evenodd;stroke:#e610c6;stroke-width:1.26234281px;stroke-linecap:butt;stroke-linejoin:miter;stroke-opacity:1" />
  <path
     id="path16824"
     d="m 461.42322,183.06523 c -81.61016,12.11401 -73.32163,56.10698 -82.24775,59.93246"
     style="fill:none;fill-rule:evenodd;stroke:#e610c6;stroke-width:1.26234281px;stroke-linecap:butt;stroke-linejoin:miter;stroke-opacity:1" />
  <path
     id="path16826"
     d="m 567.89898,201.55503 c -16.57706,-27.41591 -41.44267,-33.15412 -68.221,-28.0535"
     style="fill:none;fill-rule:evenodd;stroke:#e610c6;stroke-width:1.26234281px;stroke-linecap:butt;stroke-linejoin:miter;stroke-opacity:1" />
  <path
     id="path16828"
     d="m 560.24803,216.21935 c -29.32865,4.46306 -35.06687,-15.93949 -44.63056,-24.22801 -9.56368,-7.65095 -24.22802,-14.66433 -42.71782,-7.65095"
     style="fill:none;fill-rule:evenodd;stroke:#e610c6;stroke-width:1.26234281px;stroke-linecap:butt;stroke-linejoin:miter;stroke-opacity:1" />
  <path
     id="path16830"
     d="m 470.98691,192.62892 c -35.06686,-4.46305 -71.09009,37.29839 -80.33501,54.19424 4.14427,7.96975 0.95637,11.79523 1.91275,17.21466"
     style="fill:none;fill-rule:evenodd;stroke:#ed09c9;stroke-width:1.26234281px;stroke-linecap:butt;stroke-linejoin:miter;stroke-opacity:1" />
  <path
     id="path16832"
     d="m 405.95382,229.60853 c -2.55033,12.75158 4.46305,22.95285 10.83884,25.50317"
     style="fill:none;fill-rule:evenodd;stroke:#ec0ccf;stroke-width:1.26234281px;stroke-linecap:butt;stroke-linejoin:miter;stroke-opacity:1" />
  <path
     id="path16834"
     d="m 407.22897,255.74927 c 1.91274,16.25827 33.47293,17.21465 69.81494,46.22452 5.73822,0.63758 4.78185,-0.63758 8.92612,-0.95637"
     style="fill:none;fill-rule:evenodd;stroke:#f10ec7;stroke-width:1.26234281px;stroke-linecap:butt;stroke-linejoin:miter;stroke-opacity:1" />
  <path
     id="path16836"
     d="m 399.57803,186.25313 c 19.12737,-26.14076 -11.15765,-20.40254 -19.76497,-29.32866 -0.95637,6.3758 8.60732,12.75158 13.38916,17.21465 -20.40254,-14.02674 -28.69107,-0.3188 -38.25475,-29.32866 -6.37581,6.057 -3.18791,15.6207 0,20.40254 -7.01338,-9.24489 -19.76497,-9.2449 -26.77835,-20.40254 -4.14426,7.01338 0.63759,12.11401 7.65096,18.4898 -11.47642,-9.24489 -26.77834,-7.96974 -32.51655,-17.85221 -6.37579,0 8.28853,12.11401 17.85222,15.93948 -16.57706,-3.50668 -27.4159,-2.55032 -32.51655,-10.20128"
     style="fill:none;fill-rule:evenodd;stroke:#ea0fce;stroke-width:1.26234281px;stroke-linecap:butt;stroke-linejoin:miter;stroke-opacity:1" />
  <path
     id="path16838"
     d="m 377.90032,189.44102 c -10.17374,-11.37785 -31.78559,-12.22345 -47.81846,-5.73821 -5.73822,-14.02676 -24.228,-18.17102 -24.22802,-9.56369 -3.82548,0 -4.46305,-12.11401 -10.83885,-4.78185"
     style="fill:none;fill-rule:evenodd;stroke:#f311dc;stroke-width:1.26234281px;stroke-linecap:butt;stroke-linejoin:miter;stroke-opacity:1" />
  <path
     id="path16840"
     d="m 339.64556,217.49452 c 8.9261,7.01337 30.60381,-10.83885 22.31528,-12.75159"
     style="fill:none;fill-rule:evenodd;stroke:#f212b3;stroke-width:1.26234281px;stroke-linecap:butt;stroke-linejoin:miter;stroke-opacity:1" />
  <path
     id="path16842"
     d="m 376.62516,206.65567 c -14.02675,-15.93949 -29.64744,-8.28854 -35.06687,-7.01338 -14.98311,7.65096 -50.04997,-9.24491 -56.74456,-23.59043 -4.78185,-12.43279 -32.19775,-16.25829 -31.24139,-26.14076 0.31879,-9.5637 29.32865,-2.23154 44.63056,-12.75158 -4.46305,-1.91274 -5.10064,-2.55033 -12.11401,-5.73822 24.86559,7.65096 35.70444,-10.83884 59.29488,-2.55031 -1.91274,-1.91274 -1.91274,-5.41943 1.27515,-10.83886 -0.31878,16.89585 20.08375,19.12739 27.41592,38.25477"
     style="fill:none;fill-rule:evenodd;stroke:#ee0dd2;stroke-width:1.26234281px;stroke-linecap:butt;stroke-linejoin:miter;stroke-opacity:1" />
  <path
     id="path16844"
     d="m 386.18885,114.20665 c 27.41591,7.33217 52.60031,-7.65094 67.58342,13.70796"
     style="fill:none;fill-rule:evenodd;stroke:#f10dd3;stroke-width:1.26234281px;stroke-linecap:butt;stroke-linejoin:miter;stroke-opacity:1" />
  <path
     id="path16846"
     d="m 408.50413,134.60919 c 15.93949,7.01338 23.35151,-2.35595 33.15413,-4.14426 37.39505,-6.82206 41.12387,10.20127 36.34203,20.72132 0,7.65096 11.47642,5.73822 11.47642,5.73822"
     style="fill:none;fill-rule:evenodd;stroke:#e61fba;stroke-width:1.26234281px;stroke-linecap:butt;stroke-linejoin:miter;stroke-opacity:1" />
  <path
     id="path16848"
     d="m 452.49711,179.23975 c -30.60382,-5.10063 -21.9965,-24.86559 -54.19425,-26.77833 24.86559,1.91274 63.75794,-3.82548 74.59679,-1.91274 -0.63758,9.24491 -1.59396,13.07037 -5.73822,15.93949 -8.9261,-3.5067 -29.32864,-14.34554 -42.71781,-14.34554"
     style="fill:none;fill-rule:evenodd;stroke:#eb0bc3;stroke-width:1.26234281px;stroke-linecap:butt;stroke-linejoin:miter;stroke-opacity:1" />
  <path
     id="path16850"
     d="m 416.79266,237.25947 c 5.41942,3.82548 13.70795,7.65096 21.04012,-0.63757 2.55032,9.2449 1.27516,11.79522 -3.82548,18.4898 7.33217,-5.41942 14.66433,1.27516 19.12739,-8.92611 3.18789,7.65096 5.10064,13.70796 2.55032,22.31528 9.56369,-0.95636 14.66433,-4.78184 22.95285,-9.56369 3.50669,13.07038 2.8691,14.34553 -1.91274,23.27165 9.88248,-3.50669 11.79523,-6.69459 16.25828,-13.38917 5.73821,8.28853 2.8691,14.98311 0.31878,20.40254 13.70797,-6.05701 19.62145,-9.22621 28.69107,-21.35892 1.59396,14.66433 -6.05698,24.54682 -15.93946,28.0535"
     style="fill:none;fill-rule:evenodd;stroke:#ea0cb7;stroke-width:1.26234281px;stroke-linecap:butt;stroke-linejoin:miter;stroke-opacity:1" />
  <path
     id="path16852"
     d="m 430.81941,204.74293 c -7.33216,17.21464 0,20.08376 5.73822,26.14075 3.18789,-6.37579 6.37579,-10.83885 13.38916,-10.83885 6.69458,5.73822 3.82547,10.83885 13.07037,15.93949 5.10064,-3.82548 8.92613,-10.83884 15.6207,-12.11401 5.73822,6.057 4.46306,10.83885 6.3758,17.21464 6.057,-4.78184 10.52005,-11.79521 20.40254,-12.75159 5.73821,10.83885 3.18789,12.75159 2.55031,17.85223 11.15765,0 17.85222,-6.6946 24.86561,-15.30191 6.057,12.43279 -5.10065,19.76497 -8.28855,26.14076 15.30192,0.95638 25.82198,-13.70795 27.41592,-26.14076"
     style="fill:none;fill-rule:evenodd;stroke:#f10ce0;stroke-width:1.26234281px;stroke-linecap:butt;stroke-linejoin:miter;stroke-opacity:1" />
  <path
     id="path16854"
     d="m 433.05094,203.46777 c 18.17101,2.8691 11.47642,12.4328 16.89585,15.93949 12.11401,-8.28854 22.95286,-1.59396 27.41591,3.82547 8.92611,-1.59395 14.02675,0.3188 21.6777,6.05701 6.05701,-1.59395 14.02675,-1.59395 26.14076,-1.59395"
     style="fill:none;fill-rule:evenodd;stroke:#e90fbd;stroke-width:1.26234281px;stroke-linecap:butt;stroke-linejoin:miter;stroke-opacity:1" />
</svg>
