<?xml version="1.0" encoding="UTF-8" standalone="no"?>
<svg
   xmlns:dc="http://purl.org/dc/elements/1.1/"
   xmlns:cc="http://creativecommons.org/ns#"
   xmlns:rdf="http://www.w3.org/1999/02/22-rdf-syntax-ns#"
   xmlns:svg="http://www.w3.org/2000/svg"
   xmlns="http://www.w3.org/2000/svg"
   xmlns:xlink="http://www.w3.org/1999/xlink"
   id="svg19548"
   height="600"
   width="600"
   version="1.0">
  <metadata
     id="metadata20069">
    <rdf:RDF>
      <cc:Work
         rdf:about="">
        <dc:format>image/svg+xml</dc:format>
        <dc:type
           rdf:resource="http://purl.org/dc/dcmitype/StillImage" />
        <dc:title></dc:title>
      </cc:Work>
    </rdf:RDF>
  </metadata>
  <defs
     id="defs19550">
    <path
       style="fill:none;stroke:#000000;stroke-width:4;stroke-linecap:butt"
       d="M 0,-20 A 20,20 0 0 0 20,0 M -20,0 A 20,20 0 0 1 0,20"
       id="C01" />
    <path
       style="fill:none;stroke:#000000;stroke-width:4;stroke-linecap:butt"
       d="M 0,-20 A 20,20 0 0 1 -20,0 M 20,0 A 20,20 0 0 0 0,20"
       id="C02" />
  </defs>
  <use
     xlink:href="#C01"
     transform="matrix(0.9375,0,0,0.9375,18.75,18.75)"
     id="use19555"
     x="0"
     y="0"
     width="100%"
     height="100%" />
  <use
     xlink:href="#C01"
     transform="matrix(0.9375,0,0,0.9375,93.75,18.75)"
     id="use19557"
     x="0"
     y="0"
     width="100%"
     height="100%" />
  <use
     xlink:href="#C01"
     transform="matrix(0.9375,0,0,0.9375,206.25,18.75)"
     id="use19559"
     x="0"
     y="0"
     width="100%"
     height="100%" />
  <use
     xlink:href="#C01"
     transform="matrix(0.9375,0,0,0.9375,281.25,18.75)"
     id="use19561"
     x="0"
     y="0"
     width="100%"
     height="100%" />
  <use
     xlink:href="#C01"
     transform="matrix(0.9375,0,0,0.9375,318.75,18.75)"
     id="use19563"
     x="0"
     y="0"
     width="100%"
     height="100%" />
  <use
     xlink:href="#C01"
     transform="matrix(0.9375,0,0,0.9375,431.25,18.75)"
     id="use19565"
     x="0"
     y="0"
     width="100%"
     height="100%" />
  <use
     xlink:href="#C01"
     transform="matrix(0.9375,0,0,0.9375,468.75,18.75)"
     id="use19567"
     x="0"
     y="0"
     width="100%"
     height="100%" />
  <use
     xlink:href="#C01"
     transform="matrix(0.9375,0,0,0.9375,206.25,56.25)"
     id="use19569"
     x="0"
     y="0"
     width="100%"
     height="100%" />
  <use
     xlink:href="#C01"
     transform="matrix(0.9375,0,0,0.9375,243.75,56.25)"
     id="use19571"
     x="0"
     y="0"
     width="100%"
     height="100%" />
  <use
     xlink:href="#C01"
     transform="matrix(0.9375,0,0,0.9375,318.75,56.25)"
     id="use19573"
     x="0"
     y="0"
     width="100%"
     height="100%" />
  <use
     xlink:href="#C01"
     transform="matrix(0.9375,0,0,0.9375,356.25,56.25)"
     id="use19575"
     x="0"
     y="0"
     width="100%"
     height="100%" />
  <use
     xlink:href="#C01"
     transform="matrix(0.9375,0,0,0.9375,506.25,56.25)"
     id="use19577"
     x="0"
     y="0"
     width="100%"
     height="100%" />
  <use
     xlink:href="#C01"
     transform="matrix(0.9375,0,0,0.9375,543.75,56.25)"
     id="use19579"
     x="0"
     y="0"
     width="100%"
     height="100%" />
  <use
     xlink:href="#C01"
     transform="matrix(0.9375,0,0,0.9375,581.25,56.25)"
     id="use19581"
     x="0"
     y="0"
     width="100%"
     height="100%" />
  <use
     xlink:href="#C01"
     transform="matrix(0.9375,0,0,0.9375,93.75,93.75)"
     id="use19583"
     x="0"
     y="0"
     width="100%"
     height="100%" />
  <use
     xlink:href="#C01"
     transform="matrix(0.9375,0,0,0.9375,168.75,93.75)"
     id="use19585"
     x="0"
     y="0"
     width="100%"
     height="100%" />
  <use
     xlink:href="#C01"
     transform="matrix(0.9375,0,0,0.9375,281.25,93.75)"
     id="use19587"
     x="0"
     y="0"
     width="100%"
     height="100%" />
  <use
     xlink:href="#C01"
     transform="matrix(0.9375,0,0,0.9375,356.25,93.75)"
     id="use19589"
     x="0"
     y="0"
     width="100%"
     height="100%" />
  <use
     xlink:href="#C01"
     transform="matrix(0.9375,0,0,0.9375,393.75,93.75)"
     id="use19591"
     x="0"
     y="0"
     width="100%"
     height="100%" />
  <use
     xlink:href="#C01"
     transform="matrix(0.9375,0,0,0.9375,431.25,93.75)"
     id="use19593"
     x="0"
     y="0"
     width="100%"
     height="100%" />
  <use
     xlink:href="#C01"
     transform="matrix(0.9375,0,0,0.9375,468.75,93.75)"
     id="use19595"
     x="0"
     y="0"
     width="100%"
     height="100%" />
  <use
     xlink:href="#C01"
     transform="matrix(0.9375,0,0,0.9375,581.25,93.75)"
     id="use19597"
     x="0"
     y="0"
     width="100%"
     height="100%" />
  <use
     xlink:href="#C01"
     transform="matrix(0.9375,0,0,0.9375,56.25,131.25)"
     id="use19599"
     x="0"
     y="0"
     width="100%"
     height="100%" />
  <use
     xlink:href="#C01"
     transform="matrix(0.9375,0,0,0.9375,93.75,131.25)"
     id="use19601"
     x="0"
     y="0"
     width="100%"
     height="100%" />
  <use
     xlink:href="#C01"
     transform="matrix(0.9375,0,0,0.9375,131.25,131.25)"
     id="use19603"
     x="0"
     y="0"
     width="100%"
     height="100%" />
  <use
     xlink:href="#C01"
     transform="matrix(0.9375,0,0,0.9375,243.75,131.25)"
     id="use19605"
     x="0"
     y="0"
     width="100%"
     height="100%" />
  <use
     xlink:href="#C01"
     transform="matrix(0.9375,0,0,0.9375,281.25,131.25)"
     id="use19607"
     x="0"
     y="0"
     width="100%"
     height="100%" />
  <use
     xlink:href="#C01"
     transform="matrix(0.9375,0,0,0.9375,356.25,131.25)"
     id="use19609"
     x="0"
     y="0"
     width="100%"
     height="100%" />
  <use
     xlink:href="#C01"
     transform="matrix(0.9375,0,0,0.9375,393.75,131.25)"
     id="use19611"
     x="0"
     y="0"
     width="100%"
     height="100%" />
  <use
     xlink:href="#C01"
     transform="matrix(0.9375,0,0,0.9375,506.25,131.25)"
     id="use19613"
     x="0"
     y="0"
     width="100%"
     height="100%" />
  <use
     xlink:href="#C01"
     transform="matrix(0.9375,0,0,0.9375,543.75,131.25)"
     id="use19615"
     x="0"
     y="0"
     width="100%"
     height="100%" />
  <use
     xlink:href="#C01"
     transform="matrix(0.9375,0,0,0.9375,18.75,168.75)"
     id="use19617"
     x="0"
     y="0"
     width="100%"
     height="100%" />
  <use
     xlink:href="#C01"
     transform="matrix(0.9375,0,0,0.9375,56.25,168.75)"
     id="use19619"
     x="0"
     y="0"
     width="100%"
     height="100%" />
  <use
     xlink:href="#C01"
     transform="matrix(0.9375,0,0,0.9375,131.25,168.75)"
     id="use19621"
     x="0"
     y="0"
     width="100%"
     height="100%" />
  <use
     xlink:href="#C01"
     transform="matrix(0.9375,0,0,0.9375,168.75,168.75)"
     id="use19623"
     x="0"
     y="0"
     width="100%"
     height="100%" />
  <use
     xlink:href="#C01"
     transform="matrix(0.9375,0,0,0.9375,281.25,168.75)"
     id="use19625"
     x="0"
     y="0"
     width="100%"
     height="100%" />
  <use
     xlink:href="#C01"
     transform="matrix(0.9375,0,0,0.9375,356.25,168.75)"
     id="use19627"
     x="0"
     y="0"
     width="100%"
     height="100%" />
  <use
     xlink:href="#C01"
     transform="matrix(0.9375,0,0,0.9375,468.75,168.75)"
     id="use19629"
     x="0"
     y="0"
     width="100%"
     height="100%" />
  <use
     xlink:href="#C01"
     transform="matrix(0.9375,0,0,0.9375,506.25,168.75)"
     id="use19631"
     x="0"
     y="0"
     width="100%"
     height="100%" />
  <use
     xlink:href="#C01"
     transform="matrix(0.9375,0,0,0.9375,543.75,168.75)"
     id="use19633"
     x="0"
     y="0"
     width="100%"
     height="100%" />
  <use
     xlink:href="#C01"
     transform="matrix(0.9375,0,0,0.9375,56.25,206.25)"
     id="use19635"
     x="0"
     y="0"
     width="100%"
     height="100%" />
  <use
     xlink:href="#C01"
     transform="matrix(0.9375,0,0,0.9375,206.25,206.25)"
     id="use19637"
     x="0"
     y="0"
     width="100%"
     height="100%" />
  <use
     xlink:href="#C01"
     transform="matrix(0.9375,0,0,0.9375,281.25,206.25)"
     id="use19639"
     x="0"
     y="0"
     width="100%"
     height="100%" />
  <use
     xlink:href="#C01"
     transform="matrix(0.9375,0,0,0.9375,318.75,206.25)"
     id="use19641"
     x="0"
     y="0"
     width="100%"
     height="100%" />
  <use
     xlink:href="#C01"
     transform="matrix(0.9375,0,0,0.9375,356.25,206.25)"
     id="use19643"
     x="0"
     y="0"
     width="100%"
     height="100%" />
  <use
     xlink:href="#C01"
     transform="matrix(0.9375,0,0,0.9375,393.75,206.25)"
     id="use19645"
     x="0"
     y="0"
     width="100%"
     height="100%" />
  <use
     xlink:href="#C01"
     transform="matrix(0.9375,0,0,0.9375,431.25,206.25)"
     id="use19647"
     x="0"
     y="0"
     width="100%"
     height="100%" />
  <use
     xlink:href="#C01"
     transform="matrix(0.9375,0,0,0.9375,543.75,206.25)"
     id="use19649"
     x="0"
     y="0"
     width="100%"
     height="100%" />
  <use
     xlink:href="#C01"
     transform="matrix(0.9375,0,0,0.9375,168.75,243.75)"
     id="use19651"
     x="0"
     y="0"
     width="100%"
     height="100%" />
  <use
     xlink:href="#C01"
     transform="matrix(0.9375,0,0,0.9375,206.25,243.75)"
     id="use19653"
     x="0"
     y="0"
     width="100%"
     height="100%" />
  <use
     xlink:href="#C01"
     transform="matrix(0.9375,0,0,0.9375,318.75,243.75)"
     id="use19655"
     x="0"
     y="0"
     width="100%"
     height="100%" />
  <use
     xlink:href="#C01"
     transform="matrix(0.9375,0,0,0.9375,393.75,243.75)"
     id="use19657"
     x="0"
     y="0"
     width="100%"
     height="100%" />
  <use
     xlink:href="#C01"
     transform="matrix(0.9375,0,0,0.9375,431.25,243.75)"
     id="use19659"
     x="0"
     y="0"
     width="100%"
     height="100%" />
  <use
     xlink:href="#C01"
     transform="matrix(0.9375,0,0,0.9375,468.75,243.75)"
     id="use19661"
     x="0"
     y="0"
     width="100%"
     height="100%" />
  <use
     xlink:href="#C01"
     transform="matrix(0.9375,0,0,0.9375,543.75,243.75)"
     id="use19663"
     x="0"
     y="0"
     width="100%"
     height="100%" />
  <use
     xlink:href="#C01"
     transform="matrix(0.9375,0,0,0.9375,56.25,281.25)"
     id="use19665"
     x="0"
     y="0"
     width="100%"
     height="100%" />
  <use
     xlink:href="#C01"
     transform="matrix(0.9375,0,0,0.9375,93.75,281.25)"
     id="use19667"
     x="0"
     y="0"
     width="100%"
     height="100%" />
  <use
     xlink:href="#C01"
     transform="matrix(0.9375,0,0,0.9375,131.25,281.25)"
     id="use19669"
     x="0"
     y="0"
     width="100%"
     height="100%" />
  <use
     xlink:href="#C01"
     transform="matrix(0.9375,0,0,0.9375,168.75,281.25)"
     id="use19671"
     x="0"
     y="0"
     width="100%"
     height="100%" />
  <use
     xlink:href="#C01"
     transform="matrix(0.9375,0,0,0.9375,243.75,281.25)"
     id="use19673"
     x="0"
     y="0"
     width="100%"
     height="100%" />
  <use
     xlink:href="#C01"
     transform="matrix(0.9375,0,0,0.9375,318.75,281.25)"
     id="use19675"
     x="0"
     y="0"
     width="100%"
     height="100%" />
  <use
     xlink:href="#C01"
     transform="matrix(0.9375,0,0,0.9375,356.25,281.25)"
     id="use19677"
     x="0"
     y="0"
     width="100%"
     height="100%" />
  <use
     xlink:href="#C01"
     transform="matrix(0.9375,0,0,0.9375,393.75,281.25)"
     id="use19679"
     x="0"
     y="0"
     width="100%"
     height="100%" />
  <use
     xlink:href="#C01"
     transform="matrix(0.9375,0,0,0.9375,431.25,281.25)"
     id="use19681"
     x="0"
     y="0"
     width="100%"
     height="100%" />
  <use
     xlink:href="#C01"
     transform="matrix(0.9375,0,0,0.9375,506.25,281.25)"
     id="use19683"
     x="0"
     y="0"
     width="100%"
     height="100%" />
  <use
     xlink:href="#C01"
     transform="matrix(0.9375,0,0,0.9375,543.75,281.25)"
     id="use19685"
     x="0"
     y="0"
     width="100%"
     height="100%" />
  <use
     xlink:href="#C01"
     transform="matrix(0.9375,0,0,0.9375,581.25,281.25)"
     id="use19687"
     x="0"
     y="0"
     width="100%"
     height="100%" />
  <use
     xlink:href="#C01"
     transform="matrix(0.9375,0,0,0.9375,131.25,318.75)"
     id="use19689"
     x="0"
     y="0"
     width="100%"
     height="100%" />
  <use
     xlink:href="#C01"
     transform="matrix(0.9375,0,0,0.9375,168.75,318.75)"
     id="use19691"
     x="0"
     y="0"
     width="100%"
     height="100%" />
  <use
     xlink:href="#C01"
     transform="matrix(0.9375,0,0,0.9375,281.25,318.75)"
     id="use19693"
     x="0"
     y="0"
     width="100%"
     height="100%" />
  <use
     xlink:href="#C01"
     transform="matrix(0.9375,0,0,0.9375,318.75,318.75)"
     id="use19695"
     x="0"
     y="0"
     width="100%"
     height="100%" />
  <use
     xlink:href="#C01"
     transform="matrix(0.9375,0,0,0.9375,431.25,318.75)"
     id="use19697"
     x="0"
     y="0"
     width="100%"
     height="100%" />
  <use
     xlink:href="#C01"
     transform="matrix(0.9375,0,0,0.9375,506.25,318.75)"
     id="use19699"
     x="0"
     y="0"
     width="100%"
     height="100%" />
  <use
     xlink:href="#C01"
     transform="matrix(0.9375,0,0,0.9375,93.75,356.25)"
     id="use19701"
     x="0"
     y="0"
     width="100%"
     height="100%" />
  <use
     xlink:href="#C01"
     transform="matrix(0.9375,0,0,0.9375,131.25,356.25)"
     id="use19703"
     x="0"
     y="0"
     width="100%"
     height="100%" />
  <use
     xlink:href="#C01"
     transform="matrix(0.9375,0,0,0.9375,168.75,356.25)"
     id="use19705"
     x="0"
     y="0"
     width="100%"
     height="100%" />
  <use
     xlink:href="#C01"
     transform="matrix(0.9375,0,0,0.9375,206.25,356.25)"
     id="use19707"
     x="0"
     y="0"
     width="100%"
     height="100%" />
  <use
     xlink:href="#C01"
     transform="matrix(0.9375,0,0,0.9375,243.75,356.25)"
     id="use19709"
     x="0"
     y="0"
     width="100%"
     height="100%" />
  <use
     xlink:href="#C01"
     transform="matrix(0.9375,0,0,0.9375,318.75,356.25)"
     id="use19711"
     x="0"
     y="0"
     width="100%"
     height="100%" />
  <use
     xlink:href="#C01"
     transform="matrix(0.9375,0,0,0.9375,393.75,356.25)"
     id="use19713"
     x="0"
     y="0"
     width="100%"
     height="100%" />
  <use
     xlink:href="#C01"
     transform="matrix(0.9375,0,0,0.9375,93.75,393.75)"
     id="use19715"
     x="0"
     y="0"
     width="100%"
     height="100%" />
  <use
     xlink:href="#C01"
     transform="matrix(0.9375,0,0,0.9375,168.75,393.75)"
     id="use19717"
     x="0"
     y="0"
     width="100%"
     height="100%" />
  <use
     xlink:href="#C01"
     transform="matrix(0.9375,0,0,0.9375,206.25,393.75)"
     id="use19719"
     x="0"
     y="0"
     width="100%"
     height="100%" />
  <use
     xlink:href="#C01"
     transform="matrix(0.9375,0,0,0.9375,243.75,393.75)"
     id="use19721"
     x="0"
     y="0"
     width="100%"
     height="100%" />
  <use
     xlink:href="#C01"
     transform="matrix(0.9375,0,0,0.9375,393.75,393.75)"
     id="use19723"
     x="0"
     y="0"
     width="100%"
     height="100%" />
  <use
     xlink:href="#C01"
     transform="matrix(0.9375,0,0,0.9375,431.25,393.75)"
     id="use19725"
     x="0"
     y="0"
     width="100%"
     height="100%" />
  <use
     xlink:href="#C01"
     transform="matrix(0.9375,0,0,0.9375,468.75,393.75)"
     id="use19727"
     x="0"
     y="0"
     width="100%"
     height="100%" />
  <use
     xlink:href="#C01"
     transform="matrix(0.9375,0,0,0.9375,543.75,393.75)"
     id="use19729"
     x="0"
     y="0"
     width="100%"
     height="100%" />
  <use
     xlink:href="#C01"
     transform="matrix(0.9375,0,0,0.9375,18.75,431.25)"
     id="use19731"
     x="0"
     y="0"
     width="100%"
     height="100%" />
  <use
     xlink:href="#C01"
     transform="matrix(0.9375,0,0,0.9375,56.25,431.25)"
     id="use19733"
     x="0"
     y="0"
     width="100%"
     height="100%" />
  <use
     xlink:href="#C01"
     transform="matrix(0.9375,0,0,0.9375,93.75,431.25)"
     id="use19735"
     x="0"
     y="0"
     width="100%"
     height="100%" />
  <use
     xlink:href="#C01"
     transform="matrix(0.9375,0,0,0.9375,131.25,431.25)"
     id="use19737"
     x="0"
     y="0"
     width="100%"
     height="100%" />
  <use
     xlink:href="#C01"
     transform="matrix(0.9375,0,0,0.9375,206.25,431.25)"
     id="use19739"
     x="0"
     y="0"
     width="100%"
     height="100%" />
  <use
     xlink:href="#C01"
     transform="matrix(0.9375,0,0,0.9375,281.25,431.25)"
     id="use19741"
     x="0"
     y="0"
     width="100%"
     height="100%" />
  <use
     xlink:href="#C01"
     transform="matrix(0.9375,0,0,0.9375,318.75,431.25)"
     id="use19743"
     x="0"
     y="0"
     width="100%"
     height="100%" />
  <use
     xlink:href="#C01"
     transform="matrix(0.9375,0,0,0.9375,356.25,431.25)"
     id="use19745"
     x="0"
     y="0"
     width="100%"
     height="100%" />
  <use
     xlink:href="#C01"
     transform="matrix(0.9375,0,0,0.9375,393.75,431.25)"
     id="use19747"
     x="0"
     y="0"
     width="100%"
     height="100%" />
  <use
     xlink:href="#C01"
     transform="matrix(0.9375,0,0,0.9375,468.75,431.25)"
     id="use19749"
     x="0"
     y="0"
     width="100%"
     height="100%" />
  <use
     xlink:href="#C01"
     transform="matrix(0.9375,0,0,0.9375,543.75,431.25)"
     id="use19751"
     x="0"
     y="0"
     width="100%"
     height="100%" />
  <use
     xlink:href="#C01"
     transform="matrix(0.9375,0,0,0.9375,581.25,431.25)"
     id="use19753"
     x="0"
     y="0"
     width="100%"
     height="100%" />
  <use
     xlink:href="#C01"
     transform="matrix(0.9375,0,0,0.9375,56.25,468.75)"
     id="use19755"
     x="0"
     y="0"
     width="100%"
     height="100%" />
  <use
     xlink:href="#C01"
     transform="matrix(0.9375,0,0,0.9375,93.75,468.75)"
     id="use19757"
     x="0"
     y="0"
     width="100%"
     height="100%" />
  <use
     xlink:href="#C01"
     transform="matrix(0.9375,0,0,0.9375,206.25,468.75)"
     id="use19759"
     x="0"
     y="0"
     width="100%"
     height="100%" />
  <use
     xlink:href="#C01"
     transform="matrix(0.9375,0,0,0.9375,318.75,468.75)"
     id="use19761"
     x="0"
     y="0"
     width="100%"
     height="100%" />
  <use
     xlink:href="#C01"
     transform="matrix(0.9375,0,0,0.9375,393.75,468.75)"
     id="use19763"
     x="0"
     y="0"
     width="100%"
     height="100%" />
  <use
     xlink:href="#C01"
     transform="matrix(0.9375,0,0,0.9375,431.25,468.75)"
     id="use19765"
     x="0"
     y="0"
     width="100%"
     height="100%" />
  <use
     xlink:href="#C01"
     transform="matrix(0.9375,0,0,0.9375,468.75,468.75)"
     id="use19767"
     x="0"
     y="0"
     width="100%"
     height="100%" />
  <use
     xlink:href="#C01"
     transform="matrix(0.9375,0,0,0.9375,506.25,468.75)"
     id="use19769"
     x="0"
     y="0"
     width="100%"
     height="100%" />
  <use
     xlink:href="#C01"
     transform="matrix(0.9375,0,0,0.9375,543.75,468.75)"
     id="use19771"
     x="0"
     y="0"
     width="100%"
     height="100%" />
  <use
     xlink:href="#C01"
     transform="matrix(0.9375,0,0,0.9375,581.25,468.75)"
     id="use19773"
     x="0"
     y="0"
     width="100%"
     height="100%" />
  <use
     xlink:href="#C01"
     transform="matrix(0.9375,0,0,0.9375,18.75,506.25)"
     id="use19775"
     x="0"
     y="0"
     width="100%"
     height="100%" />
  <use
     xlink:href="#C01"
     transform="matrix(0.9375,0,0,0.9375,93.75,506.25)"
     id="use19777"
     x="0"
     y="0"
     width="100%"
     height="100%" />
  <use
     xlink:href="#C01"
     transform="matrix(0.9375,0,0,0.9375,131.25,506.25)"
     id="use19779"
     x="0"
     y="0"
     width="100%"
     height="100%" />
  <use
     xlink:href="#C01"
     transform="matrix(0.9375,0,0,0.9375,168.75,506.25)"
     id="use19781"
     x="0"
     y="0"
     width="100%"
     height="100%" />
  <use
     xlink:href="#C01"
     transform="matrix(0.9375,0,0,0.9375,206.25,506.25)"
     id="use19783"
     x="0"
     y="0"
     width="100%"
     height="100%" />
  <use
     xlink:href="#C01"
     transform="matrix(0.9375,0,0,0.9375,243.75,506.25)"
     id="use19785"
     x="0"
     y="0"
     width="100%"
     height="100%" />
  <use
     xlink:href="#C01"
     transform="matrix(0.9375,0,0,0.9375,281.25,506.25)"
     id="use19787"
     x="0"
     y="0"
     width="100%"
     height="100%" />
  <use
     xlink:href="#C01"
     transform="matrix(0.9375,0,0,0.9375,393.75,506.25)"
     id="use19789"
     x="0"
     y="0"
     width="100%"
     height="100%" />
  <use
     xlink:href="#C01"
     transform="matrix(0.9375,0,0,0.9375,431.25,506.25)"
     id="use19791"
     x="0"
     y="0"
     width="100%"
     height="100%" />
  <use
     xlink:href="#C01"
     transform="matrix(0.9375,0,0,0.9375,543.75,506.25)"
     id="use19793"
     x="0"
     y="0"
     width="100%"
     height="100%" />
  <use
     xlink:href="#C01"
     transform="matrix(0.9375,0,0,0.9375,18.75,543.75)"
     id="use19795"
     x="0"
     y="0"
     width="100%"
     height="100%" />
  <use
     xlink:href="#C01"
     transform="matrix(0.9375,0,0,0.9375,56.25,543.75)"
     id="use19797"
     x="0"
     y="0"
     width="100%"
     height="100%" />
  <use
     xlink:href="#C01"
     transform="matrix(0.9375,0,0,0.9375,131.25,543.75)"
     id="use19799"
     x="0"
     y="0"
     width="100%"
     height="100%" />
  <use
     xlink:href="#C01"
     transform="matrix(0.9375,0,0,0.9375,206.25,543.75)"
     id="use19801"
     x="0"
     y="0"
     width="100%"
     height="100%" />
  <use
     xlink:href="#C01"
     transform="matrix(0.9375,0,0,0.9375,243.75,543.75)"
     id="use19803"
     x="0"
     y="0"
     width="100%"
     height="100%" />
  <use
     xlink:href="#C01"
     transform="matrix(0.9375,0,0,0.9375,318.75,543.75)"
     id="use19805"
     x="0"
     y="0"
     width="100%"
     height="100%" />
  <use
     xlink:href="#C01"
     transform="matrix(0.9375,0,0,0.9375,393.75,543.75)"
     id="use19807"
     x="0"
     y="0"
     width="100%"
     height="100%" />
  <use
     xlink:href="#C01"
     transform="matrix(0.9375,0,0,0.9375,468.75,543.75)"
     id="use19809"
     x="0"
     y="0"
     width="100%"
     height="100%" />
  <use
     xlink:href="#C01"
     transform="matrix(0.9375,0,0,0.9375,506.25,543.75)"
     id="use19811"
     x="0"
     y="0"
     width="100%"
     height="100%" />
  <use
     xlink:href="#C01"
     transform="matrix(0.9375,0,0,0.9375,581.25,543.75)"
     id="use19813"
     x="0"
     y="0"
     width="100%"
     height="100%" />
  <use
     xlink:href="#C01"
     transform="matrix(0.9375,0,0,0.9375,93.75,581.25)"
     id="use19815"
     x="0"
     y="0"
     width="100%"
     height="100%" />
  <use
     xlink:href="#C01"
     transform="matrix(0.9375,0,0,0.9375,168.75,581.25)"
     id="use19817"
     x="0"
     y="0"
     width="100%"
     height="100%" />
  <use
     xlink:href="#C01"
     transform="matrix(0.9375,0,0,0.9375,206.25,581.25)"
     id="use19819"
     x="0"
     y="0"
     width="100%"
     height="100%" />
  <use
     xlink:href="#C01"
     transform="matrix(0.9375,0,0,0.9375,281.25,581.25)"
     id="use19821"
     x="0"
     y="0"
     width="100%"
     height="100%" />
  <use
     xlink:href="#C01"
     transform="matrix(0.9375,0,0,0.9375,356.25,581.25)"
     id="use19823"
     x="0"
     y="0"
     width="100%"
     height="100%" />
  <use
     xlink:href="#C01"
     transform="matrix(0.9375,0,0,0.9375,393.75,581.25)"
     id="use19825"
     x="0"
     y="0"
     width="100%"
     height="100%" />
  <use
     xlink:href="#C01"
     transform="matrix(0.9375,0,0,0.9375,468.75,581.25)"
     id="use19827"
     x="0"
     y="0"
     width="100%"
     height="100%" />
  <use
     xlink:href="#C01"
     transform="matrix(0.9375,0,0,0.9375,506.25,581.25)"
     id="use19829"
     x="0"
     y="0"
     width="100%"
     height="100%" />
  <use
     xlink:href="#C01"
     transform="matrix(0.9375,0,0,0.9375,581.25,581.25)"
     id="use19831"
     x="0"
     y="0"
     width="100%"
     height="100%" />
  <use
     xlink:href="#C02"
     transform="matrix(0.9375,0,0,0.9375,56.25,18.75)"
     id="use19833"
     x="0"
     y="0"
     width="100%"
     height="100%" />
  <use
     xlink:href="#C02"
     transform="matrix(0.9375,0,0,0.9375,131.25,18.75)"
     id="use19835"
     x="0"
     y="0"
     width="100%"
     height="100%" />
  <use
     xlink:href="#C02"
     transform="matrix(0.9375,0,0,0.9375,168.75,18.75)"
     id="use19837"
     x="0"
     y="0"
     width="100%"
     height="100%" />
  <use
     xlink:href="#C02"
     transform="matrix(0.9375,0,0,0.9375,243.75,18.75)"
     id="use19839"
     x="0"
     y="0"
     width="100%"
     height="100%" />
  <use
     xlink:href="#C02"
     transform="matrix(0.9375,0,0,0.9375,356.25,18.75)"
     id="use19841"
     x="0"
     y="0"
     width="100%"
     height="100%" />
  <use
     xlink:href="#C02"
     transform="matrix(0.9375,0,0,0.9375,393.75,18.75)"
     id="use19843"
     x="0"
     y="0"
     width="100%"
     height="100%" />
  <use
     xlink:href="#C02"
     transform="matrix(0.9375,0,0,0.9375,506.25,18.75)"
     id="use19845"
     x="0"
     y="0"
     width="100%"
     height="100%" />
  <use
     xlink:href="#C02"
     transform="matrix(0.9375,0,0,0.9375,543.75,18.75)"
     id="use19847"
     x="0"
     y="0"
     width="100%"
     height="100%" />
  <use
     xlink:href="#C02"
     transform="matrix(0.9375,0,0,0.9375,581.25,18.75)"
     id="use19849"
     x="0"
     y="0"
     width="100%"
     height="100%" />
  <use
     xlink:href="#C02"
     transform="matrix(0.9375,0,0,0.9375,18.75,56.25)"
     id="use19851"
     x="0"
     y="0"
     width="100%"
     height="100%" />
  <use
     xlink:href="#C02"
     transform="matrix(0.9375,0,0,0.9375,56.25,56.25)"
     id="use19853"
     x="0"
     y="0"
     width="100%"
     height="100%" />
  <use
     xlink:href="#C02"
     transform="matrix(0.9375,0,0,0.9375,93.75,56.25)"
     id="use19855"
     x="0"
     y="0"
     width="100%"
     height="100%" />
  <use
     xlink:href="#C02"
     transform="matrix(0.9375,0,0,0.9375,131.25,56.25)"
     id="use19857"
     x="0"
     y="0"
     width="100%"
     height="100%" />
  <use
     xlink:href="#C02"
     transform="matrix(0.9375,0,0,0.9375,168.75,56.25)"
     id="use19859"
     x="0"
     y="0"
     width="100%"
     height="100%" />
  <use
     xlink:href="#C02"
     transform="matrix(0.9375,0,0,0.9375,281.25,56.25)"
     id="use19861"
     x="0"
     y="0"
     width="100%"
     height="100%" />
  <use
     xlink:href="#C02"
     transform="matrix(0.9375,0,0,0.9375,393.75,56.25)"
     id="use19863"
     x="0"
     y="0"
     width="100%"
     height="100%" />
  <use
     xlink:href="#C02"
     transform="matrix(0.9375,0,0,0.9375,431.25,56.25)"
     id="use19865"
     x="0"
     y="0"
     width="100%"
     height="100%" />
  <use
     xlink:href="#C02"
     transform="matrix(0.9375,0,0,0.9375,468.75,56.25)"
     id="use19867"
     x="0"
     y="0"
     width="100%"
     height="100%" />
  <use
     xlink:href="#C02"
     transform="matrix(0.9375,0,0,0.9375,18.75,93.75)"
     id="use19869"
     x="0"
     y="0"
     width="100%"
     height="100%" />
  <use
     xlink:href="#C02"
     transform="matrix(0.9375,0,0,0.9375,56.25,93.75)"
     id="use19871"
     x="0"
     y="0"
     width="100%"
     height="100%" />
  <use
     xlink:href="#C02"
     transform="matrix(0.9375,0,0,0.9375,131.25,93.75)"
     id="use19873"
     x="0"
     y="0"
     width="100%"
     height="100%" />
  <use
     xlink:href="#C02"
     transform="matrix(0.9375,0,0,0.9375,206.25,93.75)"
     id="use19875"
     x="0"
     y="0"
     width="100%"
     height="100%" />
  <use
     xlink:href="#C02"
     transform="matrix(0.9375,0,0,0.9375,243.75,93.75)"
     id="use19877"
     x="0"
     y="0"
     width="100%"
     height="100%" />
  <use
     xlink:href="#C02"
     transform="matrix(0.9375,0,0,0.9375,318.75,93.75)"
     id="use19879"
     x="0"
     y="0"
     width="100%"
     height="100%" />
  <use
     xlink:href="#C02"
     transform="matrix(0.9375,0,0,0.9375,506.25,93.75)"
     id="use19881"
     x="0"
     y="0"
     width="100%"
     height="100%" />
  <use
     xlink:href="#C02"
     transform="matrix(0.9375,0,0,0.9375,543.75,93.75)"
     id="use19883"
     x="0"
     y="0"
     width="100%"
     height="100%" />
  <use
     xlink:href="#C02"
     transform="matrix(0.9375,0,0,0.9375,18.75,131.25)"
     id="use19885"
     x="0"
     y="0"
     width="100%"
     height="100%" />
  <use
     xlink:href="#C02"
     transform="matrix(0.9375,0,0,0.9375,168.75,131.25)"
     id="use19887"
     x="0"
     y="0"
     width="100%"
     height="100%" />
  <use
     xlink:href="#C02"
     transform="matrix(0.9375,0,0,0.9375,206.25,131.25)"
     id="use19889"
     x="0"
     y="0"
     width="100%"
     height="100%" />
  <use
     xlink:href="#C02"
     transform="matrix(0.9375,0,0,0.9375,318.75,131.25)"
     id="use19891"
     x="0"
     y="0"
     width="100%"
     height="100%" />
  <use
     xlink:href="#C02"
     transform="matrix(0.9375,0,0,0.9375,431.25,131.25)"
     id="use19893"
     x="0"
     y="0"
     width="100%"
     height="100%" />
  <use
     xlink:href="#C02"
     transform="matrix(0.9375,0,0,0.9375,468.75,131.25)"
     id="use19895"
     x="0"
     y="0"
     width="100%"
     height="100%" />
  <use
     xlink:href="#C02"
     transform="matrix(0.9375,0,0,0.9375,581.25,131.25)"
     id="use19897"
     x="0"
     y="0"
     width="100%"
     height="100%" />
  <use
     xlink:href="#C02"
     transform="matrix(0.9375,0,0,0.9375,93.75,168.75)"
     id="use19899"
     x="0"
     y="0"
     width="100%"
     height="100%" />
  <use
     xlink:href="#C02"
     transform="matrix(0.9375,0,0,0.9375,206.25,168.75)"
     id="use19901"
     x="0"
     y="0"
     width="100%"
     height="100%" />
  <use
     xlink:href="#C02"
     transform="matrix(0.9375,0,0,0.9375,243.75,168.75)"
     id="use19903"
     x="0"
     y="0"
     width="100%"
     height="100%" />
  <use
     xlink:href="#C02"
     transform="matrix(0.9375,0,0,0.9375,318.75,168.75)"
     id="use19905"
     x="0"
     y="0"
     width="100%"
     height="100%" />
  <use
     xlink:href="#C02"
     transform="matrix(0.9375,0,0,0.9375,393.75,168.75)"
     id="use19907"
     x="0"
     y="0"
     width="100%"
     height="100%" />
  <use
     xlink:href="#C02"
     transform="matrix(0.9375,0,0,0.9375,431.25,168.75)"
     id="use19909"
     x="0"
     y="0"
     width="100%"
     height="100%" />
  <use
     xlink:href="#C02"
     transform="matrix(0.9375,0,0,0.9375,581.25,168.75)"
     id="use19911"
     x="0"
     y="0"
     width="100%"
     height="100%" />
  <use
     xlink:href="#C02"
     transform="matrix(0.9375,0,0,0.9375,18.75,206.25)"
     id="use19913"
     x="0"
     y="0"
     width="100%"
     height="100%" />
  <use
     xlink:href="#C02"
     transform="matrix(0.9375,0,0,0.9375,93.75,206.25)"
     id="use19915"
     x="0"
     y="0"
     width="100%"
     height="100%" />
  <use
     xlink:href="#C02"
     transform="matrix(0.9375,0,0,0.9375,131.25,206.25)"
     id="use19917"
     x="0"
     y="0"
     width="100%"
     height="100%" />
  <use
     xlink:href="#C02"
     transform="matrix(0.9375,0,0,0.9375,168.75,206.25)"
     id="use19919"
     x="0"
     y="0"
     width="100%"
     height="100%" />
  <use
     xlink:href="#C02"
     transform="matrix(0.9375,0,0,0.9375,243.75,206.25)"
     id="use19921"
     x="0"
     y="0"
     width="100%"
     height="100%" />
  <use
     xlink:href="#C02"
     transform="matrix(0.9375,0,0,0.9375,468.75,206.25)"
     id="use19923"
     x="0"
     y="0"
     width="100%"
     height="100%" />
  <use
     xlink:href="#C02"
     transform="matrix(0.9375,0,0,0.9375,506.25,206.25)"
     id="use19925"
     x="0"
     y="0"
     width="100%"
     height="100%" />
  <use
     xlink:href="#C02"
     transform="matrix(0.9375,0,0,0.9375,581.25,206.25)"
     id="use19927"
     x="0"
     y="0"
     width="100%"
     height="100%" />
  <use
     xlink:href="#C02"
     transform="matrix(0.9375,0,0,0.9375,18.75,243.75)"
     id="use19929"
     x="0"
     y="0"
     width="100%"
     height="100%" />
  <use
     xlink:href="#C02"
     transform="matrix(0.9375,0,0,0.9375,56.25,243.75)"
     id="use19931"
     x="0"
     y="0"
     width="100%"
     height="100%" />
  <use
     xlink:href="#C02"
     transform="matrix(0.9375,0,0,0.9375,93.75,243.75)"
     id="use19933"
     x="0"
     y="0"
     width="100%"
     height="100%" />
  <use
     xlink:href="#C02"
     transform="matrix(0.9375,0,0,0.9375,131.25,243.75)"
     id="use19935"
     x="0"
     y="0"
     width="100%"
     height="100%" />
  <use
     xlink:href="#C02"
     transform="matrix(0.9375,0,0,0.9375,243.75,243.75)"
     id="use19937"
     x="0"
     y="0"
     width="100%"
     height="100%" />
  <use
     xlink:href="#C02"
     transform="matrix(0.9375,0,0,0.9375,281.25,243.75)"
     id="use19939"
     x="0"
     y="0"
     width="100%"
     height="100%" />
  <use
     xlink:href="#C02"
     transform="matrix(0.9375,0,0,0.9375,356.25,243.75)"
     id="use19941"
     x="0"
     y="0"
     width="100%"
     height="100%" />
  <use
     xlink:href="#C02"
     transform="matrix(0.9375,0,0,0.9375,506.25,243.75)"
     id="use19943"
     x="0"
     y="0"
     width="100%"
     height="100%" />
  <use
     xlink:href="#C02"
     transform="matrix(0.9375,0,0,0.9375,581.25,243.75)"
     id="use19945"
     x="0"
     y="0"
     width="100%"
     height="100%" />
  <use
     xlink:href="#C02"
     transform="matrix(0.9375,0,0,0.9375,18.75,281.25)"
     id="use19947"
     x="0"
     y="0"
     width="100%"
     height="100%" />
  <use
     xlink:href="#C02"
     transform="matrix(0.9375,0,0,0.9375,206.25,281.25)"
     id="use19949"
     x="0"
     y="0"
     width="100%"
     height="100%" />
  <use
     xlink:href="#C02"
     transform="matrix(0.9375,0,0,0.9375,281.25,281.25)"
     id="use19951"
     x="0"
     y="0"
     width="100%"
     height="100%" />
  <use
     xlink:href="#C02"
     transform="matrix(0.9375,0,0,0.9375,468.75,281.25)"
     id="use19953"
     x="0"
     y="0"
     width="100%"
     height="100%" />
  <use
     xlink:href="#C02"
     transform="matrix(0.9375,0,0,0.9375,18.75,318.75)"
     id="use19955"
     x="0"
     y="0"
     width="100%"
     height="100%" />
  <use
     xlink:href="#C02"
     transform="matrix(0.9375,0,0,0.9375,56.25,318.75)"
     id="use19957"
     x="0"
     y="0"
     width="100%"
     height="100%" />
  <use
     xlink:href="#C02"
     transform="matrix(0.9375,0,0,0.9375,93.75,318.75)"
     id="use19959"
     x="0"
     y="0"
     width="100%"
     height="100%" />
  <use
     xlink:href="#C02"
     transform="matrix(0.9375,0,0,0.9375,206.25,318.75)"
     id="use19961"
     x="0"
     y="0"
     width="100%"
     height="100%" />
  <use
     xlink:href="#C02"
     transform="matrix(0.9375,0,0,0.9375,243.75,318.75)"
     id="use19963"
     x="0"
     y="0"
     width="100%"
     height="100%" />
  <use
     xlink:href="#C02"
     transform="matrix(0.9375,0,0,0.9375,356.25,318.75)"
     id="use19965"
     x="0"
     y="0"
     width="100%"
     height="100%" />
  <use
     xlink:href="#C02"
     transform="matrix(0.9375,0,0,0.9375,393.75,318.75)"
     id="use19967"
     x="0"
     y="0"
     width="100%"
     height="100%" />
  <use
     xlink:href="#C02"
     transform="matrix(0.9375,0,0,0.9375,468.75,318.75)"
     id="use19969"
     x="0"
     y="0"
     width="100%"
     height="100%" />
  <use
     xlink:href="#C02"
     transform="matrix(0.9375,0,0,0.9375,543.75,318.75)"
     id="use19971"
     x="0"
     y="0"
     width="100%"
     height="100%" />
  <use
     xlink:href="#C02"
     transform="matrix(0.9375,0,0,0.9375,581.25,318.75)"
     id="use19973"
     x="0"
     y="0"
     width="100%"
     height="100%" />
  <use
     xlink:href="#C02"
     transform="matrix(0.9375,0,0,0.9375,18.75,356.25)"
     id="use19975"
     x="0"
     y="0"
     width="100%"
     height="100%" />
  <use
     xlink:href="#C02"
     transform="matrix(0.9375,0,0,0.9375,56.25,356.25)"
     id="use19977"
     x="0"
     y="0"
     width="100%"
     height="100%" />
  <use
     xlink:href="#C02"
     transform="matrix(0.9375,0,0,0.9375,281.25,356.25)"
     id="use19979"
     x="0"
     y="0"
     width="100%"
     height="100%" />
  <use
     xlink:href="#C02"
     transform="matrix(0.9375,0,0,0.9375,356.25,356.25)"
     id="use19981"
     x="0"
     y="0"
     width="100%"
     height="100%" />
  <use
     xlink:href="#C02"
     transform="matrix(0.9375,0,0,0.9375,431.25,356.25)"
     id="use19983"
     x="0"
     y="0"
     width="100%"
     height="100%" />
  <use
     xlink:href="#C02"
     transform="matrix(0.9375,0,0,0.9375,468.75,356.25)"
     id="use19985"
     x="0"
     y="0"
     width="100%"
     height="100%" />
  <use
     xlink:href="#C02"
     transform="matrix(0.9375,0,0,0.9375,506.25,356.25)"
     id="use19987"
     x="0"
     y="0"
     width="100%"
     height="100%" />
  <use
     xlink:href="#C02"
     transform="matrix(0.9375,0,0,0.9375,543.75,356.25)"
     id="use19989"
     x="0"
     y="0"
     width="100%"
     height="100%" />
  <use
     xlink:href="#C02"
     transform="matrix(0.9375,0,0,0.9375,581.25,356.25)"
     id="use19991"
     x="0"
     y="0"
     width="100%"
     height="100%" />
  <use
     xlink:href="#C02"
     transform="matrix(0.9375,0,0,0.9375,18.75,393.75)"
     id="use19993"
     x="0"
     y="0"
     width="100%"
     height="100%" />
  <use
     xlink:href="#C02"
     transform="matrix(0.9375,0,0,0.9375,56.25,393.75)"
     id="use19995"
     x="0"
     y="0"
     width="100%"
     height="100%" />
  <use
     xlink:href="#C02"
     transform="matrix(0.9375,0,0,0.9375,131.25,393.75)"
     id="use19997"
     x="0"
     y="0"
     width="100%"
     height="100%" />
  <use
     xlink:href="#C02"
     transform="matrix(0.9375,0,0,0.9375,281.25,393.75)"
     id="use19999"
     x="0"
     y="0"
     width="100%"
     height="100%" />
  <use
     xlink:href="#C02"
     transform="matrix(0.9375,0,0,0.9375,318.75,393.75)"
     id="use20001"
     x="0"
     y="0"
     width="100%"
     height="100%" />
  <use
     xlink:href="#C02"
     transform="matrix(0.9375,0,0,0.9375,356.25,393.75)"
     id="use20003"
     x="0"
     y="0"
     width="100%"
     height="100%" />
  <use
     xlink:href="#C02"
     transform="matrix(0.9375,0,0,0.9375,506.25,393.75)"
     id="use20005"
     x="0"
     y="0"
     width="100%"
     height="100%" />
  <use
     xlink:href="#C02"
     transform="matrix(0.9375,0,0,0.9375,581.25,393.75)"
     id="use20007"
     x="0"
     y="0"
     width="100%"
     height="100%" />
  <use
     xlink:href="#C02"
     transform="matrix(0.9375,0,0,0.9375,168.75,431.25)"
     id="use20009"
     x="0"
     y="0"
     width="100%"
     height="100%" />
  <use
     xlink:href="#C02"
     transform="matrix(0.9375,0,0,0.9375,243.75,431.25)"
     id="use20011"
     x="0"
     y="0"
     width="100%"
     height="100%" />
  <use
     xlink:href="#C02"
     transform="matrix(0.9375,0,0,0.9375,431.25,431.25)"
     id="use20013"
     x="0"
     y="0"
     width="100%"
     height="100%" />
  <use
     xlink:href="#C02"
     transform="matrix(0.9375,0,0,0.9375,506.25,431.25)"
     id="use20015"
     x="0"
     y="0"
     width="100%"
     height="100%" />
  <use
     xlink:href="#C02"
     transform="matrix(0.9375,0,0,0.9375,18.75,468.75)"
     id="use20017"
     x="0"
     y="0"
     width="100%"
     height="100%" />
  <use
     xlink:href="#C02"
     transform="matrix(0.9375,0,0,0.9375,131.25,468.75)"
     id="use20019"
     x="0"
     y="0"
     width="100%"
     height="100%" />
  <use
     xlink:href="#C02"
     transform="matrix(0.9375,0,0,0.9375,168.75,468.75)"
     id="use20021"
     x="0"
     y="0"
     width="100%"
     height="100%" />
  <use
     xlink:href="#C02"
     transform="matrix(0.9375,0,0,0.9375,243.75,468.75)"
     id="use20023"
     x="0"
     y="0"
     width="100%"
     height="100%" />
  <use
     xlink:href="#C02"
     transform="matrix(0.9375,0,0,0.9375,281.25,468.75)"
     id="use20025"
     x="0"
     y="0"
     width="100%"
     height="100%" />
  <use
     xlink:href="#C02"
     transform="matrix(0.9375,0,0,0.9375,356.25,468.75)"
     id="use20027"
     x="0"
     y="0"
     width="100%"
     height="100%" />
  <use
     xlink:href="#C02"
     transform="matrix(0.9375,0,0,0.9375,56.25,506.25)"
     id="use20029"
     x="0"
     y="0"
     width="100%"
     height="100%" />
  <use
     xlink:href="#C02"
     transform="matrix(0.9375,0,0,0.9375,318.75,506.25)"
     id="use20031"
     x="0"
     y="0"
     width="100%"
     height="100%" />
  <use
     xlink:href="#C02"
     transform="matrix(0.9375,0,0,0.9375,356.25,506.25)"
     id="use20033"
     x="0"
     y="0"
     width="100%"
     height="100%" />
  <use
     xlink:href="#C02"
     transform="matrix(0.9375,0,0,0.9375,468.75,506.25)"
     id="use20035"
     x="0"
     y="0"
     width="100%"
     height="100%" />
  <use
     xlink:href="#C02"
     transform="matrix(0.9375,0,0,0.9375,506.25,506.25)"
     id="use20037"
     x="0"
     y="0"
     width="100%"
     height="100%" />
  <use
     xlink:href="#C02"
     transform="matrix(0.9375,0,0,0.9375,581.25,506.25)"
     id="use20039"
     x="0"
     y="0"
     width="100%"
     height="100%" />
  <use
     xlink:href="#C02"
     transform="matrix(0.9375,0,0,0.9375,93.75,543.75)"
     id="use20041"
     x="0"
     y="0"
     width="100%"
     height="100%" />
  <use
     xlink:href="#C02"
     transform="matrix(0.9375,0,0,0.9375,168.75,543.75)"
     id="use20043"
     x="0"
     y="0"
     width="100%"
     height="100%" />
  <use
     xlink:href="#C02"
     transform="matrix(0.9375,0,0,0.9375,281.25,543.75)"
     id="use20045"
     x="0"
     y="0"
     width="100%"
     height="100%" />
  <use
     xlink:href="#C02"
     transform="matrix(0.9375,0,0,0.9375,356.25,543.75)"
     id="use20047"
     x="0"
     y="0"
     width="100%"
     height="100%" />
  <use
     xlink:href="#C02"
     transform="matrix(0.9375,0,0,0.9375,431.25,543.75)"
     id="use20049"
     x="0"
     y="0"
     width="100%"
     height="100%" />
  <use
     xlink:href="#C02"
     transform="matrix(0.9375,0,0,0.9375,543.75,543.75)"
     id="use20051"
     x="0"
     y="0"
     width="100%"
     height="100%" />
  <use
     xlink:href="#C02"
     transform="matrix(0.9375,0,0,0.9375,18.75,581.25)"
     id="use20053"
     x="0"
     y="0"
     width="100%"
     height="100%" />
  <use
     xlink:href="#C02"
     transform="matrix(0.9375,0,0,0.9375,56.25,581.25)"
     id="use20055"
     x="0"
     y="0"
     width="100%"
     height="100%" />
  <use
     xlink:href="#C02"
     transform="matrix(0.9375,0,0,0.9375,131.25,581.25)"
     id="use20057"
     x="0"
     y="0"
     width="100%"
     height="100%" />
  <use
     xlink:href="#C02"
     transform="matrix(0.9375,0,0,0.9375,243.75,581.25)"
     id="use20059"
     x="0"
     y="0"
     width="100%"
     height="100%" />
  <use
     xlink:href="#C02"
     transform="matrix(0.9375,0,0,0.9375,318.75,581.25)"
     id="use20061"
     x="0"
     y="0"
     width="100%"
     height="100%" />
  <use
     xlink:href="#C02"
     transform="matrix(0.9375,0,0,0.9375,431.25,581.25)"
     id="use20063"
     x="0"
     y="0"
     width="100%"
     height="100%" />
  <use
     xlink:href="#C02"
     transform="matrix(0.9375,0,0,0.9375,543.75,581.25)"
     id="use20065"
     x="0"
     y="0"
     width="100%"
     height="100%" />
</svg>
