<?xml version="1.0" encoding="UTF-8" standalone="no"?>
<svg
   xmlns:dc="http://purl.org/dc/elements/1.1/"
   xmlns:cc="http://creativecommons.org/ns#"
   xmlns:rdf="http://www.w3.org/1999/02/22-rdf-syntax-ns#"
   xmlns:svg="http://www.w3.org/2000/svg"
   xmlns="http://www.w3.org/2000/svg"
   version="1.1"
   id="svg16066"
   viewBox="0 0 744.09448819 1052.3622047"
   height="297mm"
   width="210mm">
  <defs
     id="defs16068" />
  <metadata
     id="metadata16071">
    <rdf:RDF>
      <cc:Work
         rdf:about="">
        <dc:format>image/svg+xml</dc:format>
        <dc:type
           rdf:resource="http://purl.org/dc/dcmitype/StillImage" />
        <dc:title></dc:title>
      </cc:Work>
    </rdf:RDF>
  </metadata>
  <g
     id="layer1">
    <path
       id="path16625"
       d="m 345,138.79078 -13.57143,-22.14286 -72.85714,-14.28572 -16.42857,17.85715 -6.42857,-1.42857 -82.85715,45 -8.57143,10 178.57143,-32.85715 25,12.85715 37.85715,-2.14286 -29.28572,-12.85714 z"
       style="fill:none;fill-rule:evenodd;stroke:#000000;stroke-width:1px;stroke-linecap:butt;stroke-linejoin:miter;stroke-opacity:1" />
    <path
       id="path16627"
       d="m 242.85714,118.79078 c 60,8.57142 60,9.28571 60,9.28571 L 325,124.50506 l 10,20.71429 -31.42857,-17.14286"
       style="fill:none;fill-rule:evenodd;stroke:#000000;stroke-width:1px;stroke-linecap:butt;stroke-linejoin:miter;stroke-opacity:1" />
    <path
       id="path16631"
       d="m 385,151.64792 -9.28571,19.28571 -73.57143,14.28572 23.57143,-45.71429"
       style="fill:none;fill-rule:evenodd;stroke:#000000;stroke-width:1px;stroke-linecap:butt;stroke-linejoin:miter;stroke-opacity:1" />
    <path
       id="path16633"
       d="M 377.85714,165.93363 369.28571,152.3622"
       style="fill:none;fill-rule:evenodd;stroke:#000000;stroke-width:1px;stroke-linecap:butt;stroke-linejoin:miter;stroke-opacity:1" />
    <path
       id="path16635"
       d="m 280,105.21935 -42.14286,-46.428575 0.71429,59.285715"
       style="fill:none;fill-rule:evenodd;stroke:#000000;stroke-width:1px;stroke-linecap:butt;stroke-linejoin:miter;stroke-opacity:1" />
    <path
       id="path16637"
       d="m 238.57143,105.93363 -25.71429,-24.285712 5,45.714282"
       style="fill:none;fill-rule:evenodd;stroke:#000000;stroke-width:1px;stroke-linecap:butt;stroke-linejoin:miter;stroke-opacity:1" />
    <path
       id="path16639"
       d="m 178.57143,165.93363 125,18.57143 -90.71429,30.71429 -101.42857,52.14285 40.71429,-95"
       style="fill:none;fill-rule:evenodd;stroke:#000000;stroke-width:1px;stroke-linecap:butt;stroke-linejoin:miter;stroke-opacity:1" />
    <path
       id="path16641"
       d="m 302.14286,185.21935 -8.57143,21.42857 -72.85714,50 -98.57143,83.57143 1.42857,-80"
       style="fill:none;fill-rule:evenodd;stroke:#000000;stroke-width:1px;stroke-linecap:butt;stroke-linejoin:miter;stroke-opacity:1" />
    <path
       id="path16643"
       d="m 290.71429,208.07649 18.57142,58.57143 -53.57142,45.71428 -50.71429,55 -71.42857,-37.85714"
       style="fill:none;fill-rule:evenodd;stroke:#000000;stroke-width:1px;stroke-linecap:butt;stroke-linejoin:miter;stroke-opacity:1" />
    <path
       id="path16645"
       d="m 308.57143,266.64792 -45.71429,-35 -58.57143,135"
       style="fill:none;fill-rule:evenodd;stroke:#000000;stroke-width:1px;stroke-linecap:butt;stroke-linejoin:miter;stroke-opacity:1" />
    <path
       id="path16647"
       d="m 131.42857,333.07649 35,51.42857 4.28572,124.28572 -8.57143,20 -16.42857,19.28571 45,-12.14286 -2.14286,-121.42857 17.14286,-48.57143"
       style="fill:none;fill-rule:evenodd;stroke:#000000;stroke-width:1px;stroke-linecap:butt;stroke-linejoin:miter;stroke-opacity:1" />
    <path
       id="path16649"
       d="M 188.57143,425.21935 170,486.64792"
       style="fill:none;fill-rule:evenodd;stroke:#000000;stroke-width:1px;stroke-linecap:butt;stroke-linejoin:miter;stroke-opacity:1" />
    <path
       id="path16651"
       d="M 160.71429,529.50506 190,533.07649"
       style="fill:none;fill-rule:evenodd;stroke:#000000;stroke-width:1px;stroke-linecap:butt;stroke-linejoin:miter;stroke-opacity:1" />
    <path
       id="path16653"
       d="m 310.71429,265.93363 -23.57143,62.85715 -45,57.14285 -2.85715,49.28572 15.71429,24.28571 -4.28571,10 -1.42858,55.71429 17.85715,12.85714 -25.71429,15.71429 -23.57143,-15 12.85715,-14.28572 L 230,472.3622 l -13.57143,-10.71428 5.71429,-23.57143 -18.57143,-64.28571"
       style="fill:none;fill-rule:evenodd;stroke:#000000;stroke-width:1px;stroke-linecap:butt;stroke-linejoin:miter;stroke-opacity:1" />
    <path
       id="path16655"
       d="m 194.28571,398.79078 18.57143,10"
       style="fill:none;fill-rule:evenodd;stroke:#000000;stroke-width:1px;stroke-linecap:butt;stroke-linejoin:miter;stroke-opacity:1" />
    <path
       id="path16657"
       d="m 205,379.50506 38.57143,62.85714 -14.28572,39.28572 19.28572,45 -7.85714,24.28571"
       style="fill:none;fill-rule:evenodd;stroke:#000000;stroke-width:1px;stroke-linecap:butt;stroke-linejoin:miter;stroke-opacity:1" />
    <path
       id="path16659"
       d="m 221.42857,538.79078 44.28572,-0.71429"
       style="fill:none;fill-rule:evenodd;stroke:#000000;stroke-width:1px;stroke-linecap:butt;stroke-linejoin:miter;stroke-opacity:1" />
    <path
       id="path16661"
       d="m 295.71429,226.64792 48.57142,30.71428 -58.57142,72.85715"
       style="fill:none;fill-rule:evenodd;stroke:#000000;stroke-width:1px;stroke-linecap:butt;stroke-linejoin:miter;stroke-opacity:1" />
    <path
       id="path16663"
       d="m 256.42857,368.07649 27.85714,30.71429 3.57143,27.14285 10.71429,15.71429 -30,65 0,17.14286 L 250,525.21935"
       style="fill:none;fill-rule:evenodd;stroke:#000000;stroke-width:1px;stroke-linecap:butt;stroke-linejoin:miter;stroke-opacity:1" />
    <path
       id="path16665"
       d="m 250,508.79078 6.42857,-5 17.85714,-57.85715 -33.57142,-24.28571"
       style="fill:none;fill-rule:evenodd;stroke:#000000;stroke-width:1px;stroke-linecap:butt;stroke-linejoin:miter;stroke-opacity:1" />
    <path
       id="path16667"
       d="m 284.28571,398.79078 -15,42.14285"
       style="fill:none;fill-rule:evenodd;stroke:#000000;stroke-width:1px;stroke-linecap:butt;stroke-linejoin:miter;stroke-opacity:1" />
    <path
       id="path16669"
       d="m 297.85714,443.79078 -25,6.42857"
       style="fill:none;fill-rule:evenodd;stroke:#000000;stroke-width:1px;stroke-linecap:butt;stroke-linejoin:miter;stroke-opacity:1" />
    <path
       id="path16671"
       d="m 267.85714,509.50506 -11.42857,-6.42857"
       style="fill:none;fill-rule:evenodd;stroke:#000000;stroke-width:1px;stroke-linecap:butt;stroke-linejoin:miter;stroke-opacity:1" />
    <path
       id="path16673"
       d="m 344.28571,256.64792 22.85715,91.42857 5.71428,62.85714 0,33.57143 L 285,405.21935"
       style="fill:none;fill-rule:evenodd;stroke:#000000;stroke-width:1px;stroke-linecap:butt;stroke-linejoin:miter;stroke-opacity:1" />
    <path
       id="path16675"
       d="m 372.14286,405.21935 28.57143,27.85714 -28.57143,8.57143"
       style="fill:none;fill-rule:evenodd;stroke:#000000;stroke-width:1px;stroke-linecap:butt;stroke-linejoin:miter;stroke-opacity:1" />
    <path
       id="path16677"
       d="m 400.71429,431.64792 -8.57143,85.71428 13.57143,9.28572 -5.71429,15 -18.57143,7.85714 -22.14286,-7.14286 -6.42857,-7.14285 1.42857,-8.57143 20,-11.42857 -2.14285,-72.85715"
       style="fill:none;fill-rule:evenodd;stroke:#000000;stroke-width:1px;stroke-linecap:butt;stroke-linejoin:miter;stroke-opacity:1" />
    <path
       id="path16679"
       d="m 352.85714,528.07649 28.57143,2.85714 19.28572,9.28572"
       style="fill:none;fill-rule:evenodd;stroke:#000000;stroke-width:1px;stroke-linecap:butt;stroke-linejoin:miter;stroke-opacity:1" />
    <path
       id="path16681"
       d="M 381.42857,530.21935 365,543.79078"
       style="fill:none;fill-rule:evenodd;stroke:#000000;stroke-width:1px;stroke-linecap:butt;stroke-linejoin:miter;stroke-opacity:1" />
    <path
       id="path16683"
       d="m 343.57143,256.64792 28.57143,50 27.85714,29.28571 31.42857,87.85715 -64.28571,-74.28572"
       style="fill:none;fill-rule:evenodd;stroke:#000000;stroke-width:1px;stroke-linecap:butt;stroke-linejoin:miter;stroke-opacity:1" />
    <path
       id="path16685"
       d="m 400.71429,335.21935 55.71428,48.57143 -12.85714,14.28571 -26.42857,-13.57143"
       style="fill:none;fill-rule:evenodd;stroke:#000000;stroke-width:1px;stroke-linecap:butt;stroke-linejoin:miter;stroke-opacity:1" />
    <path
       id="path16687"
       d="m 425,353.07649 14.28571,-1.42857 88.57143,37.14286 -44.28571,12.85714 -27.85714,-18.57143 16.42857,-17.85714 11.42857,34.28571"
       style="fill:none;fill-rule:evenodd;stroke:#000000;stroke-width:1px;stroke-linecap:butt;stroke-linejoin:miter;stroke-opacity:1" />
  </g>
</svg>
