<svg width="1435" height="1409" viewBox="0 0 1435 1409" xmlns="http://www.w3.org/2000/svg" stroke-linejoin="round"><style>.a{fill:none;stroke-width:20px;stroke:#9bc53d;}.b{fill:none;stroke-width:20px;stroke:#E8175D;}</style><path d="M78.1 7.1c0.4 81.6 0.4 81.9 71 123 71.2 41.4 70.9 41.3 71 123 0.1 82-0.3 164.1 0 246 0.3 81.8 0.2 81.6 71 123 70.2 41.1 70.5 40.7 142 82 71 40.9 70.7 41.1 71 123 0.3 81.7-0.5 163.8 0 246 0.5 82.1 0.6 82.1-71 123 -71.1 40.6-71.2 40.7-71 123 0.2 82.2 0 82 0 82" class="a"/><path d="M362.1 7.1c0 82-0.2 164.2 0 246 0.2 82.5 0 82 71 123 70.8 40.9 70.9 40.9 71 123 0.2 81.4 0.4 81.8 0 164 -0.4 82.2-0.4 82.8-71 123 -72.1 41.1-72.1 41.4-142 82 -70.4 40.8-70.7 41.2-71 123 -0.3 81.7-0.3 82-71 123 -70.7 41-71 41-71 123 0 82.1 0 164 0 164" class="a"/><path d="M504.2 7.1c0 82.2 0.2-0.1 0 82 -0.2 82.2-0.2 82.3-71 123 -18.8 10.8-213.3 123-284.1 164 -70.9 41.1-71 41-71 123 -0.1 81.5-0.3 163.8 0 246 0.3 81.5 0.4 81.4-71 123" class="b"/><path d="M1427.4 868.1c-70.9 41-71 41.1-71 123 0 81.8 0.1-0.1 0 82 -0.1 81.7 0 82.1-71 123 -71.1 41-70.8 41.4-142 82 -71 40.5-71.1 41-71 123" class="b"/><path d="M1072.3 7.1c0.1 80.8-0.4 81.6 71 123 70.8 41.1 0.3 0.1 71 41 70.1 40.6 70.6 40.9 71 123 0.4 82 0.2 164 0 246 -0.2 81.7 0 82.2-71 123 -71.1 40.8-355.2 205-426.1 246 -70.9 41-71.2 40.8-71 123 0.2 82 0.4 0.1 0 82 -0.4 83.4-0.5 82.3 71 123 71.5 40.7-0.4-0.3 71 41 71 41.1 71 41.2 71 123" class="b"/><path d="M930.3 7.1c0.2 82.3 0.2 164.2 0 246 -0.2 82.2-0.2 81.9-71 123 -70.9 41.2 0.2 0.2-71 41 -71.2 40.9-71 41.3-71 123 0 81.7 0.2 164 0 246 -0.2 81.8 0.1 82.2-71 123 -71.1 40.8-141.6 82.3-213 123 -71.3 40.6-70.9 40.8-71 123 -0.1 81.9-0.3 81.6 71 123 71 41.2 70.9 41.1 71 123" class="b"/><path d="M646.2 7.1c0.3 81.9 0.2 81.7 0 164 -0.2 81.7 0 81.7 71 123 69.7 40.5 212.9 123.2 284.1 164 71 40.7 70.9 40.5 71 123 0.1 81.4 0.4 409.7 0 492 -0.4 81.7-0.3 82 71 123 71.1 40.9 71 40.8 142 82 70.7 41 70.7 40.9 71 123" class="a"/><path d="M1356.3 7.1c0 82.1 0.3 82.1 0 164 -0.3 81.9-0.1 82.2-71 123 -70.9 40.8 0.3-0.1-71 41 -71 41-71 40.8-71 123 0 81.3 0 245.8 0 328 0 81.8-0.3 81.6-71 123 -70.8 41.4-142.1 82.2-213 123 -70.9 40.8-70.8 41-71 123 -0.3 81.9 0 81.9-71 123 -70.9 41.1-71 41.2-71 123" class="a"/></svg>