<?xml version="1.0" encoding="UTF-8" standalone="no"?><!DOCTYPE svg PUBLIC "-//W3C//DTD SVG 1.1//EN" "http://www.w3.org/Graphics/SVG/1.1/DTD/svg11.dtd"><svg width="100%" height="100%" viewBox="0 0 1000 1000" version="1.1" xmlns="http://www.w3.org/2000/svg" xmlns:xlink="http://www.w3.org/1999/xlink" xml:space="preserve" xmlns:serif="http://www.serif.com/" style="fill-rule:evenodd;clip-rule:evenodd;stroke-linejoin:round;stroke-miterlimit:1.41421;"><path d="M1000,1000l-1000,0l0,-1000l1000,0l0,1000Zm-71.429,-76.923l0,-76.923l-71.428,76.923l71.428,0Zm-142.857,0l142.857,-153.846l0,-76.923l-214.285,230.769l71.428,0Zm-142.857,0l285.714,-307.692l0,-76.923l-357.142,384.615l71.428,0Zm-142.857,0l428.571,-461.539l0,-76.923l-500,538.462l71.429,0Zm428.571,-615.385l-571.428,615.385l-71.429,0l642.857,-692.308l0,76.923Zm-142.857,-230.769l71.429,0l-785.714,846.154l0,-76.923l714.285,-769.231Zm142.857,0l-785.714,846.154l71.429,0l714.285,-769.231l0,-76.923Zm-857.142,615.385l571.428,-615.385l71.429,0l-642.857,692.308l0,-76.923Zm0,-153.846l428.571,-461.539l71.429,0l-500,538.462l0,-76.923Zm0,-153.847l285.714,-307.692l71.428,0l-357.142,384.615l0,-76.923Zm214.285,-307.692l-214.285,230.769l0,-76.923l142.857,-153.846l71.428,0Zm-214.285,0l71.428,0l-71.428,76.923l0,-76.923Z" style="fill:#022F40; fill-opacity:0.92;"/></svg>