<svg width="900px" height="900px" viewBox="0 0 1424 1404" xmlns="http://www.w3.org/2000/svg"> 
	<style type='text/css'>
		.colour1{ stroke:#1b998b;}
		.colour2{ stroke:#E8175D;}
		path {
			fill:none;
			stroke-width:3px;
			stroke-dasharray: 100,30,80,30,70,30,120,30,90,30,110,30 ;
			animation: dash 20s infinite linear;
		}
		@keyframes dash {
			to {
				stroke-dashoffset: -3000;
			}
		}
	</style>
	<g>
		<path class="colour1" d="M77.564,7.071c0.404,81.393 0.382,81.638 70.493,122.618c70.638,41.288 70.385,41.186 70.492,122.617c0.108,81.743 -0.306,163.607 0,245.235c0.307,81.548 0.152,81.31 70.493,122.618c69.701,40.931 69.968,40.591 140.986,81.745c70.438,40.817 70.163,40.969 70.493,122.617c0.328,81.485 -0.466,163.288 0,245.235c0.464,81.882 0.588,81.811 -70.493,122.618c-70.577,40.517 -70.658,40.608 -70.493,122.617c0.165,81.947 0,81.745 0,81.745"/>
		<path class="colour1" d="M359.535,7.071c0,81.745 -0.238,163.696 0,245.235c0.24,82.236 0.037,81.716 70.493,122.618c70.24,40.776 70.332,40.755 70.493,122.617c0.159,81.185 0.412,81.579 0,163.49c-0.413,81.895 -0.366,82.493 -70.493,122.618c-71.604,40.97 -71.579,41.313 -140.986,81.745c-69.875,40.704 -70.178,41.032 -70.493,122.617c-0.313,81.419 -0.334,81.769 -70.492,122.618c-70.206,40.875 -70.5,40.85 -70.493,122.617c0.006,81.842 0,163.49 0,163.49" />
		<path class="colour2" d="M500.521,7.071c-0.046,81.982 0.227,-0.072 0,81.745c-0.228,81.926 -0.154,82.019 -70.493,122.618c-18.673,10.777 -211.707,122.584 -281.971,163.49c-70.364,40.963 -70.442,40.842 -70.493,122.617c-0.051,81.199 -0.278,163.326 0,245.235c0.275,81.228 0.382,81.097 -70.493,122.618"/>
		<path class="colour2" d="M1416.93,865.394c-70.419,40.868 -70.475,40.955 -70.493,122.617c-0.018,81.553 0.136,-0.105 0,81.745c-0.135,81.438 -0.008,81.82 -70.493,122.618c-70.537,40.828 -70.29,41.276 -140.985,81.745c-70.451,40.329 -70.579,40.862 -70.493,122.617"/>
		<path class="colour2" d="M1064.46,7.071c0.102,80.563 -0.365,81.347 70.493,122.618c70.317,40.956 0.316,0.13 70.492,40.872c69.634,40.427 70.104,40.725 70.493,122.618c0.389,81.701 0.202,163.528 0,245.235c-0.201,81.44 -0.027,81.96 -70.493,122.617c-70.551,40.706 -352.563,204.357 -422.956,245.235c-70.337,40.846 -70.725,40.666 -70.493,122.618c0.231,81.769 0.432,0.115 0,81.745c-0.44,83.117 -0.5,82.039 70.493,122.617c70.959,40.559 -0.376,-0.312 70.492,40.873c70.515,40.978 70.448,41.097 70.493,122.617"/>
		<path class="colour2" d="M923.477,7.071c0.228,82.017 0.191,163.737 0,245.235c-0.192,81.917 -0.178,81.632 -70.493,122.618c-70.422,41.048 0.18,0.17 -70.492,40.872c-70.712,40.724 -70.462,41.217 -70.493,122.618c-0.032,81.422 0.197,163.503 0,245.235c-0.196,81.573 0.107,81.975 -70.493,122.617c-70.599,40.642 -140.523,82.073 -211.478,122.618c-70.76,40.433 -70.427,40.682 -70.493,122.617c-0.066,81.6 -0.279,81.375 70.493,122.618c70.459,41.061 70.418,40.941 70.493,122.617" />
		<path class="colour1" d="M641.506,7.071c0.341,81.653 0.217,81.406 0,163.49c-0.215,81.479 0.042,81.457 70.493,122.618c69.175,40.415 211.342,122.841 281.971,163.49c70.447,40.544 70.355,40.354 70.493,122.617c0.136,81.149 0.395,408.436 0,490.47c-0.393,81.457 -0.331,81.716 70.493,122.618c70.572,40.756 70.522,40.717 140.985,81.745c70.16,40.851 70.188,40.803 70.493,122.617" />
		<path class="colour1" d="M1346.43,7.071c-0.009,81.872 0.262,81.857 0,163.49c-0.261,81.599 -0.141,81.932 -70.493,122.618c-70.37,40.696 0.282,-0.136 -70.493,40.872c-70.493,40.845 -70.459,40.693 -70.492,122.618c-0.034,81 0.031,245.076 0,326.98c-0.032,81.58 -0.307,81.383 -70.493,122.617c-70.256,41.276 -141.053,81.922 -211.479,122.618c-70.427,40.697 -70.232,40.86 -70.492,122.617c-0.26,81.665 -0.042,81.648 -70.493,122.618c-70.371,40.923 -70.445,41.083 -70.493,122.617" />
	</g>
</svg>
