<?xml version="1.0" encoding="UTF-8" standalone="no"?><!DOCTYPE svg PUBLIC "-//W3C//DTD SVG 1.1//EN" "http://www.w3.org/Graphics/SVG/1.1/DTD/svg11.dtd"><svg preserveAspectRatio="none" width="100%" height="100%" viewBox="0 0 246 102" version="1.1" xmlns="http://www.w3.org/2000/svg" xmlns:xlink="http://www.w3.org/1999/xlink" xml:space="preserve" xmlns:serif="http://www.serif.com/" style="fill-rule:evenodd;clip-rule:evenodd;stroke-linecap:round;stroke-linejoin:round;stroke-miterlimit:1.5;"><path id="Cheese-bottom" serif:id="Cheese bottom" d="M14.64,-0.219c-7.689,5.156 -10.029,17.028 -10.846,20.92c-0.817,3.892 -3.946,41.218 2.06,43.201c5.842,1.928 16.015,-5.314 13.551,-16.908c-2.304,-10.84 3.981,-32.698 9.531,-28.409c5.55,4.288 8.827,28.229 8.856,32.547c0.058,8.468 -5.424,24.586 -3.54,28.372c4.32,8.678 18.094,1.459 19.52,-4.98c2.341,-10.578 -6.752,-35.289 -1.282,-47.034c2.364,-5.077 19.939,-2.143 23.948,0.868c4.842,3.636 1.002,26.753 0.895,32.762c-0.192,10.788 -6.622,20.606 -2.139,29.39c1.902,3.727 13.855,2.482 17.432,-2.054c3.857,-4.89 2.841,-13.185 2.403,-23.221c-0.323,-7.415 -1.868,-31.33 1.516,-33.646c3.384,-2.316 16.615,-5.962 21.457,0.394c4.746,6.229 4.521,32.321 -0.296,37.565c-7.239,7.881 -5.196,21.36 -1.814,27.321c3.349,5.902 18.492,0.366 21.739,-6.072c4.186,-8.297 1.259,-22.549 -0.583,-28.769c-1.842,-6.22 -8.135,-22.934 -4.931,-27.334c5.451,-7.488 11.331,20.581 20.132,19.976c8.695,-0.599 14.08,-37.765 16.504,-20.148c1.963,14.272 -13.266,42.681 -10.037,53.218c2.396,7.817 14.427,8.522 19.572,1.137c5.145,-7.385 10.638,-24.004 6.201,-35.261c-3.478,-8.822 -1.596,-23.49 1.594,-25.029c8.658,-4.175 12.578,17.928 13.453,28.971c0.531,6.696 -5.017,23.525 -2.82,28.48c1.989,4.487 8.885,9.493 13.527,-1.018c4.472,-10.128 6.675,-26.512 4.035,-37.476c-1.956,-8.126 -11.652,-19.348 -7.406,-24.385c5.55,-6.584 13.954,-8.737 19.275,-6.038c6.293,3.192 3.474,22.557 1.795,31.999c-1.261,7.096 -0.635,30.457 6.731,30.067c8.359,-0.442 8.336,-37.238 8.332,-47.799c-0.004,-9.541 -5.858,-27.633 -10.44,-34.015c-16.615,-23.138 -188.031,-17.635 -217.925,2.408Z" style="fill:#fae019;stroke:#320b00;stroke-width:4.5px;"/></svg>