<?xml version="1.0" encoding="UTF-8" standalone="no"?><!DOCTYPE svg PUBLIC "-//W3C//DTD SVG 1.1//EN" "http://www.w3.org/Graphics/SVG/1.1/DTD/svg11.dtd"><svg width="100%" height="100%" viewBox="0 0 235 77" version="1.1" xmlns="http://www.w3.org/2000/svg" xmlns:xlink="http://www.w3.org/1999/xlink" xml:space="preserve" xmlns:serif="http://www.serif.com/" style="fill-rule:evenodd;clip-rule:evenodd;stroke-linecap:round;stroke-linejoin:round;stroke-miterlimit:1.5;"><g id="Bottom-Burger" serif:id="Bottom Burger"><path d="M7.122,13.035c-5.555,6.962 -7.224,33.293 -0.385,37.415c6.839,4.122 10.894,8.186 16.104,7.771c3.21,4.29 22.883,7.048 31.746,6.783c7.048,6.691 26.849,9.75 37.772,8.436c7.024,1.838 71.954,0.646 80.224,-6.982c7.869,0.434 20.415,-1.866 28.49,-7.763c9.751,-1.274 24.357,-3.438 27.497,-15.79c3.403,-13.383 6.666,-27.737 -1.404,-35.541c-6.763,-6.54 -97.593,-4.911 -110.905,-4.986c-11.375,-0.064 -102.82,2.737 -109.139,10.657Z" style="fill:#8f160a;stroke:#2b0200;stroke-width:4.5px;"/><path d="M206.101,30.903c3.682,-1.264 11.567,-2.967 18.127,-7.034" style="fill:none;stroke:#2b0200;stroke-width:3px;"/><path d="M160.333,41.059c4.495,-0.59 17.87,-5.796 24.745,-5.686" style="fill:none;stroke:#2b0200;stroke-width:3px;"/><path d="M100.722,39.686c5.714,-0.731 20.152,-1.271 27.96,-1.271c7.808,0 26.79,-0.026 31.729,-1.09" style="fill:none;stroke:#2b0200;stroke-width:3px;"/><path d="M25.724,24.46c7.721,2.186 14.807,5.328 18.986,5.718c4.18,0.391 15.822,3.941 21.913,2.08" style="fill:none;stroke:#2b0200;stroke-width:3px;"/><path d="M203.522,39.78c0.768,5.237 -2.449,18.915 -2.449,18.915" style="fill:none;stroke:#2b0200;stroke-width:3px;"/><path d="M173.889,54.087l-1.306,12.371" style="fill:none;stroke:#2b0200;stroke-width:3px;"/><path d="M126.268,46.107c-0.961,7.157 0.915,17.764 0.915,17.764" style="fill:none;stroke:#2b0200;stroke-width:3px;"/><path d="M90.852,55.975l1.507,17.465" style="fill:none;stroke:#2b0200;stroke-width:3px;"/><path d="M21.141,48.032c-0.637,4.763 1.7,10.189 1.7,10.189" style="fill:none;stroke:#2b0200;stroke-width:3px;"/><path d="M51.359,39.455c0.009,14.005 3.228,25.549 3.228,25.549" style="fill:none;stroke:#2b0200;stroke-width:3px;"/></g></svg>