<?xml version="1.0" encoding="UTF-8" standalone="no"?><!DOCTYPE svg PUBLIC "-//W3C//DTD SVG 1.1//EN" "http://www.w3.org/Graphics/SVG/1.1/DTD/svg11.dtd"><svg width="100%" height="100%" viewBox="0 0 240 84" version="1.1" xmlns="http://www.w3.org/2000/svg" xmlns:xlink="http://www.w3.org/1999/xlink" xml:space="preserve" xmlns:serif="http://www.serif.com/" style="fill-rule:evenodd;clip-rule:evenodd;stroke-linecap:round;stroke-linejoin:round;stroke-miterlimit:1.5;"><path id="Bottom-Bun" serif:id="Bottom Bun" d="M12.379,59.418c23.321,28.613 172.231,28.632 201.174,5c18.762,-15.32 27.4,-38.496 21.264,-47.528c-14.475,-21.306 -218.954,-17.264 -228.785,-1.255c-10.108,16.462 2.858,39.502 6.347,43.783Z" style="fill:#dd701d;"/><clipPath id="_clip1"><path d="M12.379,59.418c23.321,28.613 172.231,28.632 201.174,5c18.762,-15.32 27.4,-38.496 21.264,-47.528c-14.475,-21.306 -218.954,-17.264 -228.785,-1.255c-10.108,16.462 2.858,39.502 6.347,43.783Z"/></clipPath><g clip-path="url(#_clip1)"><path d="M9.79,18.976c-4.289,-8.541 77.639,-13.704 110.319,-14.104c32.036,-0.391 103.805,4.284 106.038,12.749c2.122,8.045 -52.527,22.155 -105.625,24.148c-43.742,1.643 -106.767,-14.9 -110.732,-22.793Z" style="fill:#e48e55;"/></g><path d="M12.379,59.418c23.321,28.613 172.231,28.632 201.174,5c18.762,-15.32 27.4,-38.496 21.264,-47.528c-14.475,-21.306 -218.954,-17.264 -228.785,-1.255c-10.108,16.462 2.858,39.502 6.347,43.783Z" style="fill:none;stroke:#320b00;stroke-width:4.5px;"/></svg>