<?xml version="1.0" encoding="UTF-8" standalone="no"?><!DOCTYPE svg PUBLIC "-//W3C//DTD SVG 1.1//EN" "http://www.w3.org/Graphics/SVG/1.1/DTD/svg11.dtd"><svg width="100%" height="100%" viewBox="0 0 238 70" version="1.1" xmlns="http://www.w3.org/2000/svg" xmlns:xlink="http://www.w3.org/1999/xlink" xml:space="preserve" xmlns:serif="http://www.serif.com/" style="fill-rule:evenodd;clip-rule:evenodd;stroke-linecap:round;stroke-linejoin:round;stroke-miterlimit:1.5;"><g id="Lettuce"><g><path d="M5.321,25.58c-10.228,4.343 8.37,7.424 8.37,7.424c0,0 -4.8,12.269 10.456,13.038c2.616,6.048 15.295,8.256 23.449,6.882c6.364,10.94 11.509,2.639 16.025,-2.682c5.721,-0.25 5.221,9.096 7.545,11.43c2.324,2.334 20.322,3.203 26.294,5.905c9.76,-9.306 31.127,-4.081 35.391,-13.082c17.729,6.84 40.545,2.511 45.454,-3.289c6.417,4.148 28.724,0.133 33.924,-4.799c3.792,-3.596 6.405,4.864 11.477,1.054c2.834,-6.59 10.434,-8.175 11.487,-13.941c-0.684,-8.947 -4.492,-6.106 -18.759,-11.111c-14.266,-8.566 -23.472,-11.391 -39.192,-11.366c-14.764,-5.777 -46.26,-7.045 -56.69,-7.666c-9.813,-0.585 -24.341,-3.23 -40.351,2.434c-17.161,-0.966 -27.056,0.386 -44.552,7.03c-0.389,0.147 -0.799,0.231 -1.195,0.352c-12.756,3.908 -27.098,11.215 -29.133,12.387Z" style="fill:#a1cc00;stroke:#353835;stroke-width:4.5px;"/><path d="M146.108,22.061c5.124,7.133 8.25,12.604 8.25,12.604" style="fill:none;stroke:#353835;stroke-width:3px;"/><path d="M58.835,23.238c9.184,-4.593 13.777,-5.635 13.777,-5.635" style="fill:none;stroke:#353835;stroke-width:3px;"/><path d="M195.149,31.611c6.818,2.498 20.443,13.277 20.443,13.277" style="fill:none;stroke:#353835;stroke-width:3px;"/><path d="M173.222,35.814c2.584,3.116 6.048,14.461 6.048,14.461" style="fill:none;stroke:#353835;stroke-width:3px;"/><path d="M42.657,29.518c-7.989,3.009 -18.477,12.445 -18.477,15.386" style="fill:none;stroke:#353835;stroke-width:3px;"/></g><path d="M73.94,32.403c-4.234,5.169 -8.382,16.33 -8.382,16.33" style="fill:none;stroke:#353835;stroke-width:3px;"/><path d="M126.078,32.982c2.595,5.124 7.371,22.038 7.371,22.038" style="fill:none;stroke:#353835;stroke-width:3px;"/><path d="M98.574,50.81c-0.522,-6.253 4.158,-21.788 4.158,-21.788" style="fill:none;stroke:#353835;stroke-width:3px;"/></g></svg>