<?xml version="1.0" encoding="UTF-8" standalone="no"?><!DOCTYPE svg PUBLIC "-//W3C//DTD SVG 1.1//EN" "http://www.w3.org/Graphics/SVG/1.1/DTD/svg11.dtd"><svg width="100%" height="100%" viewBox="0 0 239 88" version="1.1" xmlns="http://www.w3.org/2000/svg" xmlns:xlink="http://www.w3.org/1999/xlink" xml:space="preserve" xmlns:serif="http://www.serif.com/" style="fill-rule:evenodd;clip-rule:evenodd;stroke-linecap:round;stroke-linejoin:round;stroke-miterlimit:1.5;"><path id="Middle-Bun" serif:id="Middle Bun" d="M5.824,56.107c13.073,36.773 202.207,38.965 222.998,3.205c9.792,-16.843 9.447,-33.025 3.375,-42.418c-14.323,-22.155 -214.349,-16.694 -224.077,-0.046c-10.002,17.118 -4.716,32.451 -2.296,39.259Z" style="fill:#dd701d;"/><clipPath id="_clip1"><path d="M5.824,56.107c13.073,36.773 202.207,38.965 222.998,3.205c9.792,-16.843 9.447,-33.025 3.375,-42.418c-14.323,-22.155 -214.349,-16.694 -224.077,-0.046c-10.002,17.118 -4.716,32.451 -2.296,39.259Z"/></clipPath><g clip-path="url(#_clip1)"><path d="M12.402,20.971c-4.289,-8.54 77.639,-13.704 110.319,-14.104c32.036,-0.391 103.805,4.284 106.038,12.75c2.122,8.045 -52.527,22.154 -105.625,24.148c-43.742,1.642 -106.767,-14.9 -110.732,-22.794Z" style="fill:#e48e55;"/></g><path d="M5.824,56.107c13.073,36.773 202.207,38.965 222.998,3.205c9.792,-16.843 9.447,-33.025 3.375,-42.418c-14.323,-22.155 -214.349,-16.694 -224.077,-0.046c-10.002,17.118 -4.716,32.451 -2.296,39.259Z" style="fill:none;stroke:#320b00;stroke-width:4.5px;"/></svg>