<?xml version="1.0" encoding="UTF-8" standalone="no"?><!DOCTYPE svg PUBLIC "-//W3C//DTD SVG 1.1//EN" "http://www.w3.org/Graphics/SVG/1.1/DTD/svg11.dtd"><svg width="100%" height="100%" viewBox="0 0 218 61" version="1.1" xmlns="http://www.w3.org/2000/svg" xmlns:xlink="http://www.w3.org/1999/xlink" xml:space="preserve" xmlns:serif="http://www.serif.com/" style="fill-rule:evenodd;clip-rule:evenodd;stroke-linejoin:round;stroke-miterlimit:1.41421;"><g><g><path d="M216.352,33.009c-28.689,43.943 -146.125,26.017 -155.044,12.331c-2.896,-4.444 -2.851,-16.185 0.258,-21.358c12.252,-20.381 143.889,-28.634 154.047,-7.152c2.015,4.262 3.161,12.469 0.739,16.179Zm-10.335,-13.213c3.911,10.732 -30.762,21.46 -59.975,23.297c-28.434,1.788 -73.978,-5.65 -74.764,-12.081c-2.12,-17.36 130.371,-23.204 134.739,-11.216Z" style="fill:#8110a0;"/><path d="M209.874,31.768c-35.62,31.399 -132.523,20.813 -144.714,4.615c-3.155,-4.192 -5.331,-6.783 -2.277,-11.895c12.032,-20.142 141.309,-28.298 151.285,-7.069c1.979,4.212 -0.979,11.428 -4.294,14.349Zm-1.052,-12.556c4.722,13.007 -34.613,24.491 -63.302,26.307c-27.924,1.767 -80.11,-5.989 -77.588,-15.759c5.845,-22.64 135.484,-25.441 140.89,-10.548Z" style="fill:#e5a5f8;"/></g><g><path d="M149.67,24.453c-23.957,44.864 -137.216,36.287 -146.765,23.658c-3.101,-4.101 -3.96,-15.514 -1.395,-20.775c10.107,-20.728 134.886,-38.662 146.214,-18.551c2.247,3.991 3.968,11.88 1.946,15.668Zm-10.861,-12.062c4.55,10.135 -27.659,23.171 -55.35,27.156c-26.952,3.879 -70.914,0.08 -72.156,-6.11c-3.353,-16.711 122.424,-32.367 127.506,-21.046Z" style="fill:#8110a0;"/><path d="M143.404,23.735c-31.525,33.195 -124.658,30.205 -137.518,15.382c-3.328,-3.837 -5.599,-6.191 -3.083,-11.389c9.916,-20.479 132.454,-38.14 143.589,-18.261c2.209,3.945 -0.055,11.179 -2.988,14.268Zm-1.967,-12.123c5.498,12.285 -31.096,26.407 -58.289,30.332c-26.468,3.82 -76.782,0.212 -75.129,-9.473c3.829,-22.44 127.123,-34.925 133.418,-20.859Z" style="fill:#e5a5f8;"/></g></g></svg>