<?xml version="1.0" encoding="UTF-8" standalone="no"?><!DOCTYPE svg PUBLIC "-//W3C//DTD SVG 1.1//EN" "http://www.w3.org/Graphics/SVG/1.1/DTD/svg11.dtd"><svg width="100%" height="100%" viewBox="0 0 1323 684" version="1.1" xmlns="http://www.w3.org/2000/svg" xmlns:xlink="http://www.w3.org/1999/xlink" xml:space="preserve" xmlns:serif="http://www.serif.com/" style="fill-rule:evenodd;clip-rule:evenodd;stroke-linecap:round;stroke-linejoin:round;stroke-miterlimit:1.5;"><g id="Top-Bun" serif:id="Top Bun"><path d="M12.833,537.66c-12.303,-217.053 318.158,-537.099 677.954,-524.817c449.011,15.328 669.254,355.185 610.213,512.964c-74.076,197.962 -1278.37,184.733 -1288.17,11.853Z" style="fill:#dd701c;stroke:#310c01;stroke-width:25px;"/><g id="Seeds"><path d="M360.892,237.826c6.937,2.5 11.662,7.046 10.545,10.145c-1.117,3.1 -7.656,3.586 -14.593,1.086c-6.937,-2.5 -11.662,-7.046 -10.546,-10.145c1.117,-3.099 7.656,-3.586 14.594,-1.086Z" style="fill:#f4b000;"/><path d="M453.225,257.4c7.326,-0.838 13.578,1.138 13.952,4.411c0.375,3.273 -5.268,6.612 -12.594,7.45c-7.326,0.839 -13.579,-1.137 -13.953,-4.41c-0.375,-3.273 5.269,-6.612 12.595,-7.451Z" style="fill:#f4b000;"/><path d="M506.801,185.986c7.139,1.845 12.266,5.933 11.442,9.123c-0.825,3.189 -7.29,4.281 -14.429,2.436c-7.14,-1.846 -12.267,-5.934 -11.442,-9.123c0.824,-3.19 7.29,-4.281 14.429,-2.436Z" style="fill:#f4b000;"/><path d="M608.832,128.671c5.951,4.354 9.204,10.048 7.258,12.707c-1.945,2.659 -8.356,1.282 -14.307,-3.072c-5.951,-4.354 -9.204,-10.047 -7.258,-12.706c1.945,-2.659 8.356,-1.283 14.307,3.071Z" style="fill:#f4b000;"/><path d="M473.574,114.098c7.03,-2.226 13.545,-1.483 14.539,1.657c0.995,3.141 -3.905,7.498 -10.935,9.724c-7.03,2.226 -13.545,1.483 -14.54,-1.657c-0.994,-3.141 3.906,-7.498 10.936,-9.724Z" style="fill:#f4b000;"/><path d="M364.683,146.597c7.04,-2.195 13.552,-1.424 14.532,1.721c0.981,3.145 -3.938,7.481 -10.977,9.676c-7.04,2.196 -13.551,1.424 -14.532,-1.721c-0.981,-3.145 3.938,-7.481 10.977,-9.676Z" style="fill:#f4b000;"/><path d="M729.382,84.822c2.193,7.041 1.42,13.552 -1.726,14.532c-3.145,0.979 -7.479,-3.941 -9.672,-10.981c-2.193,-7.041 -1.42,-13.552 1.726,-14.532c3.145,-0.979 7.479,3.941 9.672,10.981Z" style="fill:#f4b000;"/><ellipse cx="274.639" cy="205.189" rx="13.361" ry="5.969" style="fill:#f4b000;"/><path d="M669.44,171.737c6.365,-3.724 12.883,-4.438 14.546,-1.594c1.664,2.843 -2.153,8.175 -8.518,11.898c-6.365,3.724 -12.883,4.438 -14.546,1.594c-1.664,-2.843 2.153,-8.175 8.518,-11.898Z" style="fill:#f4b000;"/><path d="M589.482,59.223c6.17,-4.038 12.644,-5.078 14.448,-2.321c1.804,2.757 -1.741,8.273 -7.911,12.311c-6.17,4.038 -12.644,5.078 -14.448,2.321c-1.804,-2.756 1.741,-8.273 7.911,-12.311Z" style="fill:#f4b000;"/><ellipse cx="589.353" cy="229.741" rx="13.361" ry="5.969" style="fill:#f4b000;"/><path d="M854.297,86.452c6.653,-3.178 13.208,-3.346 14.628,-0.373c1.421,2.973 -2.828,7.967 -9.482,11.146c-6.654,3.178 -13.208,3.346 -14.629,0.373c-1.42,-2.973 2.829,-7.967 9.483,-11.146Z" style="fill:#f4b000;"/><path d="M830.876,184.731c-1.248,7.268 -4.897,12.715 -8.144,12.158c-3.247,-0.558 -4.87,-6.911 -3.622,-14.179c1.248,-7.267 4.898,-12.715 8.145,-12.157c3.247,0.558 4.869,6.911 3.621,14.178Z" style="fill:#f4b000;"/><path d="M971.554,131.122c7.055,-2.143 13.561,-1.324 14.518,1.829c0.958,3.152 -3.993,7.451 -11.049,9.594c-7.056,2.143 -13.561,1.324 -14.519,-1.829c-0.957,-3.152 3.994,-7.451 11.05,-9.594Z" style="fill:#f4b000;"/><ellipse cx="748.406" cy="240.549" rx="13.361" ry="5.969" style="fill:#f4b000;"/><path d="M946.303,201.071c6.822,2.8 11.344,7.548 10.093,10.596c-1.251,3.047 -7.805,3.248 -14.627,0.448c-6.821,-2.801 -11.344,-7.548 -10.092,-10.596c1.251,-3.048 7.805,-3.249 14.626,-0.448Z" style="fill:#f4b000;"/><path d="M1094.16,179.601c6.878,2.659 11.498,7.312 10.31,10.385c-1.188,3.073 -7.736,3.409 -14.614,0.751c-6.878,-2.658 -11.498,-7.311 -10.31,-10.384c1.187,-3.073 7.736,-3.41 14.614,-0.752Z" style="fill:#f4b000;"/></g><path d="M58.508,547.829c-0.027,25.703 311.148,96.466 611.786,90.058c297.425,-6.339 585.461,-68.119 589.3,-114.782c2.013,-24.468 -33.147,-48.652 -132.825,-28.799c-57.628,11.478 -8.299,37.505 -140.352,49.836c-62.726,5.857 -90.81,-16.848 -154.139,-11.612c-72.259,5.974 -160.595,49.953 -216.1,51.942c-349.197,12.511 -557.604,-100.017 -557.67,-36.643Z" style="fill:#ab5c00;"/></g></svg>