<?xml version="1.0" encoding="UTF-8" standalone="no"?><!DOCTYPE svg PUBLIC "-//W3C//DTD SVG 1.1//EN" "http://www.w3.org/Graphics/SVG/1.1/DTD/svg11.dtd"><svg width="100%" height="100%" viewBox="0 0 239 76" version="1.1" xmlns="http://www.w3.org/2000/svg" xmlns:xlink="http://www.w3.org/1999/xlink" xml:space="preserve" xmlns:serif="http://www.serif.com/" style="fill-rule:evenodd;clip-rule:evenodd;stroke-linecap:round;stroke-linejoin:round;stroke-miterlimit:1.5;"><g id="Top-Burger" serif:id="Top Burger"><path d="M230.96,12.888c5.644,6.867 7.34,32.839 0.391,36.905c-6.95,4.066 -11.071,8.074 -16.364,7.665c-3.262,4.231 -23.253,6.951 -32.258,6.69c-7.163,6.599 -27.283,9.617 -38.383,8.321c-7.137,1.812 -73.115,0.637 -81.518,-6.886c-7.997,0.427 -20.745,-1.841 -28.951,-7.658c-9.908,-1.257 -24.749,-3.391 -27.94,-15.575c-3.458,-13.2 -6.774,-27.358 1.426,-35.055c6.873,-6.452 99.168,-4.845 112.696,-4.919c11.558,-0.063 104.479,2.7 110.901,10.512Z" style="fill:#8f160a;stroke:#2b0200;stroke-width:4.5px;"/><path d="M28.769,30.512c-3.742,-1.246 -11.754,-2.927 -18.42,-6.938" style="fill:none;stroke:#2b0200;stroke-width:3px;"/><path d="M75.275,40.53c-4.567,-0.582 -18.158,-5.718 -25.144,-5.609" style="fill:none;stroke:#2b0200;stroke-width:3px;"/><path d="M135.848,39.176c-5.806,-0.722 -20.477,-1.254 -28.411,-1.254c-7.934,0 -27.223,-0.026 -32.241,-1.075" style="fill:none;stroke:#2b0200;stroke-width:3px;"/><path d="M212.057,24.157c-7.846,2.156 -15.046,5.255 -19.293,5.64c-4.247,0.386 -16.076,3.887 -22.267,2.052" style="fill:none;stroke:#2b0200;stroke-width:3px;"/><path d="M31.389,39.268c-0.78,5.165 2.488,18.657 2.488,18.657" style="fill:none;stroke:#2b0200;stroke-width:3px;"/><path d="M61.5,53.38l1.328,12.203" style="fill:none;stroke:#2b0200;stroke-width:3px;"/><path d="M109.89,45.508c0.977,7.06 -0.93,17.522 -0.93,17.522" style="fill:none;stroke:#2b0200;stroke-width:3px;"/><path d="M145.877,55.242l-1.531,17.227" style="fill:none;stroke:#2b0200;stroke-width:3px;"/><path d="M216.714,47.408c0.647,4.697 -1.727,10.05 -1.727,10.05" style="fill:none;stroke:#2b0200;stroke-width:3px;"/><path d="M186.008,38.948c-0.008,13.814 -3.279,25.2 -3.279,25.2" style="fill:none;stroke:#2b0200;stroke-width:3px;"/></g></svg>