<?xml version="1.0" encoding="UTF-8" standalone="no"?><!DOCTYPE svg PUBLIC "-//W3C//DTD SVG 1.1//EN" "http://www.w3.org/Graphics/SVG/1.1/DTD/svg11.dtd"><svg width="100%" height="100%" viewBox="0 0 246 35" version="1.1" xmlns="http://www.w3.org/2000/svg" xmlns:xlink="http://www.w3.org/1999/xlink" xml:space="preserve" xmlns:serif="http://www.serif.com/" style="fill-rule:evenodd;clip-rule:evenodd;stroke-linecap:round;stroke-linejoin:round;stroke-miterlimit:1.5;"><path id="Cheese-top" serif:id="Cheese top" d="M230.614,-67.219c7.69,5.156 10.029,17.028 10.847,20.92c0.817,3.892 3.946,41.218 -2.06,43.201c-5.843,1.928 -16.015,-5.314 -13.551,-16.908c2.304,-10.84 -3.981,-32.698 -9.531,-28.409c-5.55,4.288 -8.827,28.229 -8.856,32.547c-0.058,8.468 5.424,24.586 3.54,28.372c-4.32,8.678 -18.095,1.459 -19.52,-4.98c-2.341,-10.578 6.752,-35.289 1.282,-47.034c-2.365,-5.077 -19.939,-2.143 -23.948,0.868c-4.843,3.636 -1.002,26.753 -0.895,32.762c0.192,10.788 6.622,20.606 2.139,29.39c-1.902,3.727 -13.855,2.482 -17.432,-2.054c-3.857,-4.89 -2.841,-13.185 -2.403,-23.221c0.323,-7.415 1.868,-31.33 -1.516,-33.646c-3.384,-2.316 -16.615,-5.962 -21.457,0.394c-4.746,6.229 -4.521,32.321 0.296,37.565c7.239,7.881 5.196,21.36 1.814,27.321c-3.349,5.902 -18.492,0.366 -21.739,-6.072c-4.186,-8.297 -1.259,-22.549 0.583,-28.769c1.842,-6.22 8.135,-22.934 4.931,-27.334c-5.452,-7.488 -11.331,20.581 -20.133,19.976c-8.695,-0.599 -14.08,-37.765 -16.503,-20.148c-1.963,14.272 13.265,42.681 10.037,53.218c-2.396,7.817 -14.427,8.522 -19.572,1.137c-5.145,-7.385 -10.638,-24.004 -6.201,-35.261c3.478,-8.822 1.596,-23.49 -1.594,-25.029c-8.658,-4.175 -12.578,17.928 -13.454,28.971c-0.531,6.696 5.018,23.525 2.821,28.48c-1.989,4.487 -8.885,9.493 -13.527,-1.018c-4.473,-10.128 -6.675,-26.512 -4.035,-37.476c1.956,-8.126 11.652,-19.348 7.406,-24.385c-5.55,-6.584 -13.954,-8.737 -19.275,-6.038c-6.293,3.192 -3.474,22.557 -1.796,31.999c1.262,7.096 0.636,30.457 -6.73,30.067c-8.359,-0.442 -8.336,-37.238 -8.332,-47.799c0.004,-9.541 5.858,-27.633 10.44,-34.015c16.615,-23.138 188.03,-17.635 217.924,2.408Z" style="fill:#fae019;stroke:#320b00;stroke-width:4.5px;"/></svg>