<?xml version="1.0" encoding="UTF-8" standalone="no"?><!DOCTYPE svg PUBLIC "-//W3C//DTD SVG 1.1//EN" "http://www.w3.org/Graphics/SVG/1.1/DTD/svg11.dtd"><svg width="100%" height="100%" viewBox="0 0 235 52" version="1.1" xmlns="http://www.w3.org/2000/svg" xmlns:xlink="http://www.w3.org/1999/xlink" xml:space="preserve" xmlns:serif="http://www.serif.com/" style="fill-rule:evenodd;clip-rule:evenodd;stroke-linecap:round;stroke-linejoin:round;stroke-miterlimit:1.5;"><g id="Tomatoes"><g><path d="M3.265,25.353c21.297,35.226 108.475,20.857 115.096,9.885c2.15,-3.563 2.117,-12.975 -0.191,-17.121c-9.095,-16.338 -106.816,-22.954 -114.357,-5.734c-1.496,3.417 -2.346,9.996 -0.548,12.97Z" style="fill:#dc002f;stroke:#3d0120;stroke-width:4.5px;"/><path d="M9.928,14.038c-1.96,4.048 25.399,17.253 31.051,15.059c5.841,-2.267 11.787,-6.809 13.065,-11.735c0.77,-2.969 13.592,-6.285 12.08,-9.376c-1.513,-3.09 -52.258,-2.083 -56.196,6.052Z" style="fill:#f06484;"/><path d="M111.642,20.091c0.775,-4.431 -32.156,-12.685 -37.816,-10.51c-4.269,1.641 -9.231,4.358 -11.824,9.381c-1.407,2.725 -9.793,3.635 -13.628,10.752c-0.102,0.19 0.08,0.286 0.426,0.486c6.574,3.805 61.43,-2.032 62.842,-10.109Z" style="fill:#f06384;"/></g><g><path d="M230.899,26.794c-22.068,35.226 -112.399,20.856 -119.26,9.885c-2.227,-3.563 -2.193,-12.975 0.199,-17.121c9.424,-16.338 110.679,-22.954 118.493,-5.734c1.55,3.417 2.431,9.996 0.568,12.97Z" style="fill:#dc002f;stroke:#3d0120;stroke-width:4.5px;"/><path d="M223.994,15.478c2.031,4.049 -26.317,17.254 -32.174,15.06c-6.052,-2.267 -12.213,-6.81 -13.537,-11.735c-0.798,-2.969 -14.084,-6.285 -12.517,-9.376c1.568,-3.09 54.148,-2.083 58.228,6.051Z" style="fill:#f06484;"/><path d="M118.601,21.532c-0.802,-4.431 33.32,-12.686 39.184,-10.51c4.423,1.64 9.565,4.358 12.252,9.38c1.458,2.726 10.147,3.635 14.121,10.753c0.106,0.189 -0.084,0.286 -0.442,0.486c-6.811,3.805 -63.652,-2.033 -65.115,-10.109Z" style="fill:#f06384;"/></g></g></svg>