<?xml version="1.0" encoding="UTF-8" standalone="no"?>
<!-- Created with Inkscape (http://www.inkscape.org/) -->

<svg
   xmlns:dc="http://purl.org/dc/elements/1.1/"
   xmlns:cc="http://creativecommons.org/ns#"
   xmlns:rdf="http://www.w3.org/1999/02/22-rdf-syntax-ns#"
   xmlns:svg="http://www.w3.org/2000/svg"
   xmlns="http://www.w3.org/2000/svg"
   xmlns:sodipodi="http://sodipodi.sourceforge.net/DTD/sodipodi-0.dtd"
   xmlns:inkscape="http://www.inkscape.org/namespaces/inkscape"
   width="75.809998"
   height="75.809998"
   viewBox="0 0 75.809998 75.809999"
   id="svg5702"
   version="1.1"
   inkscape:version="0.91 r13725"
   sodipodi:docname="lizard-w.svg">
  <defs
     id="defs5704" />
  <sodipodi:namedview
     id="base"
     pagecolor="#ffffff"
     bordercolor="#666666"
     borderopacity="1.0"
     inkscape:pageopacity="0.0"
     inkscape:pageshadow="2"
     inkscape:zoom="5.6"
     inkscape:cx="44.001675"
     inkscape:cy="51.073583"
     inkscape:document-units="px"
     inkscape:current-layer="layer2"
     showgrid="false"
     inkscape:snap-page="true"
     inkscape:object-nodes="true"
     units="px"
     inkscape:window-width="1680"
     inkscape:window-height="925"
     inkscape:window-x="0"
     inkscape:window-y="1"
     inkscape:window-maximized="1" />
  <metadata
     id="metadata5707">
    <rdf:RDF>
      <cc:Work
         rdf:about="">
        <dc:format>image/svg+xml</dc:format>
        <dc:type
           rdf:resource="http://purl.org/dc/dcmitype/StillImage" />
        <dc:title></dc:title>
      </cc:Work>
    </rdf:RDF>
  </metadata>
  <g
     inkscape:groupmode="layer"
     id="layer2"
     inkscape:label="Layer 2"
     transform="translate(0,-976.55216)" />
  <g
     inkscape:label="Layer 1"
     inkscape:groupmode="layer"
     id="layer1"
     transform="translate(0,-976.55216)">
    <path
       style="fill:#000000;fill-opacity:1;fill-rule:evenodd;stroke:none;stroke-width:0.1;stroke-linecap:butt;stroke-linejoin:miter;stroke-miterlimit:4;stroke-dasharray:none;stroke-opacity:1"
       d="M 55.625 79.642578 A 4.2857141 4.2857141 0 0 0 51.339844 83.927734 A 4.2857141 4.2857141 0 0 0 55.625 88.214844 A 4.2857141 4.2857141 0 0 0 59.910156 83.927734 A 4.2857141 4.2857141 0 0 0 55.625 79.642578 z M 55.625 81.029297 A 2.8985507 2.8985507 0 0 1 58.523438 83.927734 A 2.8985507 2.8985507 0 0 1 55.625 86.826172 A 2.8985507 2.8985507 0 0 1 52.726562 83.927734 A 2.8985507 2.8985507 0 0 1 55.625 81.029297 z "
       transform="translate(0,976.55216)"
       id="path5956-6-6-2-4-3-8-2-3-4-3" />
    <path
       id="path6005-4-2-7-3-2-1-6-6-8-0"
       style="fill:#000000;fill-opacity:1;fill-rule:evenodd;stroke:none;stroke-width:0.1;stroke-linecap:butt;stroke-linejoin:miter;stroke-miterlimit:4;stroke-dasharray:none;stroke-opacity:1"
       d="m 69.73231,1052.8375 c -28.82026,3.1169 -41.45082,-4.6938 -43.99728,-22.8431 -2.55363,-18.2005 23.283,-69.47836 23.283,-69.47836 m 20.71428,92.32146 c -28.82026,3.1169 -41.73524,-8.9718 -42.5,-23.5715 -1.03164,-19.6946 21.78572,-68.74996 21.78572,-68.74996"
       inkscape:connector-curvature="0"
       sodipodi:nodetypes="csccsc" />
    <path
       style="fill:#000000;fill-opacity:1;fill-rule:evenodd;stroke:none;stroke-width:0.1;stroke-linecap:butt;stroke-linejoin:miter;stroke-miterlimit:4;stroke-dasharray:none;stroke-opacity:1"
       d="m 77.90195,979.57854 c -0.93749,1.875 -0.8167,2.71903 -0.6773,4.6167 1.05445,-1.66712 1.29782,-2.14285 2.3246,-4.19642 -0.53571,-0.13393 -1.02367,-0.21221 -1.6473,-0.42028 z"
       id="path6029-4-7-7-5-3-2-9-3-5"
       inkscape:connector-curvature="0"
       sodipodi:nodetypes="cccc" />
    <path
       style="fill:#000000;fill-opacity:1;fill-rule:evenodd;stroke:none;stroke-width:0.1;stroke-linecap:butt;stroke-linejoin:miter;stroke-miterlimit:4;stroke-dasharray:none;stroke-opacity:1"
       d="m 81.97502,985.06961 c 1.05445,-1.47772 1.86286,-2.05356 2.88964,-4.10713 -0.53571,-0.13393 -1.32851,-0.10444 -1.99678,-0.17863 -0.93451,1.62316 -0.97659,3.15144 -0.89286,4.28576 z"
       id="path6029-3-8-2-0-0-9-8-3-2-6"
       inkscape:connector-curvature="0"
       sodipodi:nodetypes="cccc" />
    <path
       style="fill:#000000;fill-opacity:1;fill-rule:evenodd;stroke:none;stroke-width:0.1;stroke-linecap:butt;stroke-linejoin:miter;stroke-miterlimit:4;stroke-dasharray:none;stroke-opacity:1"
       d="m 78.8911,1027.3638 c -0.99112,-0.7481 -1.64575,-1.1955 -3.73282,-1.6243 1.41458,1.7489 1.44837,2.0554 2.80746,3.2716 0.4496,-0.662 0.71729,-1.0236 0.92536,-1.6473 z"
       id="path6029-7-6-7-4-2-2-9-2-5-5"
       inkscape:connector-curvature="0"
       sodipodi:nodetypes="cccc" />
    <path
       style="fill:#000000;fill-opacity:1;fill-rule:evenodd;stroke:none;stroke-width:0.1;stroke-linecap:butt;stroke-linejoin:miter;stroke-miterlimit:4;stroke-dasharray:none;stroke-opacity:1"
       d="m 73.75904,1029.3706 c 1.16204,2.0646 1.42221,2.6205 2.7813,4.1524 0.13393,-0.5357 0.48325,-1.0129 0.55744,-1.6811 -0.99182,-0.8714 -1.88875,-1.7974 -3.33874,-2.4713 z"
       id="path6029-3-3-6-2-5-3-2-2-3-4-7"
       inkscape:connector-curvature="0"
       sodipodi:nodetypes="cccc" />
    <path
       style="fill:#000000;fill-opacity:1;fill-rule:evenodd;stroke:none;stroke-width:0.1;stroke-linecap:butt;stroke-linejoin:miter;stroke-miterlimit:4;stroke-dasharray:none;stroke-opacity:1"
       d="m -5.67884,1049.7785 c 0.39094,-1.7947 0.48122,-2.985 0.4636,-5.1614 -1.65964,1.5039 -2.3233,2.9662 -2.91448,4.5039 0.66198,0.4496 1.55939,0.7173 2.45088,0.6575 z"
       id="path6029-7-7-7-9-8-6-5-0-6-6-4"
       inkscape:connector-curvature="0"
       sodipodi:nodetypes="cccc" />
    <path
       style="fill:#000000;fill-opacity:1;fill-rule:evenodd;stroke:none;stroke-width:0.1;stroke-linecap:butt;stroke-linejoin:miter;stroke-miterlimit:4;stroke-dasharray:none;stroke-opacity:1"
       d="m -10.5428,1042.4143 c -2.33246,0.7156 -2.88833,1.4222 -4.3309,2.8706 0.53571,0.6696 1.45927,1.1975 2.12754,1.2717 0.87137,-0.9918 1.88662,-2.6923 2.20336,-4.1423 z"
       id="path6029-3-3-3-1-3-6-6-8-8-9-6-9"
       inkscape:connector-curvature="0"
       sodipodi:nodetypes="cccc" />
    <path
       style="fill:#000000;fill-opacity:1;fill-rule:evenodd;stroke:none;stroke-width:0.1;stroke-linecap:butt;stroke-linejoin:miter;stroke-miterlimit:4;stroke-dasharray:none;stroke-opacity:1"
       d="m 18.19959,949.55623 c 0.0893,2.45535 0.65651,3.5226 1.73341,5.46491 0.29552,-2.24748 -0.13075,-3.03571 0.1371,-4.55356 -0.66964,-0.40179 -1.1576,-0.56936 -1.87051,-0.91135 z"
       id="path6029-37-6-9-9-7-9-1-4-4-3"
       inkscape:connector-curvature="0"
       sodipodi:nodetypes="cccc" />
    <path
       style="fill:#000000;fill-opacity:1;fill-rule:evenodd;stroke:none;stroke-width:0.1;stroke-linecap:butt;stroke-linejoin:miter;stroke-miterlimit:4;stroke-dasharray:none;stroke-opacity:1"
       d="m 22.36195,956.02944 c 0.87588,-1.96879 0.38964,-1.83035 1.41642,-3.88392 -0.58035,-0.35714 -0.97136,-0.41694 -1.63963,-0.6697 -0.30951,1.6678 -0.21767,3.37466 0.22321,4.55362 z"
       id="path6029-3-5-8-3-2-0-1-2-8-6-6"
       inkscape:connector-curvature="0"
       sodipodi:nodetypes="cccc" />
    <path
       style="fill:#000000;fill-opacity:1;fill-rule:evenodd;stroke:none;stroke-width:0.1;stroke-linecap:butt;stroke-linejoin:miter;stroke-miterlimit:4;stroke-dasharray:none;stroke-opacity:1"
       d="M 55.625 63.642578 A 4.2857141 4.2857141 0 0 0 51.339844 67.927734 A 4.2857141 4.2857141 0 0 0 55.625 72.214844 A 4.2857141 4.2857141 0 0 0 59.910156 67.927734 A 4.2857141 4.2857141 0 0 0 55.625 63.642578 z M 55.625 65.029297 A 2.8985507 2.8985507 0 0 1 58.523438 67.927734 A 2.8985507 2.8985507 0 0 1 55.625 70.826172 A 2.8985507 2.8985507 0 0 1 52.726562 67.927734 A 2.8985507 2.8985507 0 0 1 55.625 65.029297 z "
       transform="translate(0,976.55216)"
       id="path5956-1-0-4-8-8-7-3-7-1" />
  </g>
</svg>
