<?xml version="1.0" encoding="UTF-8" standalone="no"?>
<!-- Created with Inkscape (http://www.inkscape.org/) -->

<svg
   xmlns:dc="http://purl.org/dc/elements/1.1/"
   xmlns:cc="http://creativecommons.org/ns#"
   xmlns:rdf="http://www.w3.org/1999/02/22-rdf-syntax-ns#"
   xmlns:svg="http://www.w3.org/2000/svg"
   xmlns="http://www.w3.org/2000/svg"
   xmlns:sodipodi="http://sodipodi.sourceforge.net/DTD/sodipodi-0.dtd"
   xmlns:inkscape="http://www.inkscape.org/namespaces/inkscape"
   width="111.211"
   height="124.285"
   viewBox="0 0 111.211 124.28501"
   id="svg5702"
   version="1.1"
   inkscape:version="0.91 r13725"
   sodipodi:docname="lizard-w.svg">
  <defs
     id="defs5704" />
  <sodipodi:namedview
     id="base"
     pagecolor="#ffffff"
     bordercolor="#666666"
     borderopacity="1.0"
     inkscape:pageopacity="0.0"
     inkscape:pageshadow="2"
     inkscape:zoom="3.959798"
     inkscape:cx="76.799207"
     inkscape:cy="42.230383"
     inkscape:document-units="px"
     inkscape:current-layer="layer1"
     showgrid="false"
     inkscape:snap-page="true"
     inkscape:object-nodes="true"
     units="px"
     inkscape:window-width="1680"
     inkscape:window-height="925"
     inkscape:window-x="0"
     inkscape:window-y="1"
     inkscape:window-maximized="1"
     inkscape:snap-bbox="true"
     inkscape:bbox-nodes="true" />
  <metadata
     id="metadata5707">
    <rdf:RDF>
      <cc:Work
         rdf:about="">
        <dc:format>image/svg+xml</dc:format>
        <dc:type
           rdf:resource="http://purl.org/dc/dcmitype/StillImage" />
        <dc:title></dc:title>
      </cc:Work>
    </rdf:RDF>
  </metadata>
  <g
     inkscape:groupmode="layer"
     id="layer2"
     inkscape:label="Layer 2"
     transform="translate(0,-928.07716)" />
  <g
     inkscape:label="Layer 1"
     inkscape:groupmode="layer"
     id="layer1"
     transform="translate(0,-928.07716)">
    <path
       style="fill:#000000;fill-opacity:1;fill-rule:evenodd;stroke:none;stroke-width:0.1;stroke-linecap:butt;stroke-linejoin:miter;stroke-miterlimit:4;stroke-dasharray:none;stroke-opacity:1"
       d="m 76.942275,1037.3609 a 4.2857141,4.2857141 0 0 0 -4.28515,4.2852 4.2857141,4.2857141 0 0 0 4.28515,4.2871 4.2857141,4.2857141 0 0 0 4.28516,-4.2871 4.2857141,4.2857141 0 0 0 -4.28516,-4.2852 z m 0,1.3868 a 2.8985507,2.8985507 0 0 1 2.89844,2.8984 2.8985507,2.8985507 0 0 1 -2.89844,2.8984 2.8985507,2.8985507 0 0 1 -2.89844,-2.8984 2.8985507,2.8985507 0 0 1 2.89844,-2.8984 z"
       id="path5956-6-6-2-4-3-8-2-3-4-3"
       inkscape:connector-curvature="0" />
    <path
       id="path4241-3-4-5-0-3-3-6-7-2-3-5"
       style="display:inline;fill:none;fill-opacity:1;fill-rule:evenodd;stroke:none;stroke-width:0.1;stroke-linecap:butt;stroke-linejoin:miter;stroke-miterlimit:4;stroke-dasharray:none;stroke-opacity:1"
       d="m 40.151196,977.02861 c 0,0 -14.21926,28.63019 -18.83392,33.42989 -6.84072,7.3578 -17.1702098,10.9625 -21.3172798146975,11.6456 C 2.4735162,1026.0232 7.8286862,1033.528 21.317276,1033.5279 c -2e-5,-13.4885 7.50474,-18.8437 11.4238,-21.3172 0.68319,4.147 4.28782,14.4765 11.645659,21.3172 4.79968,4.6147 33.42984,18.834 33.42984,18.834 l 19.31033,-18.834 -19.1805,-19.5821 c 0,0 -5.55584,4.4195 -10.35407,4.4195 -1.01015,-5.8084 5.4865,-10.2563 5.68211,-17.9302 12.28394,-2.61662 20.68285,13.2376 23.85246,19.3454 l 5.245555,-14.2681 c 0,0 -23.099515,-18.15353 -28.915615,-23.61233 8.87153,-2.10256 22.22336,-1.64146 30.683385,-0.75756 -0.12627,-10.7329 4.75613,-16.88298 7.07107,-20.83443 -6.07729,0.0471 -10.74364,-0.25502 -14.084395,-2.58975 -2.33473,3.34075 -2.63685,8.0071 -2.58975,14.08438 -3.95145,-2.3149 -10.10153,-7.19733 -20.8344,-7.07106 0.88388,-8.46002 1.34496,-21.81185 -0.75762,-30.68338 -5.45881,5.8161 -23.61231,28.91561 -23.61231,28.91561 l -14.268129,-5.24555 c 6.10784,-3.16961 21.962049,-11.56852 19.345469,-23.85246 -7.67396,-0.19561 -12.121829,-6.69226 -17.930199,-5.68211 0,4.79823 4.41941,10.35407 4.41941,10.35407 l -19.5821,19.1805 z"
       inkscape:connector-curvature="0"
       sodipodi:nodetypes="ccccccccccccccccccccccccccc" />
    <path
       id="path6005-4-2-7-3-2-1-6-6-8-0"
       style="fill:#000000;fill-opacity:1;fill-rule:evenodd;stroke:none;stroke-width:0.1;stroke-linecap:butt;stroke-linejoin:miter;stroke-miterlimit:4;stroke-dasharray:none;stroke-opacity:1"
       d="m 91.049585,1034.0037 c -28.82026,3.1169 -41.45082,-4.6938 -43.99728,-22.8431 -2.55363,-18.20052 23.283,-69.47839 23.283,-69.47839 m 20.71428,92.32149 c -28.82026,3.1169 -41.73524,-8.9718 -42.5,-23.5715 -1.03164,-19.69462 21.78572,-68.74999 21.78572,-68.74999"
       inkscape:connector-curvature="0"
       sodipodi:nodetypes="csccsc" />
    <path
       style="fill:#000000;fill-opacity:1;fill-rule:evenodd;stroke:none;stroke-width:0.1;stroke-linecap:butt;stroke-linejoin:miter;stroke-miterlimit:4;stroke-dasharray:none;stroke-opacity:1"
       d="m 99.219225,960.74471 c -0.93749,1.875 -0.8167,2.71903 -0.6773,4.6167 1.05445,-1.66712 1.29782,-2.14285 2.324605,-4.19642 -0.53571,-0.13393 -1.023675,-0.21221 -1.647305,-0.42028 z"
       id="path6029-4-7-7-5-3-2-9-3-5"
       inkscape:connector-curvature="0"
       sodipodi:nodetypes="cccc" />
    <path
       style="fill:#000000;fill-opacity:1;fill-rule:evenodd;stroke:none;stroke-width:0.1;stroke-linecap:butt;stroke-linejoin:miter;stroke-miterlimit:4;stroke-dasharray:none;stroke-opacity:1"
       d="m 103.2923,966.23578 c 1.05445,-1.47772 1.86286,-2.05356 2.88964,-4.10713 -0.53571,-0.13393 -1.32851,-0.10444 -1.99678,-0.17863 -0.93451,1.62316 -0.97659,3.15144 -0.89286,4.28576 z"
       id="path6029-3-8-2-0-0-9-8-3-2-6"
       inkscape:connector-curvature="0"
       sodipodi:nodetypes="cccc" />
    <path
       style="fill:#000000;fill-opacity:1;fill-rule:evenodd;stroke:none;stroke-width:0.1;stroke-linecap:butt;stroke-linejoin:miter;stroke-miterlimit:4;stroke-dasharray:none;stroke-opacity:1"
       d="m 100.20838,1008.53 c -0.991125,-0.7481 -1.645755,-1.1955 -3.732825,-1.6243 1.41458,1.7489 1.44837,2.0554 2.80746,3.2716 0.4496,-0.662 0.717295,-1.0236 0.925365,-1.6473 z"
       id="path6029-7-6-7-4-2-2-9-2-5-5"
       inkscape:connector-curvature="0"
       sodipodi:nodetypes="cccc" />
    <path
       style="fill:#000000;fill-opacity:1;fill-rule:evenodd;stroke:none;stroke-width:0.1;stroke-linecap:butt;stroke-linejoin:miter;stroke-miterlimit:4;stroke-dasharray:none;stroke-opacity:1"
       d="m 95.076315,1010.5368 c 1.16204,2.0646 1.42221,2.6205 2.7813,4.1524 0.13393,-0.5357 0.48325,-1.0129 0.55744,-1.6811 -0.99182,-0.8714 -1.88875,-1.7974 -3.33874,-2.4713 z"
       id="path6029-3-3-6-2-5-3-2-2-3-4-7"
       inkscape:connector-curvature="0"
       sodipodi:nodetypes="cccc" />
    <path
       style="fill:#000000;fill-opacity:1;fill-rule:evenodd;stroke:none;stroke-width:0.1;stroke-linecap:butt;stroke-linejoin:miter;stroke-miterlimit:4;stroke-dasharray:none;stroke-opacity:1"
       d="m 15.638436,1030.9447 c 0.39094,-1.7947 0.48122,-2.985 0.4636,-5.1614 -1.65964,1.5039 -2.3233,2.9662 -2.91448,4.5039 0.66198,0.4496 1.55939,0.7173 2.45088,0.6575 z"
       id="path6029-7-7-7-9-8-6-5-0-6-6-4"
       inkscape:connector-curvature="0"
       sodipodi:nodetypes="cccc" />
    <path
       style="fill:#000000;fill-opacity:1;fill-rule:evenodd;stroke:none;stroke-width:0.1;stroke-linecap:butt;stroke-linejoin:miter;stroke-miterlimit:4;stroke-dasharray:none;stroke-opacity:1"
       d="m 10.774476,1023.5805 c -2.3324598,0.7156 -2.8883298,1.4222 -4.3308998,2.8706 0.53571,0.6696 1.45927,1.1975 2.12754,1.2717 0.87137,-0.9918 1.8866198,-2.6923 2.2033598,-4.1423 z"
       id="path6029-3-3-3-1-3-6-6-8-8-9-6-9"
       inkscape:connector-curvature="0"
       sodipodi:nodetypes="cccc" />
    <path
       style="fill:#000000;fill-opacity:1;fill-rule:evenodd;stroke:none;stroke-width:0.1;stroke-linecap:butt;stroke-linejoin:miter;stroke-miterlimit:4;stroke-dasharray:none;stroke-opacity:1"
       d="m 39.516866,930.7224 c 0.0893,2.45535 0.65651,3.5226 1.73341,5.46491 0.29552,-2.24748 -0.13075,-3.03571 0.1371,-4.55356 -0.66964,-0.40179 -1.1576,-0.56936 -1.87051,-0.91135 z"
       id="path6029-37-6-9-9-7-9-1-4-4-3"
       inkscape:connector-curvature="0"
       sodipodi:nodetypes="cccc" />
    <path
       style="fill:#000000;fill-opacity:1;fill-rule:evenodd;stroke:none;stroke-width:0.1;stroke-linecap:butt;stroke-linejoin:miter;stroke-miterlimit:4;stroke-dasharray:none;stroke-opacity:1"
       d="m 43.679225,937.19561 c 0.87588,-1.96879 0.38964,-1.83035 1.41642,-3.88392 -0.58035,-0.35714 -0.97136,-0.41694 -1.63963,-0.6697 -0.309509,1.6678 -0.21767,3.37466 0.22321,4.55362 z"
       id="path6029-3-5-8-3-2-0-1-2-8-6-6"
       inkscape:connector-curvature="0"
       sodipodi:nodetypes="cccc" />
    <path
       style="fill:#000000;fill-opacity:1;fill-rule:evenodd;stroke:none;stroke-width:0.1;stroke-linecap:butt;stroke-linejoin:miter;stroke-miterlimit:4;stroke-dasharray:none;stroke-opacity:1"
       d="m 76.942275,1021.3609 a 4.2857141,4.2857141 0 0 0 -4.28515,4.2852 4.2857141,4.2857141 0 0 0 4.28515,4.2871 4.2857141,4.2857141 0 0 0 4.28516,-4.2871 4.2857141,4.2857141 0 0 0 -4.28516,-4.2852 z m 0,1.3868 a 2.8985507,2.8985507 0 0 1 2.89844,2.8984 2.8985507,2.8985507 0 0 1 -2.89844,2.8984 2.8985507,2.8985507 0 0 1 -2.89844,-2.8984 2.8985507,2.8985507 0 0 1 2.89844,-2.8984 z"
       id="path5956-1-0-4-8-8-7-3-7-1"
       inkscape:connector-curvature="0" />
  </g>
</svg>
