<?xml version="1.0" encoding="UTF-8" standalone="no"?>
<svg
   xmlns:dc="http://purl.org/dc/elements/1.1/"
   xmlns:cc="http://creativecommons.org/ns#"
   xmlns:rdf="http://www.w3.org/1999/02/22-rdf-syntax-ns#"
   xmlns:svg="http://www.w3.org/2000/svg"
   xmlns="http://www.w3.org/2000/svg"
   width="124.285"
   height="111.211"
   viewBox="0 0 124.28501 111.211"
   id="svg7096"
   version="1.1">
  <defs
     id="defs7098" />
  <metadata
     id="metadata7101">
    <rdf:RDF>
      <cc:Work
         rdf:about="">
        <dc:format>image/svg+xml</dc:format>
        <dc:type
           rdf:resource="http://purl.org/dc/dcmitype/StillImage" />
        <dc:title></dc:title>
      </cc:Work>
    </rdf:RDF>
  </metadata>
  <path
     d="m 48.9515,71.06014 c 0,0 28.63018,14.2192 33.42988,18.8339 7.3578,6.8407 10.9624,17.1702 11.6456,21.3173 3.9191,-2.4735 11.4238,-7.8287 11.4238,-21.3173 -13.4886,0 -18.8437,-7.5048 -21.3173,-11.4238 4.1471,-0.6832 14.4766,-4.2878 21.3173,-11.6457 4.6147,-4.7997 18.8339,-33.42981 18.8339,-33.42981 L 105.45078,14.0844 85.86868,33.2649 c 0,0 4.4194,5.55584 4.4194,10.35407 -5.8083,1.01015 -10.2562,-5.4865 -17.9302,-5.68211 C 69.74133,25.65292 85.59558,17.25401 91.70338,14.0844 L 77.43528,8.83885 c 0,0 -18.15353,23.09951 -23.61234,28.91561 C 51.72036,28.88293 52.18144,15.5311 53.06532,7.07108 42.33245,7.19735 36.18237,2.31495 32.23092,1e-5 32.27802,6.0773 31.9759,10.74365 29.64117,14.0844 c 3.34075,2.33473 8.0071,2.63685 14.08439,2.58975 -2.31494,3.95145 -7.19734,10.10153 -7.07107,20.8344 -8.46002,-0.88388 -21.81185,-1.34496 -30.68338,0.75762 5.8161,5.45881 28.91561,23.61227 28.91561,23.61227 l -5.24555,14.2682 C 26.47156,70.03874 18.07265,54.18456 5.78871,56.80114 c -0.19561,7.674 -6.69226,12.1218 -5.68211,17.9302 4.79823,0 10.35407,-4.4194 10.35407,-4.4194 l 19.1805,19.5821 z"
     style="display:inline;fill:#000000;fill-opacity:1;fill-rule:evenodd;stroke:none;stroke-width:0.1;stroke-linecap:butt;stroke-linejoin:miter;stroke-miterlimit:4;stroke-dasharray:none;stroke-opacity:1"
     id="path4241-3-4-5-0-3-3-6-7-2-3-5" />
  <path
     d="m 105.92648,20.16172 c 3.1169,28.82026 -4.6938,41.45082 -22.8431,43.99732 C 64.88291,66.71264 13.60505,40.876 13.60505,40.876 m 92.32143,-20.71428 c 3.1169,28.82026 -8.9717,41.73522 -23.5714,42.50002 C 62.66044,63.69334 13.60505,40.876 13.60505,40.876"
     style="fill:#ffffff;fill-opacity:1;fill-rule:evenodd;stroke:none;stroke-width:0.1;stroke-linecap:butt;stroke-linejoin:miter;stroke-miterlimit:4;stroke-dasharray:none;stroke-opacity:1"
     id="path6005-4-2-7-3-2-1-6-6-8-0" />
  <path
     id="path6029-4-7-7-5-3-2-9-3-5"
     d="m 32.66755,11.99208 c 1.875,0.93749 2.71903,0.8167 4.6167,0.6773 -1.66712,-1.05445 -2.14285,-1.29782 -4.19642,-2.3246 -0.13393,0.53571 -0.21221,1.02367 -0.42028,1.6473 z"
     style="fill:#ffffff;fill-opacity:1;fill-rule:evenodd;stroke:none;stroke-width:0.1;stroke-linecap:butt;stroke-linejoin:miter;stroke-miterlimit:4;stroke-dasharray:none;stroke-opacity:1" />
  <path
     id="path6029-3-8-2-0-0-9-8-3-2-6"
     d="M 38.15862,7.91901 C 36.6809,6.86456 36.10506,6.05615 34.05149,5.02937 c -0.13393,0.53571 -0.10444,1.32851 -0.17863,1.99678 1.62316,0.93451 3.15144,0.97659 4.28576,0.89286 z"
     style="fill:#ffffff;fill-opacity:1;fill-rule:evenodd;stroke:none;stroke-width:0.1;stroke-linecap:butt;stroke-linejoin:miter;stroke-miterlimit:4;stroke-dasharray:none;stroke-opacity:1" />
  <path
     id="path6029-7-6-7-4-2-2-9-2-5-5"
     d="m 80.45278,11.00293 c -0.748,0.99112 -1.1955,1.64575 -1.6243,3.73282 1.749,-1.41458 2.0555,-1.44837 3.2716,-2.80746 -0.6619,-0.4496 -1.0236,-0.71729 -1.6473,-0.92536 z"
     style="fill:#ffffff;fill-opacity:1;fill-rule:evenodd;stroke:none;stroke-width:0.1;stroke-linecap:butt;stroke-linejoin:miter;stroke-miterlimit:4;stroke-dasharray:none;stroke-opacity:1" />
  <path
     id="path6029-3-3-6-2-5-3-2-2-3-4-7"
     d="m 82.45968,16.13499 c 2.0646,-1.16204 2.6204,-1.42221 4.1523,-2.7813 -0.5357,-0.13393 -1.0129,-0.48325 -1.6811,-0.55744 -0.8714,0.99182 -1.7974,1.88875 -2.4712,3.33874 z"
     style="fill:#ffffff;fill-opacity:1;fill-rule:evenodd;stroke:none;stroke-width:0.1;stroke-linecap:butt;stroke-linejoin:miter;stroke-miterlimit:4;stroke-dasharray:none;stroke-opacity:1" />
  <path
     id="path6029-7-7-7-9-8-6-5-0-6-6-4"
     d="m 102.86748,95.57284 c -1.7947,-0.3909 -2.985,-0.4812 -5.1614,-0.4636 1.5039,1.6597 2.9663,2.3233 4.5039,2.9145 0.4496,-0.662 0.7173,-1.5594 0.6575,-2.4509 z"
     style="fill:#ffffff;fill-opacity:1;fill-rule:evenodd;stroke:none;stroke-width:0.1;stroke-linecap:butt;stroke-linejoin:miter;stroke-miterlimit:4;stroke-dasharray:none;stroke-opacity:1" />
  <path
     id="path6029-3-3-3-1-3-6-6-8-8-9-6-9"
     d="m 95.50328,100.43684 c 0.7156,2.3324 1.4222,2.8883 2.8706,4.3309 0.6697,-0.5357 1.1975,-1.4593 1.2717,-2.1275 -0.9918,-0.8714 -2.6923,-1.8867 -4.1423,-2.2034 z"
     style="fill:#ffffff;fill-opacity:1;fill-rule:evenodd;stroke:none;stroke-width:0.1;stroke-linecap:butt;stroke-linejoin:miter;stroke-miterlimit:4;stroke-dasharray:none;stroke-opacity:1" />
  <path
     id="path6029-37-6-9-9-7-9-1-4-4-3"
     d="m 2.64524,71.69444 c 2.45535,-0.089 3.5226,-0.6565 5.46491,-1.7334 -2.24748,-0.2955 -3.03571,0.1307 -4.55356,-0.1371 -0.40179,0.6696 -0.56936,1.1576 -0.91135,1.8705 z"
     style="fill:#ffffff;fill-opacity:1;fill-rule:evenodd;stroke:none;stroke-width:0.1;stroke-linecap:butt;stroke-linejoin:miter;stroke-miterlimit:4;stroke-dasharray:none;stroke-opacity:1" />
  <path
     id="path6029-3-5-8-3-2-0-1-2-8-6-6"
     d="m 9.11845,67.53204 c -1.96879,-0.8758 -1.83035,-0.3896 -3.88392,-1.4164 -0.35714,0.5804 -0.41694,0.9714 -0.6697,1.6396 1.6678,0.3096 3.37466,0.2177 4.55362,-0.2232 z"
     style="fill:#ffffff;fill-opacity:1;fill-rule:evenodd;stroke:none;stroke-width:0.1;stroke-linecap:butt;stroke-linejoin:miter;stroke-miterlimit:4;stroke-dasharray:none;stroke-opacity:1" />
  <circle
     transform="scale(-1,1)"
     r="4.2857141"
     cy="34.268883"
     cx="-97.56929"
     id="path5956-1-0-4-8-8-7-3-7-1"
     style="fill:#ffffff;fill-opacity:1;fill-rule:evenodd;stroke:none;stroke-width:0.1;stroke-linecap:butt;stroke-linejoin:miter;stroke-miterlimit:4;stroke-dasharray:none;stroke-opacity:1" />
  <circle
     transform="scale(-1,1)"
     r="4.2857141"
     cy="34.268883"
     cx="-113.56929"
     id="path5956-6-6-2-4-3-8-2-3-4-3"
     style="fill:#ffffff;fill-opacity:1;fill-rule:evenodd;stroke:none;stroke-width:0.1;stroke-linecap:butt;stroke-linejoin:miter;stroke-miterlimit:4;stroke-dasharray:none;stroke-opacity:1" />
  <circle
     r="2.8985507"
     transform="scale(-1,1)"
     cy="34.268883"
     cx="-113.56929"
     id="path5956-2-1-1-4-4-3-3-1-9-2-2"
     style="fill:#000000;fill-opacity:1;fill-rule:evenodd;stroke:none;stroke-width:0.1;stroke-linecap:butt;stroke-linejoin:miter;stroke-miterlimit:4;stroke-dasharray:none;stroke-opacity:1" />
  <circle
     r="2.8985507"
     transform="scale(-1,1)"
     cy="34.268883"
     cx="-97.56929"
     id="path5956-2-1-2-3-58-7-7-8-5-8-4-6"
     style="fill:#000000;fill-opacity:1;fill-rule:evenodd;stroke:none;stroke-width:0.1;stroke-linecap:butt;stroke-linejoin:miter;stroke-miterlimit:4;stroke-dasharray:none;stroke-opacity:1" />
</svg>
