<?xml version="1.0" encoding="UTF-8" standalone="no"?>
<svg
   xmlns:dc="http://purl.org/dc/elements/1.1/"
   xmlns:cc="http://creativecommons.org/ns#"
   xmlns:rdf="http://www.w3.org/1999/02/22-rdf-syntax-ns#"
   xmlns:svg="http://www.w3.org/2000/svg"
   xmlns="http://www.w3.org/2000/svg"
   version="1.1"
   id="svg5702"
   viewBox="0 0 0 75.809999"
   height="124.284"
   width="111.211">
  <defs
     id="defs5704" />
  <metadata
     id="metadata5707">
    <rdf:RDF>
      <cc:Work
         rdf:about="">
        <dc:format>image/svg+xml</dc:format>
        <dc:type
           rdf:resource="http://purl.org/dc/dcmitype/StillImage" />
        <dc:title></dc:title>
      </cc:Work>
    </rdf:RDF>
  </metadata>
  <g
     transform="translate(0,-928.07816)"
     id="layer2" />
  <g
     transform="translate(0,-928.07816)"
     id="layer1">
    <path
       d="m 40.151201,977.02961 c 0,0 -14.219261,28.63019 -18.833921,33.42989 -6.84072,7.3578 -17.1702095,10.9625 -21.31728,11.6456 2.4735205,3.9191 7.8286905,11.4239 21.31728,11.4238 -2e-5,-13.4885 7.50474,-18.8437 11.4238,-21.3172 0.683191,4.147 4.28782,14.4765 11.645661,21.3172 4.799679,4.6147 33.429839,18.834 33.429839,18.834 l 19.310333,-18.834 -19.180503,-19.5821 c 0,0 -5.55584,4.4195 -10.35407,4.4195 -1.01015,-5.8084 5.4865,-10.2563 5.68211,-17.9302 12.28394,-2.61663 20.682853,13.2376 23.852463,19.3454 l 5.245547,-14.2681 c 0,0 -23.09951,-18.15353 -28.91561,-23.61233 8.87153,-2.10256 22.223363,-1.64146 30.68338,-0.75756 -0.12627,-10.7329 4.75613,-16.88298 7.07107,-20.83443 -6.07729,0.0471 -10.74364,-0.25502 -14.084387,-2.58975 -2.33473,3.34075 -2.63685,8.0071 -2.58975,14.08438 -3.951453,-2.3149 -10.101533,-7.19733 -20.834403,-7.07106 0.88388,-8.46002 1.34496,-21.81185 -0.75762,-30.68338 -5.45881,5.8161 -23.61231,28.91561 -23.61231,28.91561 L 35.0647,957.71933 c 6.10784,-3.16961 21.96205,-11.56852 19.34547,-23.85246 -7.67396,-0.19561 -12.12183,-6.69226 -17.9302,-5.68211 0,4.79823 4.41941,10.35407 4.41941,10.35407 l -19.5821,19.1805 z"
       style="display:inline;fill:#ffffff;fill-opacity:1;fill-rule:evenodd;stroke:none;stroke-width:0.1;stroke-linecap:butt;stroke-linejoin:miter;stroke-miterlimit:4;stroke-dasharray:none;stroke-opacity:1"
       id="path4241-3-4-5-0-3-3-6-7-2-3-5" />
    <path
       id="path5956-6-6-2-4-3-8-2-3-4-3"
       d="m 76.94228,1037.3619 a 4.2857141,4.2857141 0 0 0 -4.285156,4.2852 4.2857141,4.2857141 0 0 0 4.285156,4.2871 4.2857141,4.2857141 0 0 0 4.285156,-4.2871 4.2857141,4.2857141 0 0 0 -4.285156,-4.2852 z m 0,1.3867 a 2.8985507,2.8985507 0 0 1 2.898438,2.8985 2.8985507,2.8985507 0 0 1 -2.898438,2.8984 2.8985507,2.8985507 0 0 1 -2.898438,-2.8984 2.8985507,2.8985507 0 0 1 2.898438,-2.8985 z"
       style="fill:#000000;fill-opacity:1;fill-rule:evenodd;stroke:none;stroke-width:0.1;stroke-linecap:butt;stroke-linejoin:miter;stroke-miterlimit:4;stroke-dasharray:none;stroke-opacity:1" />
    <path
       d="m 91.04959,1034.0047 c -28.82026,3.1169 -41.45082,-4.6938 -43.99728,-22.8431 -2.55363,-18.20053 23.283,-69.47839 23.283,-69.47839 m 20.71428,92.32149 c -28.82026,3.1169 -41.735239,-8.9718 -42.5,-23.5715 -1.03164,-19.69463 21.78572,-68.74999 21.78572,-68.74999"
       style="fill:#000000;fill-opacity:1;fill-rule:evenodd;stroke:none;stroke-width:0.1;stroke-linecap:butt;stroke-linejoin:miter;stroke-miterlimit:4;stroke-dasharray:none;stroke-opacity:1"
       id="path6005-4-2-7-3-2-1-6-6-8-0" />
    <path
       id="path6029-4-7-7-5-3-2-9-3-5"
       d="m 99.219234,960.74571 c -0.93749,1.875 -0.8167,2.71903 -0.677301,4.6167 1.054451,-1.66712 1.29782,-2.14285 2.324597,-4.19642 -0.53571,-0.13393 -1.023666,-0.21221 -1.647296,-0.42028 z"
       style="fill:#000000;fill-opacity:1;fill-rule:evenodd;stroke:none;stroke-width:0.1;stroke-linecap:butt;stroke-linejoin:miter;stroke-miterlimit:4;stroke-dasharray:none;stroke-opacity:1" />
    <path
       id="path6029-3-8-2-0-0-9-8-3-2-6"
       d="m 103.2923,966.23678 c 1.05445,-1.47772 1.86286,-2.05356 2.88964,-4.10713 -0.53571,-0.13393 -1.32851,-0.10444 -1.99678,-0.17863 -0.93451,1.62316 -0.97659,3.15144 -0.89286,4.28576 z"
       style="fill:#000000;fill-opacity:1;fill-rule:evenodd;stroke:none;stroke-width:0.1;stroke-linecap:butt;stroke-linejoin:miter;stroke-miterlimit:4;stroke-dasharray:none;stroke-opacity:1" />
    <path
       id="path6029-7-6-7-4-2-2-9-2-5-5"
       d="m 100.20838,1008.531 c -0.991116,-0.7481 -1.645747,-1.1955 -3.732817,-1.6243 1.41458,1.7489 1.44837,2.0554 2.80746,3.2716 0.449601,-0.662 0.717287,-1.0236 0.925357,-1.6473 z"
       style="fill:#000000;fill-opacity:1;fill-rule:evenodd;stroke:none;stroke-width:0.1;stroke-linecap:butt;stroke-linejoin:miter;stroke-miterlimit:4;stroke-dasharray:none;stroke-opacity:1" />
    <path
       id="path6029-3-3-6-2-5-3-2-2-3-4-7"
       d="m 95.076323,1010.5378 c 1.162041,2.0646 1.422211,2.6205 2.781301,4.1524 0.13393,-0.5357 0.483249,-1.0129 0.55744,-1.6811 -0.991821,-0.8714 -1.888751,-1.7974 -3.338741,-2.4713 z"
       style="fill:#000000;fill-opacity:1;fill-rule:evenodd;stroke:none;stroke-width:0.1;stroke-linecap:butt;stroke-linejoin:miter;stroke-miterlimit:4;stroke-dasharray:none;stroke-opacity:1" />
    <path
       id="path6029-7-7-7-9-8-6-5-0-6-6-4"
       d="m 15.638441,1030.9457 c 0.39094,-1.7947 0.48122,-2.985 0.463599,-5.1614 -1.659639,1.5039 -2.323299,2.9662 -2.914479,4.5039 0.66198,0.4496 1.55939,0.7173 2.45088,0.6575 z"
       style="fill:#000000;fill-opacity:1;fill-rule:evenodd;stroke:none;stroke-width:0.1;stroke-linecap:butt;stroke-linejoin:miter;stroke-miterlimit:4;stroke-dasharray:none;stroke-opacity:1" />
    <path
       id="path6029-3-3-3-1-3-6-6-8-8-9-6-9"
       d="m 10.77448,1023.5815 c -2.3324595,0.7156 -2.8883295,1.4222 -4.3308995,2.8706 0.53571,0.6696 1.45927,1.1975 2.12754,1.2717 0.87137,-0.9918 1.8866205,-2.6923 2.2033595,-4.1423 z"
       style="fill:#000000;fill-opacity:1;fill-rule:evenodd;stroke:none;stroke-width:0.1;stroke-linecap:butt;stroke-linejoin:miter;stroke-miterlimit:4;stroke-dasharray:none;stroke-opacity:1" />
    <path
       id="path6029-37-6-9-9-7-9-1-4-4-3"
       d="m 39.51687,930.7234 c 0.0893,2.45535 0.65651,3.5226 1.733411,5.46491 0.295519,-2.24748 -0.130751,-3.03571 0.137099,-4.55356 -0.66964,-0.40179 -1.1576,-0.56936 -1.87051,-0.91135 z"
       style="fill:#000000;fill-opacity:1;fill-rule:evenodd;stroke:none;stroke-width:0.1;stroke-linecap:butt;stroke-linejoin:miter;stroke-miterlimit:4;stroke-dasharray:none;stroke-opacity:1" />
    <path
       id="path6029-3-5-8-3-2-0-1-2-8-6-6"
       d="m 43.679231,937.19661 c 0.875879,-1.96879 0.38964,-1.83035 1.41642,-3.88392 -0.580351,-0.35714 -0.971361,-0.41694 -1.63963,-0.6697 -0.30951,1.6678 -0.21767,3.37466 0.22321,4.55362 z"
       style="fill:#000000;fill-opacity:1;fill-rule:evenodd;stroke:none;stroke-width:0.1;stroke-linecap:butt;stroke-linejoin:miter;stroke-miterlimit:4;stroke-dasharray:none;stroke-opacity:1" />
    <path
       id="path5956-1-0-4-8-8-7-3-7-1"
       d="m 76.94228,1021.3619 a 4.2857141,4.2857141 0 0 0 -4.285156,4.2852 4.2857141,4.2857141 0 0 0 4.285156,4.2871 4.2857141,4.2857141 0 0 0 4.285156,-4.2871 4.2857141,4.2857141 0 0 0 -4.285156,-4.2852 z m 0,1.3867 a 2.8985507,2.8985507 0 0 1 2.898438,2.8985 2.8985507,2.8985507 0 0 1 -2.898438,2.8984 2.8985507,2.8985507 0 0 1 -2.898438,-2.8984 2.8985507,2.8985507 0 0 1 2.898438,-2.8985 z"
       style="fill:#000000;fill-opacity:1;fill-rule:evenodd;stroke:none;stroke-width:0.1;stroke-linecap:butt;stroke-linejoin:miter;stroke-miterlimit:4;stroke-dasharray:none;stroke-opacity:1" />
  </g>
</svg>
