<?xml version="1.0" encoding="UTF-8" standalone="no"?>
<svg
   xmlns:dc="http://purl.org/dc/elements/1.1/"
   xmlns:cc="http://creativecommons.org/ns#"
   xmlns:rdf="http://www.w3.org/1999/02/22-rdf-syntax-ns#"
   xmlns:svg="http://www.w3.org/2000/svg"
   xmlns="http://www.w3.org/2000/svg"
   version="1.1"
   id="svg5092"
   viewBox="0 0 75.809998 75.809999"
   height="75.809998"
   width="75.809998">
  <defs
     id="defs5094" />
  <metadata
     id="metadata5097">
    <rdf:RDF>
      <cc:Work
         rdf:about="">
        <dc:format>image/svg+xml</dc:format>
        <dc:type
           rdf:resource="http://purl.org/dc/dcmitype/StillImage" />
        <dc:title></dc:title>
      </cc:Work>
    </rdf:RDF>
  </metadata>
  <g
     transform="translate(0,-976.55216)"
     id="layer1">
    <path
       id="path4241-3-4-2-8-1-6-3-4-5-2-7-9-5"
       d="M 2.589844,962.46817 C 2.636944,968.54547 2.33473,973.21141 0,976.55216 c 3.34075,2.33473 8.006694,2.63695 14.083984,2.58985 -2.31494,3.95145 -7.196582,10.10111 -7.070312,20.83398 -8.46002,-0.88388 -21.812064,-1.34477 -30.683594,0.75781 5.8161,5.4588 28.914063,23.6133 28.914063,23.6133 L 0,1038.6147 c -3.16961,-6.1079 -11.569575,-21.9623 -23.853515,-19.3457 -0.19561,7.6739 -6.691791,12.1213 -5.681641,17.9297 4.79823,0 10.353516,-4.418 10.353516,-4.418 L 0,1052.3627 l 19.310547,-18.834 c 0,0 28.630008,14.2194 33.429688,18.834 7.35784,6.8407 10.96134,17.1694 11.64453,21.3164 3.91906,-2.4735 11.42385,-7.8278 11.42383,-21.3164 -13.48859,0 -18.84289,-7.5048 -21.31641,-11.4238 4.14707,-0.6832 14.47569,-4.2887 21.31641,-11.6465 4.61466,-4.7997 18.83398,-33.42969 18.83398,-33.42969 l -18.83398,-19.31055 -19.58203,19.17969 c 0,0 4.41992,5.55725 4.41992,10.35545 -5.80837,1.0102 -10.255728,-5.486 -17.929688,-5.6816 -2.61658,-12.28396 13.237858,-20.68393 19.345698,-23.85354 l -14.269526,-5.24609 c 0,0 -18.152518,23.09992 -23.611328,28.91603 -2.102581,-8.87154 -1.641693,-22.22359 -0.757813,-30.68361 -10.73287,0.12627 -16.882534,-4.75538 -20.833984,-7.07032 z m 1.960937,4.99415 c 2.05357,1.02678 2.629702,1.83422 4.107422,2.88867 -1.13432,0.0837 -2.663949,0.0419 -4.287109,-0.89258 0.07419,-0.66827 0.04576,-1.46038 0.179687,-1.99609 z m -0.964843,5.31445 c 2.053569,1.02678 2.530145,1.27172 4.197265,2.32617 -1.89767,0.1394 -2.742188,0.25975 -4.617187,-0.67773 0.20807,-0.62363 0.285992,-1.11273 0.419922,-1.64844 z m 47.365234,0.6582 c 0.62363,0.20807 0.986458,0.47618 1.648438,0.92578 -1.21618,1.35909 -1.522555,1.39402 -3.271485,2.8086 0.42881,-2.08707 0.874957,-2.74326 1.623047,-3.73438 z m 4.478513,1.79492 c 0.66827,0.0742 1.14593,0.42271 1.68164,0.55664 -1.53186,1.35909 -2.08774,1.61922 -4.15234,2.78126 0.67388,-1.44999 1.59933,-2.34608 2.4707,-3.3379 z m 20.9961,7.36524 c 3.1169,28.82027 -4.69441,41.44967 -22.843753,43.99607 -18.20046,2.5537 -69.478516,-23.2832 -69.478516,-23.2832 0,0 49.05539,22.8188 68.75,21.7871 14.599679,-0.7647 26.689169,-13.6797 23.572269,-42.49997 z m -8.49805,9.85547 a 4.2857141,4.2857141 0 0 1 4.28516,4.28516 4.2857141,4.2857141 0 0 1 -4.28516,4.28714 4.2857141,4.2857141 0 0 1 -4.28516,-4.28714 4.2857141,4.2857141 0 0 1 4.28516,-4.28516 z m 16,0 a 4.2857141,4.2857141 0 0 1 4.28516,4.28516 4.2857141,4.2857141 0 0 1 -4.28516,4.28714 4.2857141,4.2857141 0 0 1 -4.28516,-4.28714 4.2857141,4.2857141 0 0 1 4.28516,-4.28516 z m -108.195313,36.0977 c 2.05357,1.0267 1.915976,0.5401 3.884766,1.416 -1.17896,0.4409 -2.884935,0.5341 -4.552735,0.2246 0.25276,-0.6683 0.310829,-1.0603 0.667969,-1.6406 z m -1.677734,3.7089 c 1.51785,0.2679 2.307207,-0.1588 4.554687,0.1368 -1.94231,1.0769 -3.009493,1.6431 -5.464843,1.7324 0.341988,-0.7129 0.508366,-1.1995 0.910156,-1.8692 z m 94.150387,25.2852 c 2.17635,-0.018 3.36742,0.072 5.16211,0.4629 0.0598,0.8915 -0.2086,1.7892 -0.6582,2.4512 -1.53767,-0.5912 -3.00005,-1.2545 -4.50391,-2.9141 z m -2.20312,5.3281 c 1.44999,0.3168 3.15076,1.3318 4.14258,2.2032 -0.0742,0.6682 -0.60185,1.5912 -1.27149,2.1269 -1.44838,-1.4426 -2.15548,-1.9976 -2.87109,-4.3301 z"
       style="display:inline;fill:#00000f;fill-opacity:0.94117647;fill-rule:evenodd;stroke:none;stroke-width:0.1;stroke-linecap:butt;stroke-linejoin:miter;stroke-miterlimit:4;stroke-dasharray:none;stroke-opacity:1" />
    <circle
       r="2.8985507"
       transform="scale(-1,1)"
       cy="996.73669"
       cx="-83.927582"
       id="path5956-2-1-5-6-3-8-2-5-6-0-1-8-6"
       style="display:inline;fill:#000000;fill-opacity:1;fill-rule:evenodd;stroke:none;stroke-width:0.1;stroke-linecap:butt;stroke-linejoin:miter;stroke-miterlimit:4;stroke-dasharray:none;stroke-opacity:1" />
    <circle
       r="2.8985507"
       transform="scale(-1,1)"
       cy="996.73669"
       cx="-67.927582"
       id="path5956-2-1-2-1-9-8-2-1-7-2-1-9-7-9"
       style="display:inline;fill:#000000;fill-opacity:1;fill-rule:evenodd;stroke:none;stroke-width:0.1;stroke-linecap:butt;stroke-linejoin:miter;stroke-miterlimit:4;stroke-dasharray:none;stroke-opacity:1" />
  </g>
</svg>
