<?xml version="1.0" encoding="UTF-8" standalone="no"?>
<svg
   xmlns:dc="http://purl.org/dc/elements/1.1/"
   xmlns:cc="http://creativecommons.org/ns#"
   xmlns:rdf="http://www.w3.org/1999/02/22-rdf-syntax-ns#"
   xmlns:svg="http://www.w3.org/2000/svg"
   xmlns="http://www.w3.org/2000/svg"
   version="1.1"
   id="svg9772"
   viewBox="0 0 80.000001 80.000001"
   height="80"
   width="80">
  <defs
     id="defs9774" />
  <metadata
     id="metadata9777">
    <rdf:RDF>
      <cc:Work
         rdf:about="">
        <dc:format>image/svg+xml</dc:format>
        <dc:type
           rdf:resource="http://purl.org/dc/dcmitype/StillImage" />
        <dc:title></dc:title>
      </cc:Work>
    </rdf:RDF>
  </metadata>
  <g
     transform="translate(0,-972.36216)"
     id="layer1">
    <g
       transform="matrix(1.25,0,0,-1.25,21.9725,1002.1272)"
       id="g8321">
      <path
         id="path8323"
         style="fill:#ffffff;fill-opacity:1;fill-rule:nonzero;stroke:none"
         d="M 0,0 10.593,-9.16 0,-17.07 0,0 Z m 1.665,2.342 25.719,0 c 1.387,0 1.387,-0.742 1.387,-0.742 L 16.05,-8.252 c -0.369,-0.371 -0.785,-0.463 -1.618,-0.463 -0.833,0 -1.481,0.695 -1.481,0.695 L 0.462,1.832 c 0.393,0.393 1.203,0.51 1.203,0.51 m 27.384,-19.412 -10.686,7.726 10.686,9.02 0,-16.746 z m -28.402,-0.647 10.639,8.002 c 0,0 1.758,-1.896 3.33,-1.896 1.573,0 3.193,1.896 3.193,1.896 l 10.314,-8.002 -27.476,0 z m 13.775,-22.471 c 17.673,0 32,14.327 32,32 0,17.674 -14.327,32 -32,32 -17.673,0 -32,-14.326 -32,-32 0,-17.673 14.327,-32 32,-32" />
    </g>
  </g>
</svg>
