<?xml version="1.0" encoding="UTF-8" standalone="no"?>
<svg
   xmlns:dc="http://purl.org/dc/elements/1.1/"
   xmlns:cc="http://creativecommons.org/ns#"
   xmlns:rdf="http://www.w3.org/1999/02/22-rdf-syntax-ns#"
   xmlns:svg="http://www.w3.org/2000/svg"
   xmlns="http://www.w3.org/2000/svg"
   version="1.1"
   id="svg9772"
   viewBox="0 0 80.000001 80.000001"
   height="80"
   width="80">
  <defs
     id="defs9774" />
  <metadata
     id="metadata9777">
    <rdf:RDF>
      <cc:Work
         rdf:about="">
        <dc:format>image/svg+xml</dc:format>
        <dc:type
           rdf:resource="http://purl.org/dc/dcmitype/StillImage" />
        <dc:title></dc:title>
      </cc:Work>
    </rdf:RDF>
  </metadata>
  <g
     transform="translate(0,-972.36216)"
     id="layer1">
    <g
       transform="matrix(1.25,0,0,-1.25,30.76125,1007.6009)"
       id="g8233">
      <path
         id="path8235"
         style="fill:#027037;fill-opacity:1;fill-rule:nonzero;stroke:none"
         d="m 0,0 4.376,0 0,4.058 c 0,0 -0.184,2.651 1.829,4.664 2.012,2.012 4.721,1.821 8.577,1.486 l 0,-4.529 -2.85,0 c 0,0 -1.199,0.024 -1.762,-0.622 C 9.607,4.409 9.668,3.486 9.668,3.259 l 0,-3.259 4.947,0 -0.636,-5.044 -4.336,0 0,-12.993 -5.247,0 0,13.017 L 0,-5.02 0,0 Z m 7.391,-35.809 c 17.673,0 32,14.327 32,32 0,17.674 -14.327,32 -32,32 -17.674,0 -32,-14.326 -32,-32 0,-17.673 14.326,-32 32,-32" />
    </g>
  </g>
</svg>
