<?xml version="1.0" encoding="UTF-8" standalone="no"?>
<svg
   xmlns:dc="http://purl.org/dc/elements/1.1/"
   xmlns:cc="http://creativecommons.org/ns#"
   xmlns:rdf="http://www.w3.org/1999/02/22-rdf-syntax-ns#"
   xmlns:svg="http://www.w3.org/2000/svg"
   xmlns="http://www.w3.org/2000/svg"
   version="1.1"
   id="svg9772"
   viewBox="0 0 80.000001 80.000001"
   height="80"
   width="80">
  <defs
     id="defs9774" />
  <metadata
     id="metadata9777">
    <rdf:RDF>
      <cc:Work
         rdf:about="">
        <dc:format>image/svg+xml</dc:format>
        <dc:type
           rdf:resource="http://purl.org/dc/dcmitype/StillImage" />
        <dc:title></dc:title>
      </cc:Work>
    </rdf:RDF>
  </metadata>
  <g
     transform="translate(0,-972.36216)"
     id="layer1">
    <g
       transform="matrix(1.25,0,0,-1.25,39.99875,995.03591)"
       id="g8411">
      <path
         id="path8413"
         style="fill:#027037;fill-opacity:1;fill-rule:nonzero;stroke:none"
         d="m 0,0 c 7.825,0 14.17,-6.344 14.17,-14.168 0,-6.371 -4.203,-11.757 -9.987,-13.542 -0.676,0.202 -0.672,0.802 -0.672,0.802 0,0 0.051,3.12 0.051,4.212 0,1.092 -0.936,2.34 -0.936,2.34 5.513,0.442 6.395,4.056 6.395,6.655 0,2.6 -1.481,4.004 -1.481,4.004 0.521,2.21 -0.104,3.639 -0.104,3.639 -2.522,-0.286 -3.769,-1.534 -3.769,-1.534 0,0 -1.639,0.598 -3.719,0.598 -2.079,0 -3.431,-0.571 -3.431,-0.571 -1.976,1.715 -3.873,1.482 -3.873,1.482 -0.624,-1.768 -0.04,-3.692 -0.04,-3.692 -1.56,-1.599 -1.521,-4.251 -1.521,-4.251 0.233,-6.279 6.356,-6.376 6.356,-6.376 -0.935,-0.819 -0.741,-1.989 -0.741,-1.989 -0.096,-0.019 -0.253,-0.116 -0.623,-0.292 -0.371,-0.175 -1.15,-0.039 -1.15,-0.039 -1.678,0 -2.164,1.209 -2.516,1.638 -0.35,0.429 -0.681,0.818 -1.112,1.072 -0.429,0.254 -1.676,0.507 -1.559,-0.077 0.116,-0.586 1.169,-0.293 1.833,-1.912 0.663,-1.618 1.286,-2.105 2.163,-2.437 0.878,-0.331 2.789,-0.039 2.789,-0.039 l 0,-2.808 c -0.175,-0.409 -0.643,-0.409 -0.643,-0.409 l -0.021,-0.028 c -5.804,1.771 -10.028,7.169 -10.028,13.554 C -14.169,-6.344 -7.824,0 0,0 m 0.001,-45.861 c 17.674,0 32,14.327 32,32 0,17.674 -14.326,32 -32,32 -17.674,0 -32,-14.326 -32,-32 0,-17.673 14.326,-32 32,-32" />
    </g>
  </g>
</svg>
