<?xml version="1.0" encoding="UTF-8" standalone="no"?>
<svg
   xmlns:dc="http://purl.org/dc/elements/1.1/"
   xmlns:cc="http://creativecommons.org/ns#"
   xmlns:rdf="http://www.w3.org/1999/02/22-rdf-syntax-ns#"
   xmlns:svg="http://www.w3.org/2000/svg"
   xmlns="http://www.w3.org/2000/svg"
   version="1.1"
   id="svg9772"
   viewBox="0 0 80.000001 80.000001"
   height="80"
   width="80">
  <defs
     id="defs9774" />
  <metadata
     id="metadata9777">
    <rdf:RDF>
      <cc:Work
         rdf:about="">
        <dc:format>image/svg+xml</dc:format>
        <dc:type
           rdf:resource="http://purl.org/dc/dcmitype/StillImage" />
        <dc:title></dc:title>
      </cc:Work>
    </rdf:RDF>
  </metadata>
  <g
     transform="translate(0,-972.36216)"
     id="layer1">
    <g
       id="g9745"
       transform="matrix(1.25,0,0,-1.25,-12.499875,2268.6415)">
      <g
         transform="translate(29.7119,1014.6094)"
         id="g8237">
        <path
           id="path8239"
           style="fill:#027037;fill-opacity:1;fill-rule:nonzero;stroke:none"
           d="m 0,0 c 0,1.472 1.192,2.665 2.664,2.665 l 19.452,0 c 1.472,0 2.665,-1.193 2.665,-2.665 l 0,-19.452 c 0,-1.472 -1.193,-2.665 -2.665,-2.665 l -19.452,0 C 1.192,-22.117 0,-20.924 0,-19.452 L 0,0 Z m 12.288,-41.586 c 17.673,0 32,14.326 32,32 0,17.673 -14.327,32 -32,32 -17.673,0 -32,-14.327 -32,-32 0,-17.674 14.327,-32 32,-32" />
      </g>
      <g
         transform="translate(42.1025,999.8564)"
         id="g8241">
        <path
           id="path8243"
           style="fill:#027037;fill-opacity:1;fill-rule:nonzero;stroke:none"
           d="M 0,0 C 2.8,0 5.07,2.271 5.07,5.071 5.07,5.914 4.863,6.709 4.499,7.409 4.395,7.61 4.277,7.803 4.147,7.986 4.145,7.991 4.141,7.996 4.138,8 4.045,8.131 3.945,8.259 3.84,8.381 3.832,8.389 3.826,8.397 3.818,8.405 3.717,8.521 3.609,8.633 3.498,8.74 3.486,8.75 3.476,8.761 3.464,8.772 3.43,8.804 3.395,8.836 3.359,8.868 3.346,8.879 3.332,8.891 3.318,8.902 3.257,8.957 3.193,9.009 3.129,9.059 3.111,9.073 3.094,9.087 3.076,9.101 3.043,9.126 3.01,9.151 2.977,9.175 2.953,9.192 2.93,9.208 2.906,9.225 2.865,9.254 2.822,9.283 2.779,9.311 2.74,9.337 2.7,9.363 2.66,9.388 2.629,9.407 2.599,9.425 2.568,9.443 2.537,9.461 2.505,9.479 2.473,9.497 2.443,9.514 2.414,9.53 2.385,9.546 2.328,9.576 2.272,9.605 2.215,9.633 2.191,9.645 2.166,9.656 2.143,9.667 2.1,9.687 2.059,9.706 2.017,9.724 1.99,9.735 1.963,9.747 1.936,9.758 1.885,9.779 1.832,9.8 1.78,9.819 1.759,9.828 1.736,9.836 1.716,9.843 1.657,9.864 1.599,9.884 1.539,9.903 1.516,9.911 1.491,9.918 1.467,9.925 1.414,9.941 1.361,9.957 1.307,9.971 L 1.254,9.985 C 1.184,10.003 1.113,10.019 1.043,10.034 1.021,10.038 1.002,10.042 0.982,10.046 0.925,10.057 0.867,10.068 0.811,10.077 0.791,10.08 0.771,10.083 0.75,10.086 0.677,10.097 0.604,10.107 0.528,10.115 0.515,10.116 0.5,10.117 0.486,10.118 0.424,10.125 0.359,10.129 0.295,10.133 0.274,10.134 0.254,10.135 0.232,10.136 0.154,10.14 0.077,10.142 0,10.142 -0.078,10.142 -0.156,10.14 -0.232,10.136 -0.254,10.135 -0.275,10.134 -0.297,10.133 -0.36,10.129 -0.424,10.125 -0.488,10.118 -0.502,10.117 -0.516,10.116 -0.529,10.115 -0.604,10.107 -0.678,10.097 -0.752,10.086 -0.771,10.083 -0.791,10.08 -0.811,10.077 -0.869,10.068 -0.926,10.057 -0.982,10.046 -1.003,10.042 -1.023,10.038 -1.043,10.034 -1.114,10.019 -1.185,10.003 -1.254,9.985 -1.272,9.98 -1.29,9.976 -1.309,9.971 -1.361,9.957 -1.415,9.941 -1.469,9.925 -1.492,9.918 -1.517,9.911 -1.54,9.903 -1.6,9.884 -1.658,9.864 -1.717,9.843 -1.738,9.836 -1.76,9.828 -1.781,9.819 -1.834,9.8 -1.885,9.779 -1.937,9.758 -1.965,9.747 -1.99,9.735 -2.018,9.724 -2.06,9.706 -2.102,9.687 -2.143,9.667 -2.168,9.656 -2.192,9.645 -2.217,9.633 -2.273,9.605 -2.33,9.576 -2.385,9.546 -2.415,9.53 -2.444,9.514 -2.474,9.497 -2.506,9.479 -2.537,9.461 -2.568,9.443 -2.6,9.425 -2.63,9.407 -2.66,9.388 -2.701,9.363 -2.741,9.337 -2.781,9.311 -2.823,9.283 -2.865,9.254 -2.907,9.225 -2.931,9.208 -2.954,9.192 -2.977,9.175 -3.011,9.151 -3.045,9.126 -3.078,9.101 -3.096,9.087 -3.113,9.073 -3.131,9.059 -3.194,9.009 -3.258,8.957 -3.32,8.902 -3.333,8.891 -3.348,8.879 -3.359,8.868 -3.396,8.836 -3.431,8.804 -3.465,8.772 -3.477,8.761 -3.488,8.75 -3.499,8.74 -3.611,8.633 -3.718,8.521 -3.819,8.405 -3.826,8.397 -3.834,8.389 -3.84,8.381 -3.945,8.259 -4.045,8.131 -4.139,8 -4.143,7.996 -4.145,7.991 -4.148,7.986 -4.277,7.803 -4.396,7.61 -4.5,7.409 -4.864,6.709 -5.071,5.914 -5.071,5.071 -5.071,2.271 -2.801,0 0,0" />
      </g>
      <g
         transform="translate(34.165,995.3584)"
         id="g8245">
        <path
           id="path8247"
           style="fill:#027037;fill-opacity:1;fill-rule:nonzero;stroke:none"
           d="m 0,0 15.874,0 c 0.876,0 1.588,0.711 1.588,1.588 l 0,10.318 -2.169,0 c 0.234,-0.737 0.361,-1.522 0.361,-2.337 0,-4.262 -3.455,-7.716 -7.717,-7.716 -4.261,0 -7.716,3.454 -7.716,7.716 0,0.815 0.126,1.6 0.36,2.337 l -2.169,0 0,-10.318 C -1.588,0.711 -0.877,0 0,0" />
      </g>
      <g
         transform="translate(48.4199,1009.998)"
         id="g8249">
        <path
           id="path8251"
           style="fill:#027037;fill-opacity:1;fill-rule:nonzero;stroke:none"
           d="m 0,0 2.004,0 c 0.688,0 1.247,0.559 1.247,1.248 l 0,2.003 c 0,0.688 -0.559,1.247 -1.247,1.247 L 0,4.498 c -0.688,0 -1.247,-0.559 -1.247,-1.247 l 0,-2.003 C -1.247,0.559 -0.688,0 0,0" />
      </g>
    </g>
  </g>
</svg>
