<?xml version="1.0" encoding="UTF-8" standalone="no"?>
<svg
   xmlns:dc="http://purl.org/dc/elements/1.1/"
   xmlns:cc="http://creativecommons.org/ns#"
   xmlns:rdf="http://www.w3.org/1999/02/22-rdf-syntax-ns#"
   xmlns:svg="http://www.w3.org/2000/svg"
   xmlns="http://www.w3.org/2000/svg"
   version="1.1"
   id="svg9772"
   viewBox="0 0 80.000001 80.000001"
   height="80"
   width="80">
  <defs
     id="defs9774" />
  <metadata
     id="metadata9777">
    <rdf:RDF>
      <cc:Work
         rdf:about="">
        <dc:format>image/svg+xml</dc:format>
        <dc:type
           rdf:resource="http://purl.org/dc/dcmitype/StillImage" />
        <dc:title></dc:title>
      </cc:Work>
    </rdf:RDF>
  </metadata>
  <g
     transform="translate(0,-972.36216)"
     id="layer1">
    <g
       transform="matrix(1.25,0,0,-1.25,53.4125,1016.0459)"
       id="g8265">
      <path
         id="path8267"
         style="fill:#ffffff;fill-opacity:1;fill-rule:nonzero;stroke:none"
         d="m 0,0 0,-7.744 -4.476,0 0,7.349 c 0,0.832 0.187,3.352 -2.478,3.352 -2.666,0 -2.499,-3.332 -2.499,-3.332 l 0,-7.369 -4.435,0 0,14.282 4.268,0 0,-2.019 c 1.146,1.874 3.311,2.935 6.601,2.019 C 0.271,5.623 0,0 0,0 m -18.888,8.481 c -1.424,0 -2.579,1.154 -2.579,2.579 0,1.424 1.155,2.579 2.579,2.579 1.423,0 2.578,-1.155 2.578,-2.579 0,-1.425 -1.155,-2.579 -2.578,-2.579 m 2.209,-16.225 -4.455,0 0,14.282 4.455,0 0,-14.282 z m 5.949,42.691 c -17.674,0 -32,-14.326 -32,-32 0,-17.673 14.326,-32 32,-32 17.673,0 32,14.327 32,32 0,17.674 -14.327,32 -32,32" />
    </g>
  </g>
</svg>
