<?xml version="1.0" encoding="UTF-8" standalone="no"?>
<svg
   xmlns:dc="http://purl.org/dc/elements/1.1/"
   xmlns:cc="http://creativecommons.org/ns#"
   xmlns:rdf="http://www.w3.org/1999/02/22-rdf-syntax-ns#"
   xmlns:svg="http://www.w3.org/2000/svg"
   xmlns="http://www.w3.org/2000/svg"
   version="1.1"
   id="svg9772"
   viewBox="0 0 80.000001 80.000001"
   height="80"
   width="80">
  <defs
     id="defs9774" />
  <metadata
     id="metadata9777">
    <rdf:RDF>
      <cc:Work
         rdf:about="">
        <dc:format>image/svg+xml</dc:format>
        <dc:type
           rdf:resource="http://purl.org/dc/dcmitype/StillImage" />
        <dc:title></dc:title>
      </cc:Work>
    </rdf:RDF>
  </metadata>
  <g
     transform="translate(0,-972.36216)"
     id="layer1">
    <g
       transform="matrix(1.25,0,0,-1.25,29.55,1019.2572)"
       id="g8839">
      <path
         id="path8841"
         style="fill:#ffffff;fill-opacity:1;fill-rule:nonzero;stroke:none"
         d="m 0,0 0.884,0 c 0,0 0.829,0.056 0.885,0.719 l 0,9.609 c 0,0 -0.277,0.608 -1.106,0.663 l -0.663,0 0,2.099 7.07,0 2.43,-8.616 2.265,8.616 7.401,0 0,-2.431 -1.105,0 -0.442,-0.441 0,-9.445 c 0,0 0.221,-0.717 0.663,-0.717 l 0.884,0 0,-2.155 -6.794,0 0,2.099 1.271,0 0,9.887 -3.646,-11.986 -2.431,0 -3.147,11.764 0,-9.72 1.27,0 0,-2.044 L 0,-2.099 0,0 Z m 8.36,-26.484 c 17.674,0 32,14.326 32,32 0,17.673 -14.326,32 -32,32 -17.673,0 -32,-14.327 -32,-32 0,-17.674 14.327,-32 32,-32" />
    </g>
  </g>
</svg>
