<?xml version="1.0" encoding="UTF-8" standalone="no"?>
<svg
   xmlns:dc="http://purl.org/dc/elements/1.1/"
   xmlns:cc="http://creativecommons.org/ns#"
   xmlns:rdf="http://www.w3.org/1999/02/22-rdf-syntax-ns#"
   xmlns:svg="http://www.w3.org/2000/svg"
   xmlns="http://www.w3.org/2000/svg"
   version="1.1"
   id="svg9772"
   viewBox="0 0 80.000001 80.000001"
   height="80"
   width="80">
  <defs
     id="defs9774" />
  <metadata
     id="metadata9777">
    <rdf:RDF>
      <cc:Work
         rdf:about="">
        <dc:format>image/svg+xml</dc:format>
        <dc:type
           rdf:resource="http://purl.org/dc/dcmitype/StillImage" />
        <dc:title></dc:title>
      </cc:Work>
    </rdf:RDF>
  </metadata>
  <g
     transform="translate(0,-972.36216)"
     id="layer1">
    <g
       transform="matrix(1.25,0,0,-1.25,32.73,1020.7034)"
       id="g8229">
      <path
         id="path8231"
         style="fill:#027037;fill-opacity:1;fill-rule:nonzero;stroke:none"
         d="m 0,0 c 0,0 -4.254,0.082 -5.48,4.05 0,0 2.126,-0.164 2.495,0.245 0,0 -4.582,1.105 -4.623,5.892 0,0 1.391,-0.696 2.658,-0.737 0,0 -4.417,3.191 -1.738,7.956 0,0 4.459,-5.911 12.211,-6.32 0,0 -1.05,3.492 2.168,6.163 3.219,2.674 7.2,0.409 7.963,-0.6 0,0 2.264,0.355 3.845,1.418 0,0 -0.517,-2.041 -2.427,-3.27 0,0 2.237,0.298 3.273,0.898 0,0 -1.091,-1.745 -2.972,-3.081 0,0 0.79,-7.377 -5.55,-13.473 C 5.482,-6.955 -4.95,-5.686 -8.712,-2.495 -8.712,-2.495 -3.6,-3.068 0,0 m 5.816,-25.327 c 17.673,0 32,14.327 32,32 0,17.674 -14.327,32 -32,32 -17.673,0 -32,-14.326 -32,-32 0,-17.673 14.327,-32 32,-32" />
    </g>
  </g>
</svg>
